<svg xmlns="http://www.w3.org/2000/svg" width="30" height="24" viewBox="0 0 30 24" fill="none">
<g clip-path="url(#clip0_647_17512)">
<path d="M0 15.8047H30V23.4134H0V15.8047Z" fill="black"/>
<path d="M0 8.19727H30V15.806H0V8.19727Z" fill="white"/>
<path d="M0 0.587891H30V8.19659H0V0.587891Z" fill="#CE1126"/>
<path d="M15.03 12.0924L17.5983 14.5112L17.4155 10.1183C17.3886 9.45257 16.8183 9.60528 16.4041 9.84545C15.9844 10.1183 15.5056 10.1183 14.9998 9.93816C14.4941 10.1183 14.0153 10.1183 13.5957 9.84545C13.1815 9.60528 12.6113 9.45253 12.5843 10.1183L12.4014 14.5112L15.03 12.0924L15.03 12.0924Z" fill="white" stroke="#C09300" stroke-width="1.016" stroke-linejoin="round"/>
<path d="M12.8797 9.96484L12.7022 14.2379L12.4009 14.5106L12.5839 10.1177C12.6699 10.0577 12.8206 9.96488 12.8798 9.96488L12.8797 9.96484ZM13.2405 10.2707L13.0898 13.8451L12.7886 14.1578L12.9716 10.0305C13.0308 10.0905 13.2083 10.2378 13.2405 10.2705L13.2405 10.2707ZM13.5686 10.5435L13.4503 13.5246L13.2082 13.7647L13.3589 10.3634C13.4179 10.4234 13.5363 10.5108 13.5686 10.5435ZM13.9237 10.6964L13.8054 13.2372L13.5686 13.432L13.687 10.6037C13.7463 10.6309 13.8646 10.6964 13.9238 10.6964H13.9237ZM14.2518 10.6964L14.1657 12.8138L13.9236 13.054L14.0151 10.7237C14.0742 10.7237 14.2249 10.7237 14.2518 10.6964Z" fill="#C09300"/>
<path d="M17.1193 9.96484L17.2968 14.2379L17.5981 14.5106L17.4151 10.1177C17.3291 10.0577 17.1784 9.96488 17.1193 9.96488L17.1193 9.96484ZM16.7586 10.2707L16.9092 13.8451L17.2104 14.1578L17.0275 10.0305C16.9682 10.0905 16.7907 10.2378 16.7585 10.2705L16.7586 10.2707ZM16.4304 10.5435L16.5487 13.5246L16.7908 13.7647L16.6401 10.3634C16.5811 10.4234 16.4628 10.5108 16.4304 10.5435ZM16.0753 10.6964L16.1937 13.2372L16.4304 13.432L16.312 10.6037C16.2528 10.6309 16.1344 10.6964 16.0753 10.6964H16.0753ZM15.7472 10.6964L15.8333 12.8138L16.0754 13.054L15.9839 10.7237C15.9248 10.7237 15.7741 10.7237 15.7472 10.6964Z" fill="#C09300"/>
<path d="M15.1183 12.5742L15.4787 14.2388L15.3603 14.3588L15.2366 14.266L15.0322 12.7817L15.1182 14.2661L14.9998 14.4189L14.8814 14.2661L14.9675 12.7817L14.7632 14.2661L14.6393 14.359L14.521 14.2389L14.8814 12.5743H15.1182L15.1183 12.5742Z" fill="#C09300" stroke="#C09300" stroke-width="0.8592"/>
<path d="M14.1926 11.8438L13.4771 14.4195L14.4616 14.5724L14.8812 12.6351L14.1926 11.8438V11.8438Z" fill="white" stroke="#C09300" stroke-width="0.9512" stroke-linejoin="round"/>
<path d="M13.9561 12.7223L14.0422 12.9351L14.5073 12.4844" stroke="#C09300" stroke-width="1.016" stroke-linejoin="round"/>
<path d="M14.278 12.1895L14.3754 13.1157L14.6712 12.7227M14.5529 12.8754L14.7145 13.4413M14.7779 13.2334L14.451 13.7371M14.553 14.2399L14.4483 13.7378L14.357 13.2271L14.138 13.528L14.0419 13.1811L13.7354 13.5L13.8912 14.0803L14.1064 13.7213L14.2247 14.087L14.4456 13.7384" stroke="#C09300" stroke-width="1.016" stroke-linejoin="round"/>
<path d="M13.6865 14.3594L13.8853 14.0762L14.0147 14.512L14.1923 14.2065L14.3107 14.5723" stroke="#C09300" stroke-width="1.016" stroke-linejoin="round"/>
<path d="M15.8065 11.8438L16.522 14.4195L15.5374 14.5724L15.1179 12.6351L15.8065 11.8438V11.8438Z" fill="white" stroke="#C09300" stroke-width="0.9512" stroke-linejoin="round"/>
<path d="M16.043 12.7223L15.9569 12.9351L15.4917 12.4844" stroke="#C09300" stroke-width="1.016" stroke-linejoin="round"/>
<path d="M15.721 12.1895L15.6237 13.1157L15.3278 12.7227M15.4461 12.8754L15.2845 13.4413M15.2211 13.2334L15.5481 13.7371M15.4461 14.2399L15.5507 13.7378L15.6421 13.2271L15.8611 13.528L15.9571 13.1811L16.2637 13.5L16.1078 14.0803L15.8926 13.7213L15.7743 14.087L15.5535 13.7384" stroke="#C09300" stroke-width="1.016" stroke-linejoin="round"/>
<path d="M16.3125 14.3594L16.1137 14.0762L15.9843 14.512L15.8067 14.2065L15.6883 14.5723" stroke="#C09300" stroke-width="1.016" stroke-linejoin="round"/>
<path d="M14.9997 15.5708C15.7476 15.5708 16.4631 15.5108 16.8827 15.3907C17.0603 15.358 17.0603 15.2652 17.0603 15.1451C17.2379 15.0851 17.1464 14.8724 17.2701 14.8724C17.1464 14.9052 17.1195 14.6596 16.9689 14.6924C16.9689 14.4795 16.759 14.4522 16.5815 14.5121C16.2264 14.6323 15.5969 14.6595 14.9997 14.6595C14.4026 14.6323 13.7785 14.6323 13.418 14.5121C13.2405 14.4523 13.0308 14.4795 13.0308 14.6925C12.8801 14.6596 12.8532 14.9052 12.7295 14.8724C12.8532 14.8724 12.7617 15.0852 12.9393 15.1452C12.9393 15.2653 12.9393 15.3581 13.1222 15.3908C13.5364 15.5108 14.252 15.5709 14.9997 15.5709V15.5708Z" fill="white" stroke="#C09300" stroke-width="1.9024" stroke-linecap="round" stroke-linejoin="round"/>
<path d="M13.9829 14.4192C14.2249 14.4519 14.494 14.4793 14.7039 14.4519C14.8221 14.4519 14.9082 14.6594 14.6715 14.6922C14.4618 14.7194 14.1336 14.6922 13.956 14.6594C13.8054 14.632 13.4772 14.5721 13.2673 14.5119C13.0576 14.4192 13.2082 14.2392 13.3265 14.2664C13.5095 14.3264 13.7462 14.3866 13.9829 14.4192ZM16.0165 14.4192C15.7744 14.4519 15.5055 14.4793 15.301 14.4519C15.1772 14.4519 15.0912 14.6594 15.3279 14.6922C15.5377 14.7194 15.8659 14.6922 16.0433 14.6594C16.1941 14.632 16.5222 14.5721 16.732 14.5119C16.9419 14.4192 16.7912 14.2392 16.6728 14.2664C16.4899 14.3264 16.2532 14.3866 16.0166 14.4192H16.0165Z" fill="white" stroke="#C09300" stroke-width="1.016" stroke-linecap="round" stroke-linejoin="round"/>
<path d="M13.2405 14.3003C13.0576 14.2675 12.9715 14.4803 13.0307 14.6003C13.0576 14.5403 13.1814 14.5403 13.2083 14.4803C13.2405 14.3876 13.1814 14.3876 13.2405 14.3003ZM13.956 14.8584C13.956 14.7384 14.0743 14.7532 14.0743 14.6331C14.0743 14.5731 14.042 14.4802 13.9829 14.4802C13.9237 14.4802 13.8645 14.5403 13.8645 14.6003C13.8376 14.7204 13.956 14.7384 13.956 14.8583V14.8584ZM14.8076 14.5129C14.985 14.5129 14.9674 14.7531 14.8813 14.8732C14.8813 14.7859 14.7307 14.7531 14.7307 14.6932C14.7307 14.6003 14.8666 14.6003 14.8076 14.5129H14.8076ZM16.7587 14.3003C16.9417 14.2675 17.0278 14.4803 16.9685 14.6003C16.9416 14.5403 16.8179 14.5403 16.791 14.4803C16.7588 14.3876 16.818 14.3876 16.7588 14.3003H16.7587ZM16.0432 14.8584C16.0432 14.7384 15.925 14.7532 15.925 14.6331C15.925 14.5731 15.9572 14.4802 16.0164 14.4802C16.0756 14.4802 16.1348 14.5403 16.1348 14.6003C16.1618 14.7204 16.0433 14.7384 16.0433 14.8583L16.0432 14.8584ZM15.1916 14.5129C15.0142 14.5129 15.0317 14.7531 15.1178 14.8732C15.1178 14.7859 15.2684 14.7531 15.2684 14.6932C15.2684 14.6003 15.1324 14.6003 15.1916 14.5129Z" fill="white" stroke="#C09300" stroke-width="1.016" stroke-linecap="round" stroke-linejoin="round"/>
<path d="M13.3 14.3595C13.3592 14.3595 13.4507 14.3868 13.4776 14.4195L13.2998 14.3594L13.3 14.3595ZM13.5955 14.4523C13.6278 14.4523 13.7462 14.4796 13.8053 14.5122L13.5953 14.4521L13.5955 14.4523ZM14.6717 14.5722C14.6126 14.5722 14.4942 14.5722 14.462 14.5994L14.6716 14.572L14.6717 14.5722ZM14.3436 14.5722C14.3114 14.5394 14.193 14.5394 14.1339 14.5722H14.3435H14.3436ZM16.7001 14.3595C16.6409 14.3595 16.5548 14.3868 16.5226 14.4195L16.7001 14.3595ZM16.4042 14.4523C16.372 14.4523 16.2536 14.4796 16.1944 14.5122L16.4044 14.4521L16.4042 14.4523ZM15.328 14.5722C15.3872 14.5722 15.5056 14.5722 15.5378 14.5994L15.3278 14.572L15.328 14.5722ZM15.6561 14.5722C15.6884 14.5394 15.8068 14.5394 15.8659 14.5722H15.6559H15.6561Z" fill="white" stroke="#C09300" stroke-width="0.7128" stroke-linecap="round" stroke-linejoin="round"/>
<path d="M13.2499 14.8383C13.2299 14.8344 13.2193 14.8183 13.2244 14.7993C13.2306 14.7761 13.2488 14.7629 13.2661 14.7691C13.2771 14.7731 13.2972 14.7937 13.2973 14.8011C13.2974 14.8095 13.2868 14.8297 13.2822 14.8297C13.2802 14.8297 13.2772 14.8315 13.2754 14.8336C13.2717 14.8381 13.2599 14.8403 13.2499 14.8383V14.8383ZM15.3098 14.9874C15.3023 14.9846 15.2905 14.9677 15.2905 14.9599C15.2905 14.9452 15.312 14.9212 15.3253 14.9211C15.3319 14.921 15.3499 14.9305 15.3566 14.9376C15.3688 14.9504 15.3661 14.9715 15.3508 14.9835C15.3433 14.9894 15.3208 14.9915 15.3098 14.9874V14.9874ZM15.3233 15.0818C15.3075 15.0764 15.3018 15.0685 15.3005 15.0508C15.2991 15.0324 15.3009 15.0295 15.3202 15.0189L15.3339 15.0113L15.3469 15.0171C15.3648 15.0253 15.3728 15.0341 15.3735 15.0464C15.3741 15.0596 15.3645 15.0731 15.3495 15.08C15.3363 15.086 15.3355 15.086 15.3232 15.0819L15.3233 15.0818Z" fill="#C09300"/>
<path d="M13.4154 14.6681C13.4024 14.6677 13.3846 14.6798 13.3743 14.686C13.35 14.6917 13.3217 14.7069 13.2982 14.6907C13.275 14.6835 13.2442 14.6892 13.2408 14.718C13.2467 14.7428 13.2809 14.757 13.3017 14.7406C13.3171 14.7202 13.3591 14.7082 13.3638 14.743C13.3466 14.7693 13.3486 14.8042 13.3345 14.8322C13.3322 14.8496 13.325 14.8661 13.3158 14.8809C13.2984 14.8826 13.2799 14.8806 13.2653 14.8916C13.2418 14.8929 13.2179 14.9047 13.2044 14.9249C13.1893 14.9469 13.1748 14.9692 13.1704 14.9962C13.1744 15.0238 13.2055 15.0317 13.2289 15.0331C13.254 15.04 13.279 15.0492 13.3039 15.0568C13.3447 15.0661 13.3828 15.081 13.4235 15.0901C13.4829 15.1082 13.5453 15.1166 13.6051 15.1329C13.6114 15.135 13.6173 15.1368 13.6239 15.1376C13.6487 15.1428 13.6617 15.1154 13.6637 15.0948C13.6761 15.0507 13.6855 15.0058 13.6977 14.9617C13.7062 14.9439 13.7164 14.9039 13.6825 14.9129C13.6632 14.9246 13.6468 14.9423 13.6227 14.9438C13.59 14.9457 13.6087 14.9797 13.6216 14.9937C13.6245 15.0161 13.6175 15.0427 13.6029 15.0603C13.5834 15.0729 13.5589 15.0581 13.5384 15.0532C13.5169 15.0535 13.4738 15.0424 13.4939 15.0128C13.501 14.9908 13.5016 14.9667 13.5103 14.945C13.5213 14.9216 13.5229 14.8961 13.5279 14.8713C13.5144 14.8418 13.4911 14.8811 13.4728 14.8844C13.4601 14.8933 13.4126 14.8971 13.4377 14.92C13.4592 14.9367 13.4427 14.9656 13.4388 14.9866C13.4374 15.0159 13.4074 15.0229 13.3837 15.0163C13.3602 15.0152 13.3275 14.9974 13.3474 14.9712C13.3519 14.9493 13.3595 14.9278 13.3639 14.9057C13.3727 14.8792 13.3802 14.8539 13.3896 14.8273C13.3937 14.8037 13.402 14.7813 13.413 14.7607C13.4137 14.7346 13.431 14.7122 13.4307 14.6858C13.4289 14.6729 13.4232 14.6683 13.4154 14.668L13.4154 14.6681ZM13.2806 14.9439C13.2834 14.9434 13.2863 14.9438 13.2888 14.9451C13.2982 14.9491 13.2984 14.9569 13.2888 14.9653C13.2846 14.969 13.2798 14.9725 13.2783 14.9725C13.2607 14.9709 13.2555 14.9683 13.2548 14.9618C13.2541 14.956 13.2559 14.9544 13.2676 14.9487C13.2717 14.9466 13.2761 14.945 13.2805 14.9439H13.2806ZM13.2417 15.1349C13.2231 15.1172 13.2261 15.1043 13.2536 15.0834C13.2654 15.0745 13.2726 15.0755 13.286 15.088C13.3067 15.1072 13.3075 15.1193 13.2892 15.1358C13.2802 15.1439 13.2763 15.1455 13.2657 15.1456C13.2547 15.1458 13.2516 15.1443 13.2417 15.1349ZM13.3561 15.1699C13.3518 15.1689 13.3478 15.167 13.3443 15.1643C13.3407 15.1616 13.3378 15.1582 13.3356 15.1543C13.3334 15.1505 13.332 15.1462 13.3315 15.1417C13.331 15.1373 13.3315 15.1328 13.3327 15.1285C13.3376 15.112 13.3404 15.1104 13.3642 15.1101C13.3911 15.1098 13.3963 15.1143 13.3965 15.1383C13.3967 15.1518 13.3957 15.1549 13.389 15.1611C13.3845 15.1649 13.3792 15.1677 13.3735 15.1692C13.3678 15.1707 13.3619 15.1709 13.3561 15.1699V15.1699ZM16.6977 15.173C16.6892 15.1657 16.6875 15.1625 16.6874 15.1534C16.6873 15.1378 16.6962 15.1263 16.7154 15.1175C16.741 15.1058 16.7514 15.1074 16.761 15.1246C16.7739 15.1474 16.7732 15.1568 16.7579 15.1722C16.7494 15.1807 16.7478 15.1812 16.7284 15.1813C16.7094 15.1815 16.7073 15.1809 16.6978 15.173H16.6977ZM13.508 15.2167C13.4943 15.213 13.4873 15.2026 13.4871 15.186C13.4869 15.1733 13.4878 15.1713 13.4966 15.1643C13.5023 15.1598 13.5112 15.156 13.5183 15.155C13.5283 15.1536 13.5319 15.1545 13.54 15.1603C13.5606 15.175 13.5651 15.1895 13.5531 15.2036C13.5404 15.2187 13.5283 15.2222 13.508 15.2167ZM14.33 15.254C14.327 15.2502 14.3202 15.2479 14.3196 15.2431C14.3208 15.222 14.3218 15.2006 14.3284 15.1804C14.332 15.1605 14.3289 15.1397 14.3357 15.1203C14.3427 15.085 14.3427 15.0487 14.3508 15.0137C14.3511 14.9956 14.3528 14.9775 14.358 14.9602C14.3639 14.9327 14.3585 14.904 14.3665 14.8769C14.3656 14.8667 14.3772 14.8395 14.3873 14.8556C14.4021 14.8776 14.4214 14.8954 14.4406 14.9133C14.457 14.9229 14.4419 14.937 14.4306 14.9418C14.415 14.948 14.4112 14.9654 14.4123 14.9807C14.4102 14.9964 14.4039 15.0113 14.4033 15.0275C14.4 15.0511 14.4006 15.0752 14.3976 15.0988C14.3908 15.1221 14.3934 15.1468 14.3911 15.1707C14.3915 15.1858 14.3844 15.1996 14.3853 15.2148C14.3835 15.2303 14.3828 15.2488 14.37 15.2594C14.3577 15.2657 14.3399 15.2646 14.33 15.254ZM15.4437 14.8812C15.4257 14.8951 15.4095 14.9114 15.3933 14.9276C15.3711 14.9446 15.4116 14.9546 15.4168 14.9692C15.4227 14.9915 15.4224 15.0152 15.4239 15.0381C15.4306 15.0591 15.4335 15.0814 15.432 15.1035C15.4302 15.1271 15.3997 15.1222 15.3864 15.1356C15.3679 15.1435 15.3605 15.1618 15.3465 15.1748C15.3372 15.1932 15.3348 15.2158 15.3336 15.2366C15.3349 15.2537 15.3222 15.2728 15.3336 15.2878C15.3351 15.2899 15.3368 15.2928 15.3382 15.2949C15.3421 15.3004 15.3511 15.296 15.357 15.2973C15.3759 15.2961 15.3956 15.2991 15.4132 15.2913C15.4586 15.2834 15.5044 15.2828 15.5504 15.2807C15.5785 15.2816 15.6055 15.2716 15.6336 15.2723C15.6556 15.2772 15.6654 15.2531 15.6652 15.2355C15.6528 15.2106 15.6635 15.1811 15.6535 15.1558C15.6447 15.1302 15.6481 15.1014 15.6441 15.075C15.6436 15.054 15.6175 15.0463 15.6043 15.0619C15.5915 15.075 15.5708 15.0776 15.561 15.094C15.5498 15.1169 15.5845 15.1169 15.5902 15.1344C15.5968 15.1521 15.5947 15.1717 15.5961 15.1903C15.6004 15.2128 15.5762 15.2141 15.561 15.2164C15.5408 15.224 15.5126 15.2292 15.5012 15.2045C15.4941 15.1863 15.495 15.1668 15.493 15.1475C15.4925 15.1135 15.4845 15.0802 15.4825 15.0464C15.4806 15.0047 15.4734 14.9632 15.4708 14.9216C15.4704 14.9043 15.4681 14.876 15.4438 14.8812H15.4437ZM15.4203 15.195L15.432 15.1962L15.4332 15.2105L15.4344 15.2247L15.4191 15.2295C15.4141 15.231 15.409 15.2322 15.4039 15.2331C15.4015 15.2316 15.3991 15.23 15.3969 15.2283C15.3886 15.2223 15.3907 15.2137 15.4015 15.2022C15.4077 15.1957 15.4105 15.1945 15.4203 15.1951V15.195ZM14.2966 14.842C14.2824 14.8471 14.2643 14.8683 14.2497 14.8682C14.2167 14.8705 14.2213 14.9032 14.245 14.9145C14.2482 14.9244 14.2452 14.9369 14.2462 14.9478C14.2508 14.9778 14.2321 15.002 14.2357 15.0322C14.234 15.0653 14.2242 15.0976 14.2228 15.1309C14.2135 15.1653 14.2134 15.2006 14.2076 15.2355C14.2037 15.2668 14.1813 15.2558 14.1618 15.2474C14.1617 15.2339 14.1609 15.2206 14.1607 15.207C14.1688 15.1759 14.1442 15.1668 14.1197 15.163C14.094 15.1655 14.0814 15.1431 14.0869 15.1202C14.098 15.1069 14.1258 15.1106 14.1432 15.1083C14.1799 15.1161 14.1785 15.066 14.1596 15.0489C14.1466 15.0247 14.1146 15.0143 14.1057 14.9894C14.1093 14.9565 14.0877 14.9235 14.0611 14.9074C14.0203 14.9045 13.9894 14.9402 13.9744 14.9751C13.9574 14.9801 13.9405 14.9853 13.924 14.9918C13.8973 14.9985 13.8595 15.0453 13.8958 15.0631C13.9163 15.0688 13.9783 15.0832 13.951 15.1118C13.9355 15.1388 13.9059 15.1392 13.8795 15.1321C13.8523 15.1321 13.8221 15.1187 13.8232 15.0869C13.8177 15.0584 13.8186 15.0276 13.8056 15.0013C13.8001 14.9693 13.7643 14.9768 13.7623 15.0061C13.7348 15.0264 13.7384 15.0592 13.7576 15.0833C13.7696 15.1111 13.7577 15.1433 13.7458 15.1689C13.7387 15.2022 13.7025 15.2034 13.6767 15.2141C13.664 15.2191 13.6156 15.2112 13.6333 15.2391C13.6616 15.2492 13.6953 15.2583 13.7247 15.251C13.7556 15.2471 13.7824 15.2257 13.7974 15.1987C13.8181 15.1774 13.8537 15.1885 13.8806 15.188C13.9096 15.1879 13.9392 15.2086 13.9673 15.1951C13.9754 15.1737 14.0131 15.1383 14.0247 15.1749C14.0227 15.2078 14.0513 15.2254 14.0809 15.2213C14.1133 15.2194 14.1013 15.2446 14.1008 15.2641C14.103 15.2996 14.1256 15.3183 14.1548 15.333C14.1647 15.3358 14.1752 15.3349 14.1852 15.333C14.2133 15.3241 14.2435 15.3114 14.252 15.2796C14.2634 15.2537 14.2636 15.2244 14.272 15.1975C14.2786 15.1545 14.2872 15.1116 14.2884 15.068C14.2987 15.0284 14.2958 14.9867 14.3036 14.9467C14.3086 14.9169 14.3122 14.8872 14.3154 14.8575C14.3119 14.8416 14.3052 14.839 14.2966 14.8421V14.842ZM14.0424 15.0001C14.048 15.0008 14.0511 15.0078 14.0517 15.0203C14.0523 15.0342 14.0594 15.0454 14.0681 15.0476C14.0749 15.0494 14.0743 15.0568 14.067 15.0619C14.0626 15.065 14.0549 15.0668 14.0412 15.0667C14.0195 15.0666 14.006 15.0609 13.9943 15.0488L13.9872 15.0417L13.9977 15.0346C14.0031 15.0305 14.0127 15.022 14.0189 15.0156C14.0296 15.0045 14.0366 14.9994 14.0423 15.0001L14.0424 15.0001ZM16.5185 14.7005C16.4975 14.7015 16.4767 14.7047 16.4564 14.71C16.4174 14.7075 16.3978 14.749 16.4353 14.7694C16.4579 14.8278 16.4931 14.7574 16.529 14.7623C16.583 14.7729 16.5875 14.832 16.5959 14.8764C16.5989 14.9204 16.6114 14.9632 16.624 15.0048C16.6601 15.0455 16.597 15.071 16.5701 15.0393C16.5472 15.014 16.4981 14.983 16.4705 15.0179C16.4365 15.0324 16.4352 15.0784 16.4071 15.0916C16.3618 15.1057 16.3561 15.0491 16.3321 15.025C16.3101 14.9937 16.268 14.991 16.2337 14.9799C16.2176 14.9468 16.226 14.8906 16.1927 14.8681C16.1647 14.8797 16.1134 14.9329 16.1564 14.9573C16.1983 14.9938 16.1381 15.0106 16.1189 15.0358C16.0914 15.0667 16.087 15.1094 16.0825 15.1487C16.0353 15.1752 16.0261 15.1188 16.0204 15.0834C16.0167 15.0411 15.9816 15.0535 15.9571 15.0691C15.9214 15.0837 15.9036 15.1182 15.8786 15.1452C15.8756 15.1698 15.88 15.1968 15.8797 15.2224C15.8879 15.2533 15.9249 15.2388 15.9477 15.2367C15.9845 15.2211 15.9995 15.2606 15.97 15.2831C15.9501 15.3088 15.8868 15.2953 15.8927 15.3366C15.9131 15.3389 15.9343 15.3382 15.9548 15.3366C15.9957 15.3252 16.0396 15.2959 16.0438 15.2498C16.0492 15.2094 16.1064 15.2168 16.1376 15.2081C16.1766 15.1967 16.2236 15.1938 16.2325 15.2438C16.2591 15.2722 16.3168 15.3041 16.3462 15.2653C16.376 15.2468 16.3903 15.2143 16.3884 15.1797C16.3824 15.1498 16.436 15.1487 16.4493 15.1654C16.4688 15.198 16.53 15.1884 16.5595 15.1701C16.5909 15.1466 16.5976 15.1052 16.6427 15.1047C16.7095 15.0844 16.779 15.0727 16.8442 15.0476C16.8971 15.036 16.8364 15.0021 16.8232 14.9822C16.7829 14.9621 16.7479 15.0447 16.7024 15.0037C16.6674 14.9764 16.6698 14.9246 16.6567 14.8847C16.6479 14.8331 16.6501 14.7735 16.6134 14.7326C16.5883 14.7054 16.554 14.6988 16.5185 14.7005H16.5185ZM16.263 15.0607C16.2677 15.0606 16.273 15.0629 16.2817 15.0678C16.2982 15.077 16.3099 15.0923 16.3099 15.1047C16.3099 15.1128 16.3078 15.1133 16.2958 15.1189C16.2884 15.1224 16.2801 15.1262 16.2771 15.1261C16.2703 15.126 16.2537 15.1125 16.2536 15.1071C16.2536 15.1048 16.2514 15.0961 16.2489 15.0892C16.2445 15.077 16.2452 15.0772 16.2513 15.069C16.2552 15.0638 16.2583 15.0608 16.263 15.0607L16.263 15.0607ZM16.5079 15.0738C16.5218 15.0728 16.5301 15.0772 16.5361 15.088C16.5428 15.1006 16.5382 15.1101 16.5208 15.1177C16.5132 15.1211 16.5055 15.1238 16.5044 15.1237C16.5033 15.1236 16.497 15.1198 16.4903 15.1153C16.4802 15.1086 16.4787 15.1053 16.4786 15.0976C16.4785 15.0855 16.4917 15.0748 16.5079 15.0738H16.5079ZM16.1727 15.0773C16.1768 15.0767 16.1806 15.0788 16.1856 15.0833C16.1924 15.0891 16.1945 15.0939 16.1961 15.1058C16.1974 15.1142 16.1972 15.1249 16.1961 15.1296C16.1944 15.1383 16.1942 15.1379 16.1751 15.138C16.1511 15.1382 16.1489 15.1356 16.1493 15.113C16.1496 15.0987 16.1497 15.0949 16.1575 15.0869C16.1635 15.0807 16.1686 15.078 16.1727 15.0774L16.1727 15.0773ZM15.9664 15.132C15.9705 15.1329 15.9742 15.1349 15.9771 15.1379C15.98 15.1408 15.9821 15.1446 15.9829 15.1486C15.9853 15.1608 15.9832 15.1663 15.9736 15.1713C15.9652 15.1756 15.946 15.177 15.9407 15.1737C15.9379 15.1718 15.9355 15.1694 15.9337 15.1665C15.9311 15.162 15.9316 15.1597 15.9348 15.157C15.9371 15.1551 15.9396 15.1525 15.9395 15.1511C15.9395 15.1497 15.9421 15.1449 15.9454 15.1404C15.9477 15.1371 15.9509 15.1345 15.9547 15.133C15.9584 15.1315 15.9625 15.1312 15.9664 15.1321L15.9664 15.132ZM16.3133 15.1772C16.3201 15.1772 16.3257 15.1795 16.3298 15.1832C16.3367 15.1894 16.3365 15.1984 16.3286 15.2046C16.3235 15.2085 16.296 15.2082 16.2864 15.2046C16.2822 15.203 16.2806 15.2008 16.2805 15.1962C16.2805 15.1909 16.282 15.1876 16.291 15.1832C16.2988 15.1795 16.3067 15.1773 16.3134 15.1772L16.3133 15.1772ZM15.6695 15.3605C15.6659 15.3581 15.6606 15.3561 15.6659 15.3521C15.6724 15.3406 15.6853 15.3366 15.6969 15.3323C15.7174 15.3229 15.7351 15.3082 15.7483 15.2898C15.7502 15.2771 15.7642 15.2702 15.7642 15.257C15.7643 15.2389 15.7654 15.2204 15.761 15.2027C15.7562 15.1865 15.7441 15.1741 15.73 15.1657C15.7204 15.158 15.7048 15.1558 15.7012 15.1423C15.6993 15.1292 15.7107 15.1193 15.7147 15.1077C15.7231 15.0917 15.7301 15.0748 15.7391 15.0592C15.7489 15.0482 15.7639 15.0586 15.7689 15.0692C15.776 15.0797 15.7823 15.0911 15.7858 15.1033C15.7971 15.1159 15.8071 15.1307 15.8113 15.1475C15.8168 15.1593 15.8256 15.1704 15.8251 15.1843C15.8251 15.2001 15.8339 15.2142 15.8334 15.2301C15.8339 15.2514 15.8338 15.2737 15.8262 15.2938C15.8209 15.305 15.8104 15.3117 15.8034 15.3217C15.7915 15.333 15.7783 15.3438 15.7629 15.3497C15.7521 15.3532 15.7458 15.366 15.7323 15.3629C15.713 15.3633 15.6934 15.3659 15.6742 15.3627C15.6754 15.3648 15.6684 15.3592 15.6696 15.3605H15.6695ZM15.4126 15.3776C15.4035 15.3681 15.4015 15.3641 15.4014 15.3548C15.4013 15.3454 15.4031 15.3416 15.412 15.3325C15.4285 15.3157 15.4365 15.3153 15.4649 15.3298C15.492 15.3437 15.5011 15.3451 15.5036 15.3352C15.5059 15.3257 15.5215 15.3169 15.5364 15.3169C15.5445 15.3164 15.5525 15.3192 15.5586 15.3246C15.5679 15.3321 15.5684 15.3332 15.5687 15.3505C15.5688 15.3681 15.5686 15.3687 15.5578 15.3785C15.5474 15.3878 15.5457 15.3884 15.5328 15.387C15.5164 15.3854 15.5066 15.3777 15.504 15.3646C15.502 15.3551 15.4987 15.3528 15.4962 15.3593C15.4955 15.3614 15.4914 15.3639 15.4872 15.365C15.4796 15.3669 15.4667 15.3752 15.4575 15.384C15.454 15.3873 15.4479 15.3889 15.438 15.389C15.4247 15.3891 15.4228 15.3883 15.4126 15.3776ZM14.6694 15.039C14.6444 15.0393 14.6176 15.0606 14.6142 15.0855C14.62 15.114 14.6434 15.1421 14.6283 15.1722C14.6388 15.2107 14.5998 15.2253 14.5732 15.2031C14.5572 15.1661 14.5491 15.1257 14.5252 15.0925C14.4951 15.0839 14.4819 15.1327 14.4607 15.1496C14.4712 15.1783 14.5018 15.2041 14.5053 15.24C14.5126 15.2748 14.4918 15.3135 14.4619 15.3315C14.4362 15.3564 14.4009 15.3475 14.3693 15.3529C14.3309 15.3758 14.3975 15.3841 14.4151 15.3851C14.4543 15.3891 14.4951 15.3838 14.524 15.3541C14.5529 15.3402 14.5506 15.2896 14.5849 15.284C14.6445 15.2813 14.7036 15.2933 14.7631 15.2947C14.7949 15.3024 14.8442 15.2909 14.8662 15.3149C14.8663 15.357 14.9014 15.383 14.9353 15.3994C14.954 15.4046 14.9737 15.3811 14.9927 15.3767C15.0289 15.365 15.018 15.3196 15.0396 15.3018C15.1015 15.2984 15.164 15.2991 15.226 15.2982C15.2377 15.2985 15.2412 15.2815 15.2494 15.2745C15.248 15.2502 15.2472 15.2261 15.2435 15.2019C15.2316 15.1713 15.2454 15.1318 15.2236 15.1057C15.1925 15.0971 15.166 15.126 15.1345 15.1283C15.0998 15.144 15.0705 15.1765 15.0689 15.2163C15.0483 15.2504 15.0154 15.2102 15.0267 15.1818C15.0255 15.1694 15.0294 15.155 15.0256 15.1437C15.0066 15.1206 14.9733 15.1281 14.947 15.1247C14.9089 15.1262 14.8716 15.1179 14.8334 15.1188C14.7999 15.1162 14.7651 15.1218 14.7326 15.1128C14.6939 15.1117 14.6992 15.0733 14.6928 15.0463C14.6859 15.0413 14.6777 15.0388 14.6693 15.0391L14.6694 15.039ZM14.7444 15.1793C14.7572 15.1796 14.7694 15.1813 14.7819 15.1829C14.798 15.1856 14.8152 15.1773 14.8311 15.1829C14.8677 15.1892 14.9043 15.1878 14.9412 15.1913C14.951 15.1911 14.958 15.1983 14.9647 15.2043C14.9647 15.2303 14.9647 15.2568 14.9647 15.2828C14.9635 15.2926 14.9675 15.3055 14.9588 15.3125C14.956 15.3147 14.9529 15.3163 14.9494 15.3173C14.9392 15.3146 14.9284 15.3079 14.9236 15.2982C14.9221 15.2847 14.9243 15.2715 14.9248 15.2578C14.9245 15.2543 14.9263 15.2488 14.9248 15.2459C14.917 15.24 14.9076 15.2367 14.8978 15.2364C14.866 15.2353 14.8348 15.233 14.803 15.2317C14.7764 15.23 14.7492 15.2339 14.7232 15.2269C14.7132 15.2232 14.7001 15.2245 14.694 15.2139C14.6851 15.2035 14.6978 15.1911 14.7068 15.1865C14.7186 15.1813 14.7315 15.1788 14.7443 15.1793H14.7444ZM15.1674 15.1889C15.1734 15.1887 15.1752 15.1908 15.1779 15.2019C15.1797 15.2091 15.1817 15.2178 15.1826 15.2209C15.184 15.2255 15.1818 15.2269 15.1756 15.2293C15.1571 15.2364 15.1386 15.2357 15.1323 15.2269C15.1293 15.2229 15.1327 15.2104 15.1381 15.2055C15.149 15.1956 15.161 15.1889 15.1674 15.1889Z" fill="#C09300"/>
<path d="M14.9988 13.0382C16.2228 12.0831 16.1179 10.6839 16.1179 10.6839C16.0856 10.6905 16.0549 10.6938 16.0226 10.6938C15.7658 10.6938 15.1534 10.5447 15.0105 10.3555C14.8575 10.5268 14.2316 10.6938 13.9765 10.6938C13.9443 10.6938 13.9119 10.6905 13.8813 10.6839C13.8813 10.6839 13.7746 12.083 14.9988 13.0382Z" fill="white" stroke="#C09300" stroke-width="0.92"/>
<path d="M16.0204 10.7861C16.0099 10.7868 15.9992 10.7871 15.9886 10.7871C15.7559 10.7871 15.2153 10.666 15.007 10.4844C14.7887 10.6521 14.2394 10.787 14.0104 10.787C13.9997 10.7869 13.9891 10.7858 13.9786 10.7838C13.978 10.8367 13.9808 10.8915 13.984 10.9414C13.9961 11.1278 14.0284 11.315 14.0773 11.495C14.2313 12.0617 14.5466 12.5432 14.9987 12.9085C15.4512 12.5429 15.7669 12.0609 15.9212 11.4939C15.9703 11.3139 16.0026 11.1268 16.0148 10.9404C16.0181 10.8915 16.0207 10.838 16.0204 10.7861H16.0204Z" fill="white" stroke="#C09300" stroke-width="0.7328"/>
<path d="M14.6013 10.6714C14.3811 10.7416 14.1427 10.7867 14.0107 10.7867C14 10.7867 13.9896 10.7851 13.9791 10.7831C13.9785 10.836 13.9817 10.8914 13.9849 10.9413C13.9973 11.1282 14.0283 11.3134 14.0775 11.494C14.1812 11.8755 14.359 12.2181 14.6013 12.5129V10.6714ZM15.3746 10.668V12.5416C15.6294 12.2403 15.8146 11.887 15.9219 11.4931C15.9711 11.3124 16.0021 11.1272 16.0145 10.9403C16.0176 10.8914 16.0207 10.8376 16.0203 10.7857C16.0097 10.7864 15.9993 10.7869 15.9886 10.7869C15.8487 10.7869 15.5979 10.7424 15.3745 10.668L15.3746 10.668Z" fill="#C09300"/>
<path d="M15.4611 10.2167C15.4861 10.2182 15.4273 10.081 15.4273 10.081C15.4935 10.1496 15.7434 10.166 15.7434 10.166C15.5934 10.0988 15.4435 9.59169 15.4611 9.18751C15.4773 8.78178 15.4038 8.62219 15.345 8.56246C15.27 8.48637 15.0288 8.4193 14.8701 8.41036C14.7803 8.4058 14.7951 8.47892 14.7951 8.47892C14.6289 8.43566 14.4628 8.41926 14.3877 8.46998C14.3172 8.51772 14.3025 8.75637 14.354 8.7146C14.4789 8.61317 14.5877 8.70566 14.6627 8.81602C14.7288 8.91303 14.7245 9.18744 14.6289 9.50811C14.5289 9.84517 14.2554 10.1823 14.2554 10.1823C14.4039 10.1823 14.6127 10.0481 14.6127 10.0481L14.5627 10.2584C14.72 10.1823 14.845 10.0645 14.845 10.0645L14.995 10.224C15.045 10.1569 15.1449 10.0645 15.1449 10.0645C15.1449 10.0645 15.2699 10.1987 15.4611 10.2166L15.4611 10.2167Z" fill="white" stroke="#C09300" stroke-width="0.9744"/>
<path d="M14.8539 9.24487C14.8539 9.24487 14.7701 9.86985 14.6128 10.0474M14.9863 9.22852C14.9863 9.22852 14.9539 9.86091 14.8451 10.0638M15.1037 9.254C15.1037 9.254 15.1037 9.94609 15.1448 10.064M15.2522 9.28824C15.2522 9.28824 15.286 9.86993 15.4271 10.0803" stroke="#C09300" stroke-width="1.016"/>
<path d="M14.7025 8.9433C14.6951 8.88814 14.6818 8.84484 14.6627 8.8165C14.5878 8.70617 14.479 8.61365 14.354 8.71508C14.354 8.71508 14.3966 8.58086 14.4878 8.57641C14.5584 8.57192 14.7186 8.63005 14.8598 8.87467C14.8598 8.87467 14.7554 8.85085 14.7304 8.87322C14.6833 8.91499 14.7025 8.9433 14.7025 8.9433Z" fill="#C09300" stroke="#C09300" stroke-width="0.2832"/>
<path d="M14.3409 8.54906C14.3511 8.51474 14.3673 8.48343 14.3879 8.47C14.4629 8.41929 14.629 8.43569 14.7952 8.47894C14.7952 8.47894 14.7805 8.4059 14.8702 8.41035C15.0289 8.41929 15.2701 8.48644 15.345 8.56253C15.3627 8.58193 15.3833 8.61023 15.4009 8.65345H15.398C15.3612 8.60125 15.2568 8.60426 15.2319 8.60723C15.1921 8.61168 15.1671 8.61016 15.1142 8.62359C15.0892 8.62956 15.051 8.63701 15.0304 8.65341C15.0142 8.66684 15.001 8.71607 14.976 8.71607C14.9362 8.71607 14.9392 8.70568 14.9289 8.69374C14.9157 8.67738 14.9083 8.65341 14.8951 8.65493C14.854 8.66243 14.7878 8.6296 14.704 8.56249C14.6202 8.49534 14.5878 8.47894 14.479 8.4864C14.3718 8.49534 14.3379 8.55651 14.3379 8.55651L14.3409 8.54906H14.3409Z" fill="#C09300" stroke="#C09300" stroke-width="0.2832"/>
<path d="M14.9552 8.64807C14.9796 8.64807 14.9993 8.62804 14.9993 8.60333C14.9993 8.57862 14.9796 8.55859 14.9552 8.55859C14.9309 8.55859 14.9111 8.57862 14.9111 8.60333C14.9111 8.62804 14.9309 8.64807 14.9552 8.64807Z" fill="white"/>
</g>
<defs>
<clipPath id="clip0_647_17512">
<rect width="30" height="22.8261" fill="white" transform="translate(0 0.587891)"/>
</clipPath>
</defs>
</svg>