<svg width="226" height="80" viewBox="0 0 226 80" fill="none" xmlns="http://www.w3.org/2000/svg">
<g clip-path="url(#clip0_14_327)">
<path d="M39 58.6012C38.5 58.3012 38.1 57.8012 37.9 57.2012L28.7 32.7012H20.7V33.6012H20.9C21.8 33.6012 22.4 33.8012 22.7 34.3012C23 34.8012 22.9 35.5012 22.6 36.4012L14.7 57.2012C14.4 57.9012 14.1 58.3012 13.7 58.6012C13.3 58.9012 12.8 59.0012 12.1 59.0012H12V60.0012H17.2V59.0012H17C16.5 59.0012 16.1 58.9012 15.8 58.6012C15.5 58.3012 15.4 58.0012 15.6 57.5012L20.6 44.9012C21.7 44.9012 22.8 45.1012 23.8 45.5012C24.8 45.9012 25.8 46.5012 26.7 47.2012C27.6 47.9012 28.4 48.7012 29.2 49.7012C29.9 50.6012 30.6 51.6012 31.2 52.6012L32.9 57.2012C33.1 57.7012 33 58.1012 32.7 58.5012C32.4 58.9012 32.1 59.1012 31.6 59.1012H31.4V60.1012H40.8V59.1012H40.6C40.1 59.1012 39.5 58.9012 39 58.6012ZM29.7 48.8012C29.4 48.4012 29.1 48.1012 28.7 47.7012C28 47.0012 27.3 46.4012 26.5 45.8012C25.7 45.3012 24.8 44.8012 23.8 44.5012C22.9 44.2012 21.9 44.0012 20.9 44.0012L24.3 34.3012L29.7 48.8012Z" fill="#DFD2C0"/>
<path d="M58.3998 43.4012C57.4998 42.5012 56.3998 41.8012 55.0998 41.2012C53.8998 40.7012 52.4998 40.4012 51.0998 40.4012C50.4998 40.4012 49.7998 40.5012 49.1998 40.6012C48.6998 40.7012 48.0998 40.8012 47.6998 41.0012V32.7012H40.7998V33.6012H40.9998C41.5998 33.6012 42.0998 33.8012 42.4998 34.2012C42.8998 34.6012 43.0998 35.1012 43.0998 35.7012V60.1012L43.3998 59.9012C43.8998 59.5012 44.5998 59.4012 45.3998 59.4012C45.6998 59.4012 46.0998 59.5012 46.4998 59.6012C46.8998 59.7012 47.3998 59.9012 47.7998 60.0012C48.2998 60.1012 48.7998 60.3012 49.2998 60.4012C49.7998 60.5012 50.3998 60.6012 50.9998 60.6012C52.3998 60.6012 53.7998 60.3012 54.9998 59.8012C56.1998 59.3012 57.2998 58.5012 58.2998 57.6012C59.1998 56.7012 59.9998 55.6012 60.4998 54.4012C60.9998 53.2012 61.2998 51.9012 61.2998 50.5012C61.2998 49.1012 60.9998 47.8012 60.4998 46.6012C60.0998 45.4012 59.2998 44.3012 58.3998 43.4012ZM53.2998 59.0012C52.5998 59.5012 51.8998 59.7012 51.1998 59.7012C50.4998 59.7012 49.8998 59.5012 49.3998 59.2012C48.7998 58.9012 48.2998 58.4012 47.7998 57.8012V43.3012C48.2998 42.7012 48.7998 42.2012 49.3998 41.9012C49.9998 41.6012 50.5998 41.4012 51.2998 41.4012C51.9998 41.4012 52.7998 41.6012 53.3998 42.1012C54.0998 42.6012 54.6998 43.2012 55.1998 44.1012C55.6998 44.9012 56.0998 45.9012 56.3998 47.0012C56.6998 48.1012 56.7998 49.3012 56.7998 50.6012C56.7998 51.9012 56.6998 53.1012 56.3998 54.2012C56.0998 55.3012 55.6998 56.3012 55.1998 57.1012C54.4998 57.8012 53.8998 58.5012 53.2998 59.0012Z" fill="#DFD2C0"/>
<path d="M81.8998 43.4004C80.9998 42.5004 79.8998 41.8004 78.5998 41.2004C77.3998 40.7004 75.9998 40.4004 74.5998 40.4004C73.1998 40.4004 71.7998 40.7004 70.5998 41.2004C69.3998 41.7004 68.2998 42.4004 67.2998 43.4004C66.3998 44.3004 65.5998 45.4004 65.0998 46.6004C64.5998 47.8004 64.2998 49.2004 64.2998 50.5004C64.2998 51.9004 64.5998 53.2004 65.0998 54.4004C65.5998 55.6004 66.3998 56.7004 67.2998 57.6004C68.1998 58.5004 69.2998 59.2004 70.5998 59.8004C71.7998 60.3004 73.1998 60.6004 74.5998 60.6004C75.9998 60.6004 77.3998 60.3004 78.5998 59.8004C79.7998 59.3004 80.8998 58.5004 81.8998 57.6004C82.7998 56.7004 83.5998 55.6004 84.0998 54.4004C84.5998 53.2004 84.8998 51.9004 84.8998 50.5004C84.8998 49.1004 84.5998 47.8004 84.0998 46.6004C83.5998 45.4004 82.7998 44.3004 81.8998 43.4004ZM80.3998 53.1004C80.2998 54.3004 80.0998 55.3004 79.7998 56.2004C79.4998 57.1004 78.9998 57.9004 78.3998 58.5004C77.7998 59.1004 77.1998 59.5004 76.3998 59.6004C75.5998 59.7004 74.8998 59.6004 74.1998 59.3004C73.3998 59.0004 72.6998 58.5004 72.0998 57.7004C71.3998 57.0004 70.8998 56.1004 70.3998 55.1004C69.8998 54.1004 69.4998 52.9004 69.1998 51.7004C68.9998 50.5004 68.8998 49.2004 68.9998 48.1004C69.0998 47.0004 69.2998 45.9004 69.5998 45.0004C69.8998 44.1004 70.3998 43.3004 70.9998 42.7004C71.5998 42.1004 72.1998 41.7004 72.9998 41.6004C73.6998 41.5004 74.4998 41.6004 75.1998 41.9004C75.9998 42.2004 76.6998 42.7004 77.2998 43.5004C77.9998 44.2004 78.5998 45.1004 79.0998 46.1004C79.5998 47.1004 79.9998 48.3004 80.1998 49.5004C80.3998 50.7004 80.4998 51.9004 80.3998 53.1004Z" fill="#DFD2C0"/>
<path d="M106.9 45.202C106.3 44.202 105.5 43.402 104.6 42.702C103.7 42.002 102.7 41.502 101.6 41.102C100.5 40.702 99.2998 40.502 98.0998 40.502C96.6998 40.502 95.2998 40.802 94.0998 41.302C92.8998 41.802 91.7998 42.502 90.7998 43.502C89.8998 44.402 89.0998 45.502 88.5998 46.702C88.0998 47.902 87.7998 49.202 87.7998 50.602C87.7998 52.002 88.0998 53.302 88.5998 54.502C89.0998 55.702 89.8998 56.802 90.7998 57.702C91.6998 58.602 92.7998 59.302 94.0998 59.902C95.2998 60.402 96.6998 60.702 98.0998 60.702C98.8998 60.702 99.7998 60.602 100.7 60.502C101.6 60.402 102.5 60.202 103.4 59.902C104.3 59.602 105.1 59.302 105.8 58.902C106.6 58.502 107.2 58.002 107.7 57.502L107.8 57.402V50.402H105.8V50.602C105.8 53.402 105.1 55.702 103.8 57.302C102.5 58.902 100.6 59.702 98.1998 59.702C97.4998 59.702 96.6998 59.502 96.0998 59.002C95.3998 58.502 94.7998 57.902 94.2998 57.002C93.7998 56.202 93.3998 55.202 93.0998 54.102C92.7998 53.002 92.6998 51.802 92.6998 50.502C92.6998 50.102 92.6998 49.702 92.6998 49.402C92.6998 49.102 92.6998 48.802 92.7998 48.502H108.4V48.302V48.202C107.9 47.202 107.5 46.202 106.9 45.202ZM96.2998 41.902C97.3998 41.302 98.6998 41.302 99.8998 41.902C100.5 42.202 101 42.702 101.5 43.202C102 43.802 102.4 44.502 102.7 45.302C103 46.002 103.3 46.802 103.4 47.702H92.7998C92.9998 46.802 93.1998 46.002 93.5998 45.302C93.8998 44.502 94.2998 43.802 94.7998 43.202C95.1998 42.702 95.7998 42.202 96.2998 41.902Z" fill="#DFD2C0"/>
<path d="M118.1 59.1012C117.5 59.1012 117 58.9012 116.6 58.5012C116.2 58.1012 116 57.6012 116 57.0012V32.7012H109.1V33.6012H109.3C109.9 33.6012 110.4 33.8012 110.8 34.2012C111.2 34.6012 111.4 35.1012 111.4 35.7012V56.9012C111.4 57.5012 111.2 58.0012 110.8 58.4012C110.4 58.8012 109.9 59.0012 109.3 59.0012H109.1V60.0012H118.3V59.0012H118.1V59.1012Z" fill="#DFD2C0"/>
<path d="M165.8 41.602C164.9 41.202 164 40.902 163.1 40.702C162.2 40.602 161.3 40.502 160.6 40.502C159.2 40.502 158 40.702 157 41.002C156 41.302 155 41.802 154.1 42.402L154 42.502L154.2 46.502L154.5 46.102C154.8 45.702 155.1 45.302 155.5 44.802C155.9 44.302 156.3 43.802 156.9 43.302C157.4 42.802 158 42.402 158.6 42.102C159.2 41.802 159.9 41.602 160.6 41.602C161.7 41.602 162.5 41.902 163.3 42.402C164 42.902 164.3 43.702 164.3 44.802V45.802C164.1 46.302 163.9 46.702 163.7 46.902C163.5 47.202 163.2 47.402 162.9 47.502C162.6 47.602 162.3 47.702 162 47.702C161.7 47.702 161.4 47.702 161.1 47.702C159.9 47.702 158.8 47.902 157.7 48.202C156.6 48.502 155.6 49.002 154.8 49.602C154 50.202 153.3 50.902 152.8 51.802C152.3 52.702 152 53.702 152 54.702C152 56.002 152.3 57.102 152.8 57.902C153.3 58.702 154.1 59.402 155 59.902C155.9 60.402 156.9 60.702 158.1 60.802C159.1 60.902 160.1 61.002 161.1 61.002C161.3 61.002 161.4 61.002 161.6 61.002C162.1 61.002 162.7 60.902 163.2 60.702C163.7 60.502 164.2 60.402 164.6 60.202C165.2 59.802 165.9 59.702 166.6 59.702C167.3 59.702 168 59.902 168.6 60.202L168.9 60.402V46.602C168.9 45.302 168.6 44.302 168 43.502C167.4 42.602 166.7 42.002 165.8 41.602ZM156.9 52.202C157.1 51.502 157.4 50.902 157.9 50.302C158.3 49.802 158.8 49.302 159.4 49.002C160 48.702 160.6 48.502 161.2 48.502C161.8 48.502 162.5 48.402 163.1 48.202C163.6 48.102 164 47.802 164.4 47.402V58.702C164 59.102 163.6 59.402 163.1 59.602C162.6 59.802 162.1 59.902 161.5 60.002C160.9 60.002 160.3 59.902 159.7 59.602C159.1 59.302 158.6 58.902 158.2 58.402C157.8 57.902 157.4 57.302 157.1 56.602C156.8 55.902 156.7 55.202 156.7 54.402C156.6 53.602 156.7 52.902 156.9 52.202Z" fill="#DFD2C0"/>
<path d="M193.4 61.9008C192.8 61.4008 192.1 61.0008 191.2 60.7008C190.4 60.4008 189.4 60.3008 188.4 60.3008C187.5 60.3008 186.5 60.4008 185.6 60.7008C184.8 60.9008 184 61.1008 183.2 61.4008L180.7 62.2008C179.9 62.5008 179.1 62.7008 178.4 62.9008C177.7 63.1008 177.1 63.2008 176.5 63.2008C176.1 63.2008 175.7 63.1008 175.5 63.0008C175.3 62.9008 175.2 62.7008 175.4 62.3008C175.7 61.9008 176 61.5008 176.6 61.1008C177.1 60.7008 177.8 60.3008 178.4 59.9008C179.1 59.5008 179.6 59.2008 180.1 59.0008C180.4 59.0008 180.7 59.1008 181.1 59.1008C181.5 59.1008 181.8 59.2008 182.1 59.2008C183.5 59.2008 184.8 59.0008 186.1 58.5008C187.3 58.1008 188.4 57.4008 189.4 56.7008C190.3 55.9008 191.1 55.0008 191.6 54.0008C192.1 52.9008 192.4 51.8008 192.4 50.6008C192.4 49.5008 192.2 48.5008 191.7 47.5008C191.2 46.5008 190.6 45.7008 189.8 44.9008C189 44.1008 188.1 43.5008 187 43.0008C186 42.5008 184.9 42.2008 183.7 42.1008C183.7 42.0008 183.8 41.8008 183.9 41.6008C184 41.4008 184.2 41.1008 184.4 40.9008C184.6 40.7008 184.8 40.5008 185 40.3008C185.2 40.2008 185.5 40.1008 185.7 40.0008C186.1 40.0008 186.5 40.0008 186.9 40.2008C187.3 40.4008 187.7 40.6008 188 40.9008C188.3 41.2008 188.7 41.5008 188.9 41.9008C189.2 42.2008 189.3 42.5008 189.5 42.8008L189.6 43.1008L191.6 40.7008L191.4 40.6008C190.8 40.2008 190.2 39.9008 189.7 39.7008C189.1 39.5008 188.6 39.3008 188.1 39.2008C187.1 39.0008 186.2 39.0008 185.6 39.1008C184.8 39.2008 184 39.5008 183.2 40.0008C182.4 40.5008 181.7 41.1008 181.1 41.9008C179.8 42.0008 178.6 42.3008 177.5 42.8008C176.4 43.3008 175.4 43.9008 174.5 44.7008C173.7 45.5008 173 46.3008 172.5 47.3008C172 48.3008 171.8 49.4008 171.8 50.5008C171.8 51.4008 172 52.3008 172.3 53.2008C172.6 54.0008 173.1 54.8008 173.7 55.5008C174.3 56.2008 175 56.8008 175.9 57.3008C176.6 57.7008 177.3 58.1008 178.1 58.4008C177.8 58.5008 177.5 58.7008 177.1 58.9008C176.5 59.2008 175.9 59.5008 175.2 59.9008C174.6 60.3008 173.9 60.7008 173.3 61.2008C172.7 61.7008 172.1 62.2008 171.7 62.7008C171.3 63.2008 171 63.8008 170.8 64.4008C170.6 65.0008 170.7 65.6008 171 66.3008C171.3 66.9008 171.6 67.3008 172 67.6008C172.4 67.9008 172.8 68.0008 173.3 68.0008C174 68.0008 174.8 67.8008 175.7 67.3008C176.5 66.9008 177.5 66.3008 178.4 65.7008C179.4 65.1008 180.4 64.4008 181.5 63.8008C182.6 63.2008 183.7 62.6008 184.9 62.2008C185.9 61.9008 186.7 61.7008 187.4 61.7008C188.4 61.7008 189.2 62.0008 189.7 62.6008C190.2 63.2008 190.5 64.1008 190.6 65.3008C190.6 66.0008 190.5 66.8008 190.3 67.5008C190.1 68.2008 189.7 68.9008 189.3 69.4008C188.9 70.0008 188.3 70.4008 187.7 70.8008C187.1 71.1008 186.4 71.3008 185.7 71.3008C185.4 71.3008 185.1 71.2008 184.8 71.0008C184.5 70.8008 184.2 70.6008 183.9 70.3008C183.6 70.0008 183.4 69.7008 183.2 69.3008C183 68.9008 182.8 68.5008 182.6 68.2008C182.2 67.3008 181.8 66.2008 181.5 65.1008L181.4 64.8008L178.3 66.8008L178.4 66.9008C178.6 67.5008 179 68.1008 179.5 68.7008C180 69.3008 180.5 69.9008 181.1 70.5008C181.7 71.0008 182.4 71.5008 183.1 71.8008C183.8 72.2008 184.6 72.4008 185.3 72.4008C186 72.4008 186.9 72.3008 187.8 72.1008C188.8 71.9008 189.7 71.6008 190.6 71.1008C191.5 70.6008 192.4 70.0008 193.1 69.3008C193.9 68.5008 194.4 67.6008 194.6 66.5008C194.8 65.6008 194.8 64.7008 194.6 64.0008C194.4 63.1008 194 62.4008 193.4 61.9008ZM184.5 57.7008C183.8 58.1008 183.1 58.3008 182.3 58.3008C181.5 58.3008 180.8 58.1008 180.1 57.7008C179.4 57.3008 178.8 56.8008 178.3 56.1008C177.8 55.4008 177.4 54.6008 177.1 53.6008C176.8 52.7008 176.7 51.6008 176.7 50.6008C176.7 49.5008 176.8 48.5008 177.1 47.6008C177.4 46.7008 177.8 45.8008 178.3 45.1008C178.8 44.4008 179.4 43.9008 180.1 43.5008C180.8 43.1008 181.5 42.9008 182.3 42.9008C183.1 42.9008 183.8 43.1008 184.5 43.5008C185.2 43.9008 185.8 44.4008 186.3 45.1008C186.8 45.8008 187.2 46.6008 187.5 47.6008C187.8 48.5008 187.9 49.6008 187.9 50.6008C187.9 51.7008 187.8 52.7008 187.5 53.6008C187.2 54.5008 186.8 55.4008 186.3 56.1008C185.8 56.7008 185.2 57.3008 184.5 57.7008Z" fill="#DFD2C0"/>
<path d="M206.2 32.7012V33.7012H206.4C207 33.7012 207.5 33.9012 207.9 34.3012C208.3 34.7012 208.5 35.2012 208.5 35.8012V41.0012C208 40.8012 207.5 40.7012 207 40.6012C206.4 40.5012 205.7 40.4012 205.1 40.4012C203.7 40.4012 202.3 40.7012 201.1 41.2012C199.8 41.7012 198.7 42.4012 197.8 43.4012C196.9 44.3012 196.1 45.4012 195.6 46.6012C195.1 47.8012 194.8 49.2012 194.8 50.5012C194.8 51.9012 195.1 53.2012 195.6 54.4012C196.1 55.6012 196.9 56.7012 197.8 57.6012C198.7 58.5012 199.8 59.2012 201.1 59.8012C202.3 60.3012 203.7 60.6012 205.1 60.6012C205.7 60.6012 206.3 60.5012 206.8 60.4012C207.3 60.3012 207.9 60.1012 208.3 60.0012C208.7 59.9012 209.2 59.7012 209.6 59.6012C210 59.5012 210.4 59.4012 210.7 59.4012C211.5 59.4012 212.2 59.6012 212.7 59.9012L213 60.1012V32.7012H206.2ZM203 42.1012C203.7 41.6012 204.4 41.4012 205.1 41.4012C205.8 41.4012 206.4 41.6012 207 41.9012C207.6 42.2012 208.1 42.7012 208.5 43.3012V57.8012C208 58.4012 207.5 58.8012 207 59.2012C206.4 59.5012 205.8 59.7012 205.1 59.7012C204.4 59.7012 203.6 59.5012 203 59.0012C202.3 58.5012 201.7 57.9012 201.2 57.1012C200.7 56.3012 200.3 55.3012 200 54.2012C199.7 53.1012 199.6 51.9012 199.6 50.6012C199.6 49.3012 199.7 48.1012 200 47.0012C200.3 45.9012 200.7 44.9012 201.2 44.1012C201.7 43.2012 202.3 42.5012 203 42.1012Z" fill="#DFD2C0"/>
<path d="M78.8 75.6C78.7 75.6 78.6 75.6 78.6 75.5C78.5 75.5 78.5 75.4 78.5 75.3C78.5 75.2 78.5 75.2 78.6 75.1C78.7 75.1 78.7 75 78.8 75C78.9 75 79 75 79 75.1C79.1 75.1 79.1 75.2 79.1 75.3C79.1 75.4 79.1 75.4 79 75.5C79 75.6 78.9 75.6 78.8 75.6ZM78.6 79V75.9H78.7H78.8H78.9H79V79H78.6Z" fill="#DFD2C0"/>
<path d="M80.3999 79.0004V75.9004H80.7999V76.5004C80.8999 76.4004 80.8999 76.3004 81.0999 76.2004C81.2999 76.1004 81.3999 76.0004 81.4999 76.0004C81.6999 75.9004 81.7999 75.9004 81.9999 75.9004C82.3999 75.9004 82.7999 76.0004 82.9999 76.2004C83.1999 76.4004 83.3999 76.7004 83.3999 77.1004V79.0004H82.9999V77.1004C82.9999 76.8004 82.8999 76.6004 82.6999 76.4004C82.4999 76.2004 82.2999 76.2004 81.8999 76.2004C81.6999 76.2004 81.4999 76.2004 81.2999 76.3004C81.0999 76.4004 80.9999 76.5004 80.8999 76.6004C80.7999 76.7004 80.6999 76.8004 80.6999 77.0004V79.1004H80.3999V79.0004Z" fill="#DFD2C0"/>
<path d="M85.7998 79.1012C85.4998 79.1012 85.2998 79.0012 85.0998 78.9012C84.8998 78.8012 84.8998 78.5012 84.8998 78.2012V76.3012H84.2998V75.9012H84.6998C84.7998 75.9012 84.8998 75.9012 84.8998 75.8012C84.8998 75.8012 84.9998 75.7012 84.9998 75.6012V75.2012H85.3998V75.9012H86.2998V76.2012H85.3998V78.1012C85.3998 78.3012 85.3998 78.4012 85.4998 78.5012C85.5998 78.6012 85.6998 78.7012 85.8998 78.7012C85.9998 78.7012 86.1998 78.7012 86.2998 78.6012V79.0012C86.1998 79.0012 86.1998 79.0012 86.0998 79.1012C85.9998 79.1012 85.8998 79.1012 85.7998 79.1012Z" fill="#DFD2C0"/>
<path d="M89.0002 79.1004C88.6002 79.1004 88.3002 79.0004 88.0002 78.9004C87.7002 78.8004 87.5002 78.6004 87.4002 78.3004C87.3002 78.1004 87.2002 77.8004 87.2002 77.5004C87.2002 77.2004 87.3002 76.9004 87.4002 76.7004C87.5002 76.5004 87.7002 76.3004 88.0002 76.1004C88.3002 76.0004 88.5002 75.9004 88.9002 75.9004C89.2002 75.9004 89.5002 76.0004 89.8002 76.1004C90.0002 76.2004 90.2002 76.4004 90.4002 76.7004C90.5002 76.9004 90.6002 77.2004 90.6002 77.5004V77.7004H87.7002C87.7002 77.9004 87.8002 78.1004 87.9002 78.3004C88.0002 78.5004 88.2002 78.6004 88.4002 78.7004C88.6002 78.8004 88.9002 78.8004 89.1002 78.8004C89.4002 78.8004 89.6002 78.8004 89.8002 78.7004C90.0002 78.6004 90.2002 78.5004 90.3002 78.4004V78.8004C90.2002 78.9004 90.0002 79.0004 89.8002 79.0004C89.5002 79.0004 89.2002 79.1004 89.0002 79.1004ZM90.1002 77.3004C90.1002 77.1004 90.0002 76.9004 89.9002 76.8004C89.8002 76.6004 89.7002 76.5004 89.5002 76.4004C89.3002 76.3004 89.1002 76.3004 88.9002 76.3004C88.7002 76.3004 88.4002 76.3004 88.2002 76.4004C88.0002 76.5004 87.9002 76.6004 87.7002 76.8004C87.6002 77.0004 87.5002 77.2004 87.5002 77.4004H90.1002V77.3004Z" fill="#DFD2C0"/>
<path d="M91.7002 79.0004V75.9004H92.1002V76.5004C92.2002 76.4004 92.2002 76.3004 92.3002 76.2004C92.4002 76.1004 92.5002 76.0004 92.7002 76.0004C92.8002 75.9004 93.0002 75.9004 93.2002 75.9004H93.5002V76.3004H93.2002C93.0002 76.3004 92.8002 76.3004 92.7002 76.4004C92.5002 76.5004 92.4002 76.6004 92.3002 76.7004C92.2002 76.8004 92.1002 76.9004 92.1002 77.0004V79.1004H91.7002V79.0004Z" fill="#DFD2C0"/>
<path d="M94.3999 79.0004V75.9004H94.7999V76.5004C94.8999 76.4004 94.8999 76.3004 95.0999 76.2004C95.2999 76.1004 95.3999 76.0004 95.4999 76.0004C95.6999 75.9004 95.7999 75.9004 95.9999 75.9004C96.3999 75.9004 96.7999 76.0004 96.9999 76.2004C97.1999 76.4004 97.3999 76.7004 97.3999 77.1004V79.0004H96.9999V77.1004C96.9999 76.8004 96.8999 76.6004 96.6999 76.4004C96.4999 76.2004 96.2999 76.2004 95.8999 76.2004C95.6999 76.2004 95.4999 76.2004 95.2999 76.3004C95.0999 76.4004 94.9999 76.5004 94.8999 76.6004C94.7999 76.7004 94.6999 76.8004 94.6999 77.0004V79.1004H94.3999V79.0004Z" fill="#DFD2C0"/>
<path d="M99.8001 79.1008C99.4001 79.1008 99.1001 79.0008 98.9001 78.9008C98.7001 78.8008 98.6001 78.5008 98.6001 78.2008C98.6001 77.9008 98.7001 77.7008 99.0001 77.5008C99.2001 77.3008 99.6001 77.2008 100.2 77.2008C100.5 77.2008 100.8 77.2008 101 77.1008C101.2 77.1008 101.3 77.0008 101.4 77.0008C101.5 77.0008 101.5 76.9008 101.5 76.7008C101.5 76.6008 101.5 76.5008 101.4 76.4008C101.3 76.3008 101.2 76.3008 101 76.2008C100.8 76.1008 100.6 76.1008 100.3 76.1008C100 76.1008 99.7001 76.1008 99.5001 76.2008C99.2001 76.3008 99.0001 76.4008 98.9001 76.5008V76.1008C99.0001 76.0008 99.2001 75.9008 99.5001 75.9008C99.8001 75.8008 100.1 75.8008 100.4 75.8008C100.8 75.8008 101 75.8008 101.3 75.9008C101.5 76.0008 101.7 76.1008 101.8 76.2008C101.9 76.3008 102 76.5008 102 76.7008V78.9008H101.6V78.4008C101.5 78.5008 101.4 78.6008 101.2 78.7008C101 78.8008 100.9 78.9008 100.7 78.9008C100.3 79.1008 100.1 79.1008 99.8001 79.1008ZM99.9001 78.7008C100.1 78.7008 100.3 78.7008 100.5 78.6008C100.7 78.5008 100.9 78.5008 101 78.4008C101.1 78.3008 101.2 78.2008 101.3 78.1008V77.2008C101.3 77.2008 101.2 77.3008 101.1 77.3008C101 77.3008 100.9 77.4008 100.7 77.4008C100.5 77.4008 100.3 77.4008 100 77.4008C99.6001 77.4008 99.3001 77.5008 99.2001 77.6008C99.0001 77.7008 98.9001 77.9008 98.9001 78.1008C98.9001 78.3008 99.0001 78.4008 99.1001 78.5008C99.4001 78.7008 99.6001 78.7008 99.9001 78.7008Z" fill="#DFD2C0"/>
<path d="M104.2 79.1012C103.9 79.1012 103.7 79.0012 103.5 78.9012C103.3 78.8012 103.3 78.5012 103.3 78.2012V76.3012H102.7V75.9012H103C103.1 75.9012 103.2 75.9012 103.2 75.8012C103.2 75.8012 103.3 75.7012 103.3 75.6012V75.2012H103.7V75.9012H104.6V76.2012H103.7V78.1012C103.7 78.3012 103.7 78.4012 103.8 78.5012C103.9 78.6012 104 78.7012 104.2 78.7012C104.3 78.7012 104.5 78.7012 104.6 78.6012V79.0012C104.5 79.0012 104.5 79.0012 104.4 79.1012C104.4 79.1012 104.3 79.1012 104.2 79.1012Z" fill="#DFD2C0"/>
<path d="M106 75.6C105.9 75.6 105.8 75.6 105.8 75.5C105.7 75.5 105.7 75.4 105.7 75.3C105.7 75.2 105.7 75.2 105.8 75.1C105.9 75.1 105.9 75 106 75C106.1 75 106.2 75 106.2 75.1C106.3 75.1 106.3 75.2 106.3 75.3C106.3 75.4 106.3 75.4 106.2 75.5C106.1 75.6 106.1 75.6 106 75.6ZM105.8 79V75.9H105.9H106H106.1H106.2V79H105.8Z" fill="#DFD2C0"/>
<path d="M109.3 79.1004C108.9 79.1004 108.6 79.0004 108.3 78.9004C108 78.8004 107.8 78.6004 107.6 78.3004C107.4 78.1004 107.4 77.8004 107.4 77.5004C107.4 77.2004 107.5 76.9004 107.6 76.7004C107.8 76.5004 108 76.3004 108.3 76.1004C108.6 76.0004 108.9 75.9004 109.3 75.9004C109.7 75.9004 110 76.0004 110.3 76.1004C110.6 76.2004 110.8 76.4004 111 76.7004C111.2 76.9004 111.2 77.2004 111.2 77.5004C111.2 77.8004 111.1 78.1004 111 78.3004C110.8 78.5004 110.6 78.7004 110.3 78.9004C110 79.0004 109.6 79.1004 109.3 79.1004ZM109.3 78.7004C109.6 78.7004 109.9 78.6004 110.1 78.5004C110.3 78.4004 110.5 78.2004 110.6 78.1004C110.7 78.0004 110.8 77.7004 110.8 77.4004C110.8 77.1004 110.7 76.9004 110.6 76.7004C110.5 76.5004 110.3 76.4004 110.1 76.3004C109.9 76.2004 109.6 76.1004 109.3 76.1004C109 76.1004 108.7 76.2004 108.5 76.3004C108.3 76.4004 108.1 76.6004 108 76.7004C107.9 76.8004 107.8 77.1004 107.8 77.4004C107.8 77.6004 107.9 77.9004 108 78.1004C108.1 78.3004 108.3 78.4004 108.5 78.5004C108.7 78.7004 109 78.7004 109.3 78.7004Z" fill="#DFD2C0"/>
<path d="M112.4 79.0004V75.9004H112.8V76.5004C112.9 76.4004 112.9 76.3004 113.1 76.2004C113.3 76.1004 113.4 76.0004 113.5 76.0004C113.7 75.9004 113.8 75.9004 114 75.9004C114.4 75.9004 114.8 76.0004 115 76.2004C115.2 76.4004 115.4 76.7004 115.4 77.1004V79.0004H115V77.1004C115 76.8004 114.9 76.6004 114.7 76.4004C114.5 76.2004 114.3 76.2004 113.9 76.2004C113.7 76.2004 113.5 76.2004 113.3 76.3004C113.1 76.4004 113 76.5004 112.9 76.6004C112.8 76.7004 112.7 76.8004 112.7 77.0004V79.1004H112.4V79.0004Z" fill="#DFD2C0"/>
<path d="M117.8 79.1008C117.4 79.1008 117.1 79.0008 116.9 78.9008C116.7 78.8008 116.6 78.5008 116.6 78.2008C116.6 77.9008 116.7 77.7008 117 77.5008C117.2 77.3008 117.6 77.2008 118.2 77.2008C118.5 77.2008 118.8 77.2008 119 77.1008C119.2 77.1008 119.3 77.0008 119.4 77.0008C119.5 77.0008 119.5 76.9008 119.5 76.7008C119.5 76.6008 119.5 76.5008 119.4 76.4008C119.3 76.3008 119.2 76.3008 119 76.2008C118.8 76.1008 118.6 76.1008 118.3 76.1008C118 76.1008 117.7 76.1008 117.5 76.2008C117.2 76.3008 117 76.4008 116.9 76.5008V76.1008C117 76.0008 117.2 75.9008 117.5 75.9008C117.8 75.8008 118.1 75.8008 118.4 75.8008C118.8 75.8008 119 75.8008 119.3 75.9008C119.5 76.0008 119.7 76.1008 119.8 76.2008C119.9 76.3008 120 76.5008 120 76.7008V78.9008H119.6V78.4008C119.5 78.5008 119.4 78.6008 119.2 78.7008C119 78.8008 118.9 78.9008 118.7 78.9008C118.2 79.1008 118 79.1008 117.8 79.1008ZM117.9 78.7008C118.1 78.7008 118.3 78.7008 118.5 78.6008C118.7 78.5008 118.9 78.5008 119 78.4008C119.1 78.3008 119.2 78.2008 119.3 78.1008V77.2008C119.3 77.2008 119.2 77.3008 119.1 77.3008C119 77.3008 118.9 77.4008 118.7 77.4008C118.5 77.4008 118.3 77.4008 118 77.4008C117.6 77.4008 117.3 77.5008 117.2 77.6008C117 77.7008 116.9 77.9008 116.9 78.1008C116.9 78.3008 117 78.4008 117.1 78.5008C117.3 78.7008 117.6 78.7008 117.9 78.7008Z" fill="#DFD2C0"/>
<path d="M121.1 79.0004V74.9004H121.5V79.0004H121.1Z" fill="#DFD2C0"/>
<path d="M126.1 79.1012C125.8 79.1012 125.6 79.0012 125.4 78.9012C125.2 78.7012 125.2 78.5012 125.2 78.2012V76.3012H124.6V75.9012H125C125.1 75.9012 125.2 75.9012 125.2 75.8012C125.2 75.8012 125.3 75.7012 125.3 75.6012V75.2012H125.7V75.9012H126.6V76.2012H125.7V78.1012C125.7 78.3012 125.7 78.4012 125.8 78.5012C125.9 78.6012 126 78.7012 126.2 78.7012C126.3 78.7012 126.5 78.7012 126.6 78.6012V79.0012C126.5 79.0012 126.5 79.0012 126.4 79.1012C126.2 79.1012 126.2 79.1012 126.1 79.1012Z" fill="#DFD2C0"/>
<path d="M127.6 79.0004V75.9004H128V76.5004C128.1 76.4004 128.1 76.3004 128.2 76.2004C128.3 76.1004 128.4 76.0004 128.6 76.0004C128.7 75.9004 128.9 75.9004 129.1 75.9004H129.4V76.3004H129.1C128.9 76.3004 128.7 76.3004 128.6 76.4004C128.4 76.5004 128.3 76.6004 128.2 76.7004C128.1 76.8004 128 76.9004 128 77.0004V79.1004H127.6V79.0004Z" fill="#DFD2C0"/>
<path d="M131.2 79.1008C130.8 79.1008 130.5 79.0008 130.3 78.9008C130.1 78.8008 130 78.5008 130 78.2008C130 77.9008 130.1 77.7008 130.4 77.5008C130.6 77.3008 131 77.2008 131.6 77.2008C131.9 77.2008 132.2 77.2008 132.4 77.1008C132.6 77.1008 132.7 77.0008 132.8 77.0008C132.9 77.0008 132.9 76.9008 132.9 76.7008C132.9 76.6008 132.9 76.5008 132.8 76.4008C132.7 76.3008 132.6 76.3008 132.4 76.2008C132.2 76.1008 132 76.1008 131.7 76.1008C131.4 76.1008 131.1 76.1008 130.9 76.2008C130.6 76.3008 130.4 76.4008 130.3 76.5008V76.1008C130.4 76.0008 130.6 75.9008 130.9 75.9008C131.2 75.8008 131.5 75.8008 131.8 75.8008C132.2 75.8008 132.4 75.8008 132.7 75.9008C132.9 76.0008 133.1 76.1008 133.2 76.2008C133.3 76.3008 133.4 76.5008 133.4 76.7008V78.9008H133V78.4008C132.9 78.5008 132.8 78.6008 132.6 78.7008C132.4 78.8008 132.3 78.9008 132.1 78.9008C131.7 79.1008 131.5 79.1008 131.2 79.1008ZM131.3 78.7008C131.5 78.7008 131.7 78.7008 131.9 78.6008C132.1 78.5008 132.3 78.5008 132.4 78.4008C132.5 78.3008 132.6 78.2008 132.7 78.1008V77.2008C132.7 77.2008 132.6 77.3008 132.5 77.3008C132.4 77.3008 132.3 77.4008 132.1 77.4008C131.9 77.4008 131.7 77.4008 131.4 77.4008C131 77.4008 130.7 77.5008 130.6 77.6008C130.4 77.7008 130.3 77.9008 130.3 78.1008C130.3 78.3008 130.4 78.4008 130.5 78.5008C130.8 78.7008 131 78.7008 131.3 78.7008Z" fill="#DFD2C0"/>
<path d="M134.7 75.6C134.6 75.6 134.5 75.6 134.5 75.5C134.4 75.5 134.4 75.4 134.4 75.3C134.4 75.2 134.4 75.2 134.5 75.1C134.6 75.1 134.6 75 134.7 75C134.8 75 134.9 75 134.9 75.1C135 75.1 135 75.2 135 75.3C135 75.4 135 75.4 134.9 75.5C134.9 75.6 134.8 75.6 134.7 75.6ZM134.5 79V75.9H134.6H134.7H134.8H134.9V79H134.5Z" fill="#DFD2C0"/>
<path d="M136.3 79.0004V75.9004H136.7V76.5004C136.8 76.4004 136.8 76.3004 137 76.2004C137.2 76.1004 137.3 76.0004 137.4 76.0004C137.6 75.9004 137.7 75.9004 137.9 75.9004C138.3 75.9004 138.7 76.0004 138.9 76.2004C139.1 76.4004 139.3 76.7004 139.3 77.1004V79.0004H138.9V77.1004C138.9 76.8004 138.8 76.6004 138.6 76.4004C138.4 76.2004 138.2 76.2004 137.8 76.2004C137.6 76.2004 137.4 76.2004 137.2 76.3004C137 76.4004 136.9 76.5004 136.8 76.6004C136.7 76.7004 136.6 76.8004 136.6 77.0004V79.1004H136.3V79.0004Z" fill="#DFD2C0"/>
<path d="M142.4 79.1004C142 79.1004 141.7 79.0004 141.4 78.9004C141.1 78.8004 140.9 78.6004 140.8 78.3004C140.7 78.1004 140.6 77.8004 140.6 77.5004C140.6 77.2004 140.7 76.9004 140.8 76.7004C140.9 76.5004 141.1 76.3004 141.4 76.1004C141.7 76.0004 141.9 75.9004 142.3 75.9004C142.6 75.9004 142.9 76.0004 143.2 76.1004C143.4 76.2004 143.6 76.4004 143.8 76.7004C143.9 76.9004 144 77.2004 144 77.5004V77.7004H141.1C141.1 77.9004 141.2 78.1004 141.3 78.3004C141.4 78.5004 141.6 78.6004 141.8 78.7004C142 78.8004 142.3 78.8004 142.5 78.8004C142.8 78.8004 143 78.8004 143.2 78.7004C143.4 78.6004 143.6 78.5004 143.7 78.4004V78.8004C143.6 78.9004 143.4 79.0004 143.2 79.0004C142.9 79.0004 142.6 79.1004 142.4 79.1004ZM143.5 77.3004C143.5 77.1004 143.4 76.9004 143.3 76.8004C143.2 76.6004 143.1 76.5004 142.9 76.4004C142.7 76.3004 142.5 76.3004 142.3 76.3004C142.1 76.3004 141.8 76.3004 141.6 76.4004C141.4 76.5004 141.3 76.6004 141.1 76.8004C141 77.0004 140.9 77.2004 140.9 77.4004H143.5V77.3004Z" fill="#DFD2C0"/>
<path d="M145.1 79.0004V75.9004H145.5V76.5004C145.6 76.4004 145.6 76.3004 145.7 76.2004C145.8 76.1004 145.9 76.0004 146.1 76.0004C146.2 75.9004 146.4 75.9004 146.6 75.9004H146.9V76.3004H146.6C146.4 76.3004 146.2 76.3004 146.1 76.4004C145.9 76.5004 145.8 76.6004 145.7 76.7004C145.6 76.8004 145.5 76.9004 145.5 77.0004V79.1004H145.1V79.0004Z" fill="#DFD2C0"/>
<path d="M149.3 59.0008C148.7 59.0008 148.2 58.8008 147.8 58.4008C147.4 58.0008 147.2 57.6008 147.2 57.1008V41.1008C147.3 40.7008 147.5 40.3008 147.8 40.0008C148.2 39.6008 148.7 39.4008 149.3 39.4008H149.6V38.3008H143L136.1 53.9008L129.2 39.4008C129 38.8008 128.6 38.6008 128.2 38.6008C128.2 38.6008 127.9 38.6008 127.5 38.6008C126.9 38.6008 126.6 38.6008 125.7 38.6008H121.3V39.6008H121.6C122 39.6008 122.4 39.7008 122.8 39.9008C123.1 40.1008 123.4 40.3008 123.6 40.7008V40.8008C123.7 41.1008 123.8 41.3008 123.8 41.5008V41.6008V41.8008V57.2008C123.8 57.7008 123.6 58.1008 123.2 58.5008C122.8 58.9008 122.3 59.1008 121.7 59.1008H121.4V60.2008H127.7V59.1008H127.4C126.8 59.1008 126.3 58.9008 125.9 58.5008C125.5 58.1008 125.3 57.7008 125.3 57.2008V42.1008L133.7 60.1008C133.9 60.4008 134.1 60.5008 134.2 60.5008H134.3C134.6 60.5008 134.8 60.4008 134.9 60.1008L142.9 42.1008V57.5008C142.8 57.9008 142.7 58.3008 142.3 58.6008C141.9 59.0008 141.4 59.2008 140.8 59.2008H140.5V60.3008H149.7V59.2008H149.3V59.0008Z" fill="#DFD2C0"/>
<path d="M107.7 12.9004C107.7 13.1004 107.5 13.3004 107.2 13.6004C106.9 13.9004 106.4 14.2004 105.9 14.6004C105.4 14.9004 104.8 15.3004 104.2 15.6004C103.6 15.9004 103 16.3004 102.5 16.5004C102.4 16.9004 102.3 17.4004 101.9 17.8004C101.6 18.3004 101.1 18.7004 100.6 19.2004C100.1 19.7004 99.5001 20.1004 98.9001 20.5004C98.3001 20.9004 97.7001 21.3004 97.0001 21.6004C96.4001 21.9004 95.8001 22.1004 95.2001 22.3004C94.6001 22.5004 94.1001 22.5004 93.7001 22.5004C93.5001 22.5004 93.3001 22.4004 93.1001 22.2004C92.9001 22.0004 92.8001 21.8004 92.8001 21.6004C92.8001 21.3004 93.0001 20.9004 93.4001 20.6004C93.8001 20.2004 94.2001 19.9004 94.8001 19.5004C95.4001 19.1004 96.0001 18.8004 96.7001 18.4004C97.4001 18.0004 98.1001 17.7004 98.7001 17.4004C99.4001 17.1004 100 16.8004 100.5 16.6004C101.1 16.4004 101.5 16.2004 101.8 16.1004C101.8 15.7004 101.6 15.3004 101.2 15.0004C100.8 14.7004 100.4 14.5004 99.8001 14.3004C99.2001 14.1004 98.5001 13.9004 97.8001 13.8004C97.0001 13.6004 96.3001 13.5004 95.5001 13.3004C94.7001 13.1004 94.0001 13.0004 93.2001 12.8004C92.5001 12.6004 91.8001 12.4004 91.2001 12.1004C90.6001 11.8004 90.2001 11.5004 89.9001 11.0004C89.6001 10.6004 89.4001 10.1004 89.5001 9.50039C89.5001 8.80039 89.8001 8.00039 90.4001 7.30039C90.9001 6.60039 91.6001 5.90039 92.4001 5.20039C93.2001 4.60039 94.1001 4.00039 95.2001 3.40039C96.2001 2.90039 97.2001 2.40039 98.3001 2.00039C99.3001 1.60039 100.3 1.30039 101.2 1.10039C102.1 1.00039 102.9 0.900391 103.6 0.900391C104 0.900391 104.3 1.00039 104.7 1.10039C105.1 1.20039 105.4 1.30039 105.7 1.50039C106 1.70039 106.2 1.90039 106.4 2.20039C106.6 2.50039 106.6 2.90039 106.6 3.30039C106.6 3.60039 106.5 3.90039 106.3 4.40039C106.1 4.80039 105.9 5.30039 105.6 5.80039C105.3 6.30039 105 6.80039 104.7 7.20039C104.4 7.70039 104.1 8.10039 103.7 8.50039C103.4 8.90039 103.1 9.20039 102.8 9.50039C102.6 9.80039 102.4 9.90039 102.2 9.90039C102.1 9.90039 102 9.80039 101.9 9.80039C101.8 9.70039 101.8 9.60039 101.8 9.60039C101.8 9.60039 101.9 9.50039 102 9.40039C102.1 9.30039 102.3 9.10039 102.5 9.00039C102.7 8.80039 102.8 8.70039 103 8.60039C103.2 8.50039 103.3 8.40039 103.3 8.30039C103.5 8.00039 103.8 7.70039 104.1 7.30039C104.4 6.70039 104.7 6.30039 105 5.90039C105.3 5.50039 105.5 5.00039 105.7 4.60039C105.9 4.20039 106 3.80039 106 3.40039C106 3.00039 106 2.70039 105.8 2.50039C105.7 2.30039 105.5 2.10039 105.2 2.00039C105 1.90039 104.7 1.80039 104.4 1.70039C104.1 1.60039 103.8 1.60039 103.5 1.60039C102.9 1.60039 102.1 1.60039 101.2 1.80039C100.3 2.00039 99.4001 2.30039 98.4001 2.60039C97.4001 3.00039 96.5001 3.40039 95.5001 3.90039C94.5001 4.40039 93.7001 5.00039 92.9001 5.60039C92.1001 6.30039 91.5001 6.90039 91.0001 7.60039C90.5001 8.30039 90.2001 8.90039 90.2001 9.60039C90.2001 10.1004 90.3001 10.5004 90.6001 10.9004C90.9001 11.2004 91.4001 11.5004 91.9001 11.8004C92.5001 12.0004 93.1001 12.2004 93.8001 12.4004C94.5001 12.6004 95.3001 12.7004 96.0001 12.9004C96.8001 13.1004 97.5001 13.2004 98.3001 13.4004C99.0001 13.6004 99.7001 13.7004 100.3 14.0004C100.9 14.2004 101.4 14.5004 101.8 14.8004C102.2 15.1004 102.4 15.5004 102.5 16.0004C103.3 15.6004 104.1 15.2004 104.8 14.7004C105.5 14.2004 106.3 13.7004 106.9 13.1004C107 13.0004 107.1 12.9004 107.2 12.8004C107.3 12.7004 107.4 12.7004 107.4 12.7004C107.6 12.6004 107.7 12.7004 107.7 12.9004ZM101.7 16.9004C101.5 17.0004 101.1 17.1004 100.6 17.4004C100.1 17.6004 99.6001 17.9004 99.0001 18.1004C98.4001 18.4004 97.8001 18.7004 97.1001 19.0004C96.5001 19.3004 95.9001 19.7004 95.3001 20.0004C94.8001 20.3004 94.3001 20.6004 94.0001 20.9004C93.7001 21.2004 93.5001 21.5004 93.5001 21.7004C93.5001 21.8004 93.5001 21.8004 93.6001 21.8004C93.6001 21.8004 93.7001 21.8004 93.7001 21.9004C93.8001 21.9004 93.8001 21.9004 93.8001 21.9004C94.1001 21.9004 94.5001 21.9004 95.0001 21.7004C95.5001 21.5004 96.0001 21.3004 96.6001 21.1004C97.2001 20.8004 97.7001 20.5004 98.3001 20.2004C98.9001 19.8004 99.4001 19.5004 99.9001 19.1004C100.4 18.7004 100.8 18.3004 101.1 18.0004C101.4 17.5004 101.6 17.2004 101.7 16.9004Z" fill="#DFD2C0"/>
<path d="M107.3 15.6C107.1 15.6 106.9 15.5 106.7 15.3C106.6 15.1 106.5 14.9 106.5 14.6C106.5 14.2 106.6 13.7 106.9 13.3C107.1 12.9 107.4 12.5 107.8 12.1C108.2 11.7 108.6 11.4 109 11.2C109.5 11 109.9 10.9 110.3 10.9C110.6 10.9 110.8 10.9 111.1 11C111.4 11.1 111.6 11.2 111.8 11.4C111.9 11.3 112 11.1 112.2 10.9C112.4 10.7 112.6 10.6 112.7 10.6C112.8 10.6 112.8 10.6 112.9 10.7C113 10.8 113 10.8 113 10.9C113 11.1 112.9 11.3 112.6 11.8C112.4 12.2 112.1 12.6 111.9 13.1C111.6 13.8 111.4 14.3 111.3 14.7C111.2 15.1 111.3 15.3 111.4 15.3C111.6 15.4 111.8 15.3 112.1 15C112.4 14.8 112.8 14.4 113.3 13.9C113.7 13.5 114.2 13 114.6 12.5C115 12 115.5 11.5 115.9 11C116.3 10.5 116.7 10 117.1 9.5C117.5 9 117.9 8.5 118.2 8.1C118.4 7.9 118.6 7.6 118.9 7.2C119.2 6.8 119.4 6.4 119.7 5.9C120 5.4 120.3 5 120.6 4.5C120.9 4 121.2 3.6 121.5 3.3C121.8 3 122 2.6 122.2 2.4C122.4 2.2 122.5 2 122.6 2C122.7 2 122.8 2 122.9 2C123 2 123 2.1 123 2.2C122 3.9 121 5.5 120 7.2C119.6 7.9 119.2 8.6 118.8 9.3C118.4 10 118 10.7 117.6 11.4C117.2 12.1 116.9 12.7 116.6 13.4C116.3 14 116 14.5 115.9 15C115.7 15.6 115.5 16.2 115.4 16.8C115.3 17.4 115.3 18 115.3 18.6C115.3 19.1 115.4 19.6 115.6 20C115.8 20.4 116 20.6 116.3 20.6C116.4 20.6 116.5 20.7 116.5 20.7C116.5 20.8 116.5 20.8 116.5 20.9C116.5 21 116.4 21 116.4 21.1C116.3 21.1 116.3 21.2 116.2 21.2C115.8 21.2 115.5 21 115.2 20.6C114.9 20.2 114.8 19.7 114.7 19.1C114.6 18.5 114.6 17.8 114.7 17.1C114.8 16.4 114.9 15.7 115.2 15C115.4 14.4 115.7 13.7 116.1 12.8C116.5 12 116.9 11.1 117.4 10.2C116.9 10.8 116.3 11.4 115.7 12.2C115.1 13 114.4 13.7 113.8 14.5C113.4 14.9 113 15.3 112.7 15.6C112.3 15.9 112 16 111.7 16.1C111.4 16.1 111.2 16.1 111 15.9C110.8 15.7 110.7 15.4 110.7 14.9C110.7 14.5 110.8 14.2 110.9 13.8C111 13.4 111.2 13.1 111.3 12.8C111.1 13 110.9 13.2 110.6 13.5C110.3 13.8 109.9 14.1 109.5 14.4C109.1 14.7 108.7 15 108.3 15.2C107.9 15.4 107.6 15.6 107.3 15.6ZM110.4 11.5C110.1 11.5 109.7 11.6 109.3 11.8C108.9 12 108.6 12.3 108.2 12.6C107.9 12.9 107.6 13.2 107.4 13.6C107.2 14 107.1 14.3 107.1 14.6C107.1 14.7 107.1 14.8 107.1 14.9C107.1 15 107.2 15 107.3 15C107.5 15 107.8 14.9 108.2 14.6C108.6 14.3 109 14 109.4 13.7C109.8 13.4 110.2 13 110.5 12.7C110.9 12.4 111.1 12.1 111.3 11.9C111.1 11.6 110.8 11.5 110.4 11.5Z" fill="#DFD2C0"/>
<path d="M119.1 15.5996C118.9 15.5996 118.7 15.4996 118.5 15.2996C118.4 15.0996 118.3 14.8996 118.3 14.5996C118.3 14.1996 118.4 13.6996 118.7 13.2996C118.9 12.8996 119.2 12.4996 119.6 12.0996C120 11.6996 120.4 11.3996 120.8 11.1996C121.3 10.9996 121.7 10.8996 122.1 10.8996C122.4 10.8996 122.6 10.8996 122.9 10.9996C123.2 11.0996 123.4 11.1996 123.6 11.3996C123.7 11.2996 123.8 11.0996 124 10.8996C124.2 10.6996 124.4 10.5996 124.5 10.5996C124.6 10.5996 124.6 10.5996 124.7 10.6996C124.8 10.7996 124.8 10.7996 124.8 10.8996C124.8 10.9996 124.7 11.1996 124.6 11.4996C124.5 11.7996 124.3 12.0996 124.1 12.3996C123.9 12.6996 123.7 13.0996 123.6 13.3996C123.4 13.7996 123.3 14.0996 123.3 14.3996C123.3 14.7996 123.3 14.9996 123.4 14.9996C123.5 14.9996 123.7 14.9996 124 14.8996C124.4 14.7996 124.7 14.5996 125.1 14.2996C125.5 13.9996 125.8 13.7996 126.1 13.4996C126.4 13.1996 126.7 12.9996 126.9 12.7996C127.1 12.5996 127.2 12.4996 127.3 12.4996C127.4 12.4996 127.5 12.4996 127.5 12.5996C127.6 12.6996 127.6 12.7996 127.6 12.8996C127.6 13.0996 127.4 13.3996 127.1 13.6996C126.7 13.9996 126.3 14.2996 125.9 14.5996C125.4 14.8996 125 15.0996 124.5 15.2996C124 15.4996 123.7 15.5996 123.4 15.5996C123.2 15.5996 123 15.4996 122.8 15.3996C122.6 15.1996 122.6 14.9996 122.6 14.7996C122.6 14.3996 122.7 14.0996 122.8 13.6996C122.9 13.2996 123.1 12.9996 123.2 12.6996C123 12.8996 122.8 13.0996 122.5 13.3996C122.2 13.6996 121.8 13.9996 121.4 14.2996C121 14.5996 120.6 14.8996 120.2 15.0996C119.7 15.3996 119.4 15.5996 119.1 15.5996ZM122.2 11.4996C121.9 11.4996 121.5 11.5996 121.1 11.7996C120.7 11.9996 120.4 12.2996 120 12.5996C119.7 12.8996 119.4 13.1996 119.2 13.5996C119 13.9996 118.9 14.2996 118.9 14.5996C118.9 14.6996 118.9 14.7996 118.9 14.8996C118.9 14.9996 119 14.9996 119.1 14.9996C119.3 14.9996 119.6 14.8996 120 14.5996C120.4 14.2996 120.8 13.9996 121.2 13.6996C121.6 13.3996 122 12.9996 122.3 12.6996C122.7 12.3996 122.9 12.0996 123.1 11.8996C122.9 11.5996 122.6 11.4996 122.2 11.4996Z" fill="#DFD2C0"/>
<path d="M131.9 11.9012C131.6 11.9012 131.3 12.1012 130.9 12.4012C130.5 12.7012 130 13.1012 129.5 13.5012C129 14.0012 128.5 14.5012 128 15.0012C127.5 15.5012 127.1 16.0012 126.7 16.5012C126.3 17.0012 126 17.3012 125.7 17.6012C125.4 17.9012 125.3 18.1012 125.3 18.1012C125.2 18.1012 125.1 18.1012 125 18.0012C124.9 18.0012 124.9 17.9012 124.9 17.8012C124.9 17.5012 125 17.1012 125.3 16.4012C125.6 15.8012 125.9 15.0012 126.4 14.2012C126.8 13.4012 127.3 12.5012 127.9 11.5012C128.5 10.5012 129 9.60117 129.6 8.60117C130.2 7.60117 130.8 6.70117 131.4 5.80117C132 4.90117 132.5 4.10117 133 3.40117C133.5 2.70117 133.9 2.20117 134.2 1.80117C134.5 1.40117 134.7 1.20117 134.8 1.20117C134.9 1.20117 135 1.30117 135.1 1.40117C135.1 1.50117 135.1 1.60117 135 1.70117C133.4 4.00117 131.8 6.30117 130.3 8.70117C128.8 11.1012 127.4 13.5012 126.3 16.1012C126.5 15.8012 126.9 15.4012 127.4 14.9012C127.9 14.4012 128.4 13.8012 129 13.3012C129.6 12.8012 130.1 12.3012 130.7 11.9012C131.3 11.5012 131.7 11.3012 132 11.3012C132.3 11.3012 132.6 11.4012 132.7 11.5012C132.9 11.6012 133 11.7012 133.1 11.9012C133.2 12.1012 133.2 12.3012 133.2 12.5012C133.2 12.7012 133.2 12.9012 133.3 13.1012C133.3 13.3012 133.4 13.5012 133.4 13.6012C133.4 13.7012 133.6 13.7012 133.9 13.6012C134 13.6012 134.2 13.5012 134.3 13.4012C134.5 13.3012 134.6 13.2012 134.8 13.1012C135 13.0012 135.1 12.9012 135.2 12.8012C135.3 12.7012 135.4 12.7012 135.5 12.7012C135.6 12.7012 135.6 12.7012 135.7 12.8012C135.7 12.9012 135.7 12.9012 135.7 13.0012C135.7 13.1012 135.6 13.2012 135.4 13.4012C135.2 13.5012 135 13.7012 134.8 13.8012C134.6 13.9012 134.3 14.0012 134.1 14.1012C133.9 14.2012 133.7 14.2012 133.6 14.2012C133.2 14.2012 133 14.1012 132.9 13.9012C132.8 13.7012 132.8 13.4012 132.8 13.1012C132.8 12.8012 132.7 12.6012 132.7 12.3012C132.4 12.0012 132.2 11.9012 131.9 11.9012Z" fill="#DFD2C0"/>
</g>
<defs>
<clipPath id="clip0_14_327">
<rect width="201.1" height="78.2" fill="white" transform="translate(12 0.900391)"/>
</clipPath>
</defs>
</svg>
