<svg width="47" height="23" viewBox="0 0 47 23" fill="none" xmlns="http://www.w3.org/2000/svg">
<path d="M18.7001 12.8906C18.7001 13.0906 18.5001 13.2906 18.2001 13.5906C17.9001 13.8906 17.4001 14.1906 16.9001 14.5906C16.4001 14.8906 15.8001 15.2906 15.2001 15.5906C14.6001 15.8906 14.0001 16.2906 13.5001 16.4906C13.4001 16.8906 13.3001 17.3906 12.9001 17.7906C12.6001 18.2906 12.1001 18.6906 11.6001 19.1906C11.1001 19.6906 10.5001 20.0906 9.90014 20.4906C9.30013 20.8906 8.70013 21.2906 8.00013 21.5906C7.40013 21.8906 6.80013 22.0906 6.20013 22.2906C5.60013 22.4906 5.10013 22.4906 4.70013 22.4906C4.50013 22.4906 4.30013 22.3906 4.10013 22.1906C3.90013 21.9906 3.80014 21.7906 3.80014 21.5906C3.80014 21.2906 4.00014 20.8906 4.40014 20.5906C4.80014 20.1906 5.20014 19.8906 5.80014 19.4906C6.40014 19.0906 7.00013 18.7906 7.70013 18.3906C8.40013 17.9906 9.10013 17.6906 9.70013 17.3906C10.4001 17.0906 11.0001 16.7906 11.5001 16.5906C12.1001 16.3906 12.5001 16.1906 12.8001 16.0906C12.8001 15.6906 12.6001 15.2906 12.2001 14.9906C11.8001 14.6906 11.4001 14.4906 10.8001 14.2906C10.2001 14.0906 9.50014 13.8906 8.80014 13.7906C8.00014 13.5906 7.30013 13.4906 6.50013 13.2906C5.70013 13.0906 5.00013 12.9906 4.20013 12.7906C3.50013 12.5906 2.80013 12.3906 2.20013 12.0906C1.60013 11.7906 1.20014 11.4906 0.900135 10.9906C0.600135 10.5906 0.400134 10.0906 0.500134 9.49063C0.500134 8.79063 0.800135 7.99062 1.40014 7.29063C1.90014 6.59063 2.60014 5.89062 3.40014 5.19063C4.20014 4.59063 5.10013 3.99062 6.20013 3.39062C7.20013 2.89062 8.20014 2.39062 9.30014 1.99063C10.3001 1.59063 11.3001 1.29063 12.2001 1.09063C13.1001 0.990625 13.9001 0.890625 14.6001 0.890625C15.0001 0.890625 15.3001 0.990625 15.7001 1.09063C16.1001 1.19063 16.4001 1.29063 16.7001 1.49063C17.0001 1.69063 17.2001 1.89062 17.4001 2.19062C17.6001 2.49062 17.6001 2.89062 17.6001 3.29063C17.6001 3.59063 17.5001 3.89062 17.3001 4.39062C17.1001 4.79063 16.9001 5.29063 16.6001 5.79063C16.3001 6.29063 16.0001 6.79063 15.7001 7.19063C15.4001 7.69063 15.1001 8.09062 14.7001 8.49062C14.4001 8.89062 14.1001 9.19063 13.8001 9.49063C13.6001 9.79063 13.4001 9.89062 13.2001 9.89062C13.1001 9.89062 13.0001 9.79062 12.9001 9.79062C12.8001 9.69062 12.8001 9.59062 12.8001 9.59062C12.8001 9.59062 12.9001 9.49063 13.0001 9.39062C13.1001 9.29062 13.3001 9.09063 13.5001 8.99063C13.7001 8.79063 13.8001 8.69062 14.0001 8.59062C14.2001 8.49062 14.3001 8.39062 14.3001 8.29063C14.5001 7.99062 14.8001 7.69063 15.1001 7.29063C15.4001 6.69063 15.7001 6.29063 16.0001 5.89062C16.3001 5.49062 16.5001 4.99062 16.7001 4.59063C16.9001 4.19062 17.0001 3.79063 17.0001 3.39062C17.0001 2.99062 17.0001 2.69063 16.8001 2.49063C16.7001 2.29062 16.5001 2.09063 16.2001 1.99063C16.0001 1.89062 15.7001 1.79063 15.4001 1.69063C15.1001 1.59062 14.8001 1.59062 14.5001 1.59062C13.9001 1.59062 13.1001 1.59062 12.2001 1.79062C11.3001 1.99063 10.4001 2.29063 9.40014 2.59063C8.40014 2.99063 7.50013 3.39062 6.50013 3.89062C5.50013 4.39062 4.70014 4.99062 3.90014 5.59062C3.10014 6.29062 2.50013 6.89062 2.00013 7.59062C1.50013 8.29062 1.20013 8.89062 1.20013 9.59062C1.20013 10.0906 1.30013 10.4906 1.60013 10.8906C1.90013 11.1906 2.40014 11.4906 2.90014 11.7906C3.50014 11.9906 4.10014 12.1906 4.80014 12.3906C5.50014 12.5906 6.30013 12.6906 7.00013 12.8906C7.80013 13.0906 8.50014 13.1906 9.30014 13.3906C10.0001 13.5906 10.7001 13.6906 11.3001 13.9906C11.9001 14.1906 12.4001 14.4906 12.8001 14.7906C13.2001 15.0906 13.4001 15.4906 13.5001 15.9906C14.3001 15.5906 15.1001 15.1906 15.8001 14.6906C16.5001 14.1906 17.3001 13.6906 17.9001 13.0906C18.0001 12.9906 18.1001 12.8906 18.2001 12.7906C18.3001 12.6906 18.4001 12.6906 18.4001 12.6906C18.6001 12.5906 18.7001 12.6906 18.7001 12.8906ZM12.7001 16.8906C12.5001 16.9906 12.1001 17.0906 11.6001 17.3906C11.1001 17.5906 10.6001 17.8906 10.0001 18.0906C9.40013 18.3906 8.80013 18.6906 8.10013 18.9906C7.50013 19.2906 6.90014 19.6906 6.30014 19.9906C5.80014 20.2906 5.30013 20.5906 5.00013 20.8906C4.70013 21.1906 4.50013 21.4906 4.50013 21.6906C4.50013 21.7906 4.50013 21.7906 4.60013 21.7906C4.60013 21.7906 4.70013 21.7906 4.70013 21.8906C4.80013 21.8906 4.80014 21.8906 4.80014 21.8906C5.10014 21.8906 5.50013 21.8906 6.00013 21.6906C6.50013 21.4906 7.00013 21.2906 7.60013 21.0906C8.20013 20.7906 8.70014 20.4906 9.30014 20.1906C9.90014 19.7906 10.4001 19.4906 10.9001 19.0906C11.4001 18.6906 11.8001 18.2906 12.1001 17.9906C12.4001 17.4906 12.6001 17.1906 12.7001 16.8906Z" fill="#DFD2C0"/>
<path d="M18.3 15.5902C18.1 15.5902 17.9 15.4902 17.7 15.2902C17.6 15.0902 17.5 14.8902 17.5 14.5902C17.5 14.1902 17.6 13.6902 17.9 13.2902C18.1 12.8902 18.4 12.4902 18.8 12.0902C19.2 11.6902 19.6 11.3902 20 11.1902C20.5 10.9902 20.9 10.8902 21.3 10.8902C21.6 10.8902 21.8 10.8902 22.1 10.9902C22.4 11.0902 22.6 11.1902 22.8 11.3902C22.9 11.2902 23 11.0902 23.2 10.8902C23.4 10.6902 23.6 10.5902 23.7 10.5902C23.8 10.5902 23.8 10.5902 23.9 10.6902C24 10.7902 24 10.7902 24 10.8902C24 11.0902 23.9 11.2902 23.6 11.7902C23.4 12.1902 23.1 12.5902 22.9 13.0902C22.6 13.7902 22.4 14.2902 22.3 14.6902C22.2 15.0902 22.3 15.2902 22.4 15.2902C22.6 15.3902 22.8 15.2902 23.1 14.9902C23.4 14.7902 23.8 14.3902 24.3 13.8902C24.7 13.4902 25.2 12.9902 25.6 12.4902C26 11.9902 26.5 11.4902 26.9 10.9902C27.3 10.4902 27.7 9.99023 28.1 9.49023C28.5 8.99023 28.9 8.49023 29.2 8.09023C29.4 7.89023 29.6 7.59023 29.9 7.19023C30.2 6.79023 30.4 6.39023 30.7 5.89023C31 5.39023 31.3 4.99023 31.6 4.49023C31.9 3.99023 32.2 3.59023 32.5 3.29023C32.8 2.99023 33 2.59023 33.2 2.39023C33.4 2.19023 33.5 1.99023 33.6 1.99023C33.7 1.99023 33.8 1.99023 33.9 1.99023C34 1.99023 34 2.09023 34 2.19023C33 3.89023 32 5.49023 31 7.19023C30.6 7.89023 30.2 8.59023 29.8 9.29023C29.4 9.99023 29 10.6902 28.6 11.3902C28.2 12.0902 27.9 12.6902 27.6 13.3902C27.3 13.9902 27 14.4902 26.9 14.9902C26.7 15.5902 26.5 16.1902 26.4 16.7902C26.3 17.3902 26.3 17.9902 26.3 18.5902C26.3 19.0902 26.4 19.5902 26.6 19.9902C26.8 20.3902 27 20.5902 27.3 20.5902C27.4 20.5902 27.5 20.6902 27.5 20.6902C27.5 20.7902 27.5 20.7902 27.5 20.8902C27.5 20.9902 27.4 20.9902 27.4 21.0902C27.3 21.0902 27.3 21.1902 27.2 21.1902C26.8 21.1902 26.5 20.9902 26.2 20.5902C25.9 20.1902 25.8 19.6902 25.7 19.0902C25.6 18.4902 25.6 17.7902 25.7 17.0902C25.8 16.3902 25.9 15.6902 26.2 14.9902C26.4 14.3902 26.7 13.6902 27.1 12.7902C27.5 11.9902 27.9 11.0902 28.4 10.1902C27.9 10.7902 27.3 11.3902 26.7 12.1902C26.1 12.9902 25.4 13.6902 24.8 14.4902C24.4 14.8902 24 15.2902 23.7 15.5902C23.3 15.8902 23 15.9902 22.7 16.0902C22.4 16.0902 22.2 16.0902 22 15.8902C21.8 15.6902 21.7 15.3902 21.7 14.8902C21.7 14.4902 21.8 14.1902 21.9 13.7902C22 13.3902 22.2 13.0902 22.3 12.7902C22.1 12.9902 21.9 13.1902 21.6 13.4902C21.3 13.7902 20.9 14.0902 20.5 14.3902C20.1 14.6902 19.7 14.9902 19.3 15.1902C18.9 15.3902 18.6 15.5902 18.3 15.5902ZM21.4 11.4902C21.1 11.4902 20.7 11.5902 20.3 11.7902C19.9 11.9902 19.6 12.2902 19.2 12.5902C18.9 12.8902 18.6 13.1902 18.4 13.5902C18.2 13.9902 18.1 14.2902 18.1 14.5902C18.1 14.6902 18.1 14.7902 18.1 14.8902C18.1 14.9902 18.2 14.9902 18.3 14.9902C18.5 14.9902 18.8 14.8902 19.2 14.5902C19.6 14.2902 20 13.9902 20.4 13.6902C20.8 13.3902 21.2 12.9902 21.5 12.6902C21.9 12.3902 22.1 12.0902 22.3 11.8902C22.1 11.5902 21.8 11.4902 21.4 11.4902Z" fill="#DFD2C0"/>
<path d="M30.1003 15.5898C29.9003 15.5898 29.7003 15.4898 29.5003 15.2898C29.4003 15.0898 29.3003 14.8898 29.3003 14.5898C29.3003 14.1898 29.4003 13.6898 29.7003 13.2898C29.9003 12.8898 30.2003 12.4898 30.6003 12.0898C31.0003 11.6898 31.4003 11.3898 31.8003 11.1898C32.3003 10.9898 32.7003 10.8898 33.1003 10.8898C33.4003 10.8898 33.6003 10.8898 33.9003 10.9898C34.2003 11.0898 34.4003 11.1898 34.6003 11.3898C34.7003 11.2898 34.8003 11.0898 35.0003 10.8898C35.2003 10.6898 35.4003 10.5898 35.5003 10.5898C35.6003 10.5898 35.6003 10.5898 35.7003 10.6898C35.8003 10.7898 35.8003 10.7898 35.8003 10.8898C35.8003 10.9898 35.7003 11.1898 35.6003 11.4898C35.5003 11.7898 35.3003 12.0898 35.1003 12.3898C34.9003 12.6898 34.7003 13.0898 34.6003 13.3898C34.4003 13.7898 34.3003 14.0898 34.3003 14.3898C34.3003 14.7898 34.3003 14.9898 34.4003 14.9898C34.5003 14.9898 34.7003 14.9898 35.0003 14.8898C35.4003 14.7898 35.7003 14.5898 36.1003 14.2898C36.5003 13.9898 36.8003 13.7898 37.1003 13.4898C37.4003 13.1898 37.7003 12.9898 37.9003 12.7898C38.1003 12.5898 38.2003 12.4898 38.3003 12.4898C38.4003 12.4898 38.5003 12.4898 38.5003 12.5898C38.6003 12.6898 38.6003 12.7898 38.6003 12.8898C38.6003 13.0898 38.4003 13.3898 38.1003 13.6898C37.7003 13.9898 37.3003 14.2898 36.9003 14.5898C36.4003 14.8898 36.0003 15.0898 35.5003 15.2898C35.0003 15.4898 34.7003 15.5898 34.4003 15.5898C34.2003 15.5898 34.0003 15.4898 33.8003 15.3898C33.6003 15.1898 33.6003 14.9898 33.6003 14.7898C33.6003 14.3898 33.7003 14.0898 33.8003 13.6898C33.9003 13.2898 34.1003 12.9898 34.2003 12.6898C34.0003 12.8898 33.8003 13.0898 33.5003 13.3898C33.2003 13.6898 32.8003 13.9898 32.4003 14.2898C32.0003 14.5898 31.6003 14.8898 31.2003 15.0898C30.7003 15.3898 30.4003 15.5898 30.1003 15.5898ZM33.2003 11.4898C32.9003 11.4898 32.5003 11.5898 32.1003 11.7898C31.7003 11.9898 31.4003 12.2898 31.0003 12.5898C30.7003 12.8898 30.4003 13.1898 30.2003 13.5898C30.0003 13.9898 29.9003 14.2898 29.9003 14.5898C29.9003 14.6898 29.9003 14.7898 29.9003 14.8898C29.9003 14.9898 30.0003 14.9898 30.1003 14.9898C30.3003 14.9898 30.6003 14.8898 31.0003 14.5898C31.4003 14.2898 31.8003 13.9898 32.2003 13.6898C32.6003 13.3898 33.0003 12.9898 33.3003 12.6898C33.7003 12.3898 33.9003 12.0898 34.1003 11.8898C33.9003 11.5898 33.6003 11.4898 33.2003 11.4898Z" fill="#DFD2C0"/>
<path d="M42.8999 11.8914C42.5999 11.8914 42.2999 12.0914 41.8999 12.3914C41.4999 12.6914 40.9999 13.0914 40.4999 13.4914C39.9999 13.9914 39.4999 14.4914 38.9999 14.9914C38.4999 15.4914 38.0999 15.9914 37.6999 16.4914C37.2999 16.9914 36.9999 17.2914 36.6999 17.5914C36.3999 17.8914 36.2999 18.0914 36.2999 18.0914C36.1999 18.0914 36.0999 18.0914 35.9999 17.9914C35.8999 17.9914 35.8999 17.8914 35.8999 17.7914C35.8999 17.4914 35.9999 17.0914 36.2999 16.3914C36.5999 15.7914 36.8999 14.9914 37.3999 14.1914C37.7999 13.3914 38.2999 12.4914 38.8999 11.4914C39.4999 10.4914 39.9999 9.59141 40.5999 8.59141C41.1999 7.59141 41.7999 6.69141 42.3999 5.79141C42.9999 4.89141 43.4999 4.09141 43.9999 3.39141C44.4999 2.69141 44.8999 2.19141 45.1999 1.79141C45.4999 1.39141 45.6999 1.19141 45.7999 1.19141C45.8999 1.19141 45.9999 1.29141 46.0999 1.39141C46.0999 1.49141 46.0999 1.59141 45.9999 1.69141C44.3999 3.99141 42.7999 6.29141 41.2999 8.69141C39.7999 11.0914 38.3999 13.4914 37.2999 16.0914C37.4999 15.7914 37.8999 15.3914 38.3999 14.8914C38.8999 14.3914 39.3999 13.7914 39.9999 13.2914C40.5999 12.7914 41.0999 12.2914 41.6999 11.8914C42.2999 11.4914 42.6999 11.2914 42.9999 11.2914C43.2999 11.2914 43.5999 11.3914 43.6999 11.4914C43.8999 11.5914 43.9999 11.6914 44.0999 11.8914C44.1999 12.0914 44.1999 12.2914 44.1999 12.4914C44.1999 12.6914 44.1999 12.8914 44.2999 13.0914C44.2999 13.2914 44.3999 13.4914 44.3999 13.5914C44.3999 13.6914 44.5999 13.6914 44.8999 13.5914C44.9999 13.5914 45.1999 13.4914 45.2999 13.3914C45.4999 13.2914 45.5999 13.1914 45.7999 13.0914C45.9999 12.9914 46.0999 12.8914 46.1999 12.7914C46.2999 12.6914 46.3999 12.6914 46.4999 12.6914C46.5999 12.6914 46.5999 12.6914 46.6999 12.7914C46.6999 12.8914 46.6999 12.8914 46.6999 12.9914C46.6999 13.0914 46.5999 13.1914 46.3999 13.3914C46.1999 13.4914 45.9999 13.6914 45.7999 13.7914C45.5999 13.8914 45.2999 13.9914 45.0999 14.0914C44.8999 14.1914 44.6999 14.1914 44.5999 14.1914C44.1999 14.1914 43.9999 14.0914 43.8999 13.8914C43.7999 13.6914 43.7999 13.3914 43.7999 13.0914C43.7999 12.7914 43.6999 12.5914 43.6999 12.2914C43.3999 11.9914 43.1999 11.8914 42.8999 11.8914Z" fill="#DFD2C0"/>
</svg>
