<svg width="201" height="48" viewBox="0 0 201 48" fill="none" xmlns="http://www.w3.org/2000/svg">
<path d="M27 26.6012C26.5 26.3012 26.1 25.8012 25.9 25.2012L16.7 0.701172H8.7V1.60117H8.9C9.8 1.60117 10.4 1.80117 10.7 2.30117C11 2.80117 10.9 3.50117 10.6 4.40117L2.7 25.2012C2.4 25.9012 2.1 26.3012 1.7 26.6012C1.3 26.9012 0.8 27.0012 0.1 27.0012H0V28.0012H5.2V27.0012H5C4.5 27.0012 4.1 26.9012 3.8 26.6012C3.5 26.3012 3.4 26.0012 3.6 25.5012L8.6 12.9012C9.7 12.9012 10.8 13.1012 11.8 13.5012C12.8 13.9012 13.8 14.5012 14.7 15.2012C15.6 15.9012 16.4 16.7012 17.2 17.7012C17.9 18.6012 18.6 19.6012 19.2 20.6012L20.9 25.2012C21.1 25.7012 21 26.1012 20.7 26.5012C20.4 26.9012 20.1 27.1012 19.6 27.1012H19.4V28.1012H28.8V27.1012H28.6C28.1 27.1012 27.5 26.9012 27 26.6012ZM17.7 16.8012C17.4 16.4012 17.1 16.1012 16.7 15.7012C16 15.0012 15.3 14.4012 14.5 13.8012C13.7 13.3012 12.8 12.8012 11.8 12.5012C10.9 12.2012 9.9 12.0012 8.9 12.0012L12.3 2.30117L17.7 16.8012Z" fill="#DFD2C0"/>
<path d="M46.3998 11.4012C45.4998 10.5012 44.3998 9.80117 43.0998 9.20117C41.8998 8.70117 40.4998 8.40117 39.0998 8.40117C38.4998 8.40117 37.7998 8.50117 37.1998 8.60117C36.6998 8.70117 36.0998 8.80117 35.6998 9.00117V0.701172H28.7998V1.60117H28.9998C29.5998 1.60117 30.0998 1.80117 30.4998 2.20117C30.8998 2.60117 31.0998 3.10117 31.0998 3.70117V28.1012L31.3998 27.9012C31.8998 27.5012 32.5998 27.4012 33.3998 27.4012C33.6998 27.4012 34.0998 27.5012 34.4998 27.6012C34.8998 27.7012 35.3998 27.9012 35.7998 28.0012C36.2998 28.1012 36.7998 28.3012 37.2998 28.4012C37.7998 28.5012 38.3998 28.6012 38.9998 28.6012C40.3998 28.6012 41.7998 28.3012 42.9998 27.8012C44.1998 27.3012 45.2998 26.5012 46.2998 25.6012C47.1998 24.7012 47.9998 23.6012 48.4998 22.4012C48.9998 21.2012 49.2998 19.9012 49.2998 18.5012C49.2998 17.1012 48.9998 15.8012 48.4998 14.6012C48.0998 13.4012 47.2998 12.3012 46.3998 11.4012ZM41.2998 27.0012C40.5998 27.5012 39.8998 27.7012 39.1998 27.7012C38.4998 27.7012 37.8998 27.5012 37.3998 27.2012C36.7998 26.9012 36.2998 26.4012 35.7998 25.8012V11.3012C36.2998 10.7012 36.7998 10.2012 37.3998 9.90117C37.9998 9.60117 38.5998 9.40117 39.2998 9.40117C39.9998 9.40117 40.7998 9.60117 41.3998 10.1012C42.0998 10.6012 42.6998 11.2012 43.1998 12.1012C43.6998 12.9012 44.0998 13.9012 44.3998 15.0012C44.6998 16.1012 44.7998 17.3012 44.7998 18.6012C44.7998 19.9012 44.6998 21.1012 44.3998 22.2012C44.0998 23.3012 43.6998 24.3012 43.1998 25.1012C42.4998 25.8012 41.8998 26.5012 41.2998 27.0012Z" fill="#DFD2C0"/>
<path d="M69.8998 11.4004C68.9998 10.5004 67.8998 9.80039 66.5998 9.20039C65.3998 8.70039 63.9998 8.40039 62.5998 8.40039C61.1998 8.40039 59.7998 8.70039 58.5998 9.20039C57.3998 9.70039 56.2998 10.4004 55.2998 11.4004C54.3998 12.3004 53.5998 13.4004 53.0998 14.6004C52.5998 15.8004 52.2998 17.2004 52.2998 18.5004C52.2998 19.9004 52.5998 21.2004 53.0998 22.4004C53.5998 23.6004 54.3998 24.7004 55.2998 25.6004C56.1998 26.5004 57.2998 27.2004 58.5998 27.8004C59.7998 28.3004 61.1998 28.6004 62.5998 28.6004C63.9998 28.6004 65.3998 28.3004 66.5998 27.8004C67.7998 27.3004 68.8998 26.5004 69.8998 25.6004C70.7998 24.7004 71.5998 23.6004 72.0998 22.4004C72.5998 21.2004 72.8998 19.9004 72.8998 18.5004C72.8998 17.1004 72.5998 15.8004 72.0998 14.6004C71.5998 13.4004 70.7998 12.3004 69.8998 11.4004ZM68.3998 21.1004C68.2998 22.3004 68.0998 23.3004 67.7998 24.2004C67.4998 25.1004 66.9998 25.9004 66.3998 26.5004C65.7998 27.1004 65.1998 27.5004 64.3998 27.6004C63.5998 27.7004 62.8998 27.6004 62.1998 27.3004C61.3998 27.0004 60.6998 26.5004 60.0998 25.7004C59.3998 25.0004 58.8998 24.1004 58.3998 23.1004C57.8998 22.1004 57.4998 20.9004 57.1998 19.7004C56.9998 18.5004 56.8998 17.2004 56.9998 16.1004C57.0998 15.0004 57.2998 13.9004 57.5998 13.0004C57.8998 12.1004 58.3998 11.3004 58.9998 10.7004C59.5998 10.1004 60.1998 9.70039 60.9998 9.60039C61.6998 9.50039 62.4998 9.60039 63.1998 9.90039C63.9998 10.2004 64.6998 10.7004 65.2998 11.5004C65.9998 12.2004 66.5998 13.1004 67.0998 14.1004C67.5998 15.1004 67.9998 16.3004 68.1998 17.5004C68.3998 18.7004 68.4998 19.9004 68.3998 21.1004Z" fill="#DFD2C0"/>
<path d="M94.8998 13.202C94.2998 12.202 93.4998 11.402 92.5998 10.702C91.6998 10.002 90.6998 9.50196 89.5998 9.10196C88.4998 8.70196 87.2998 8.50195 86.0998 8.50195C84.6998 8.50195 83.2998 8.80196 82.0998 9.30196C80.8998 9.80196 79.7998 10.502 78.7998 11.502C77.8998 12.402 77.0998 13.502 76.5998 14.702C76.0998 15.902 75.7998 17.202 75.7998 18.602C75.7998 20.002 76.0998 21.302 76.5998 22.502C77.0998 23.702 77.8998 24.802 78.7998 25.702C79.6998 26.602 80.7998 27.302 82.0998 27.902C83.2998 28.402 84.6998 28.702 86.0998 28.702C86.8998 28.702 87.7998 28.602 88.6998 28.502C89.5998 28.402 90.4998 28.202 91.3998 27.902C92.2998 27.602 93.0998 27.302 93.7998 26.902C94.5998 26.502 95.1998 26.002 95.6998 25.502L95.7998 25.402V18.402H93.7998V18.602C93.7998 21.402 93.0998 23.702 91.7998 25.302C90.4998 26.902 88.5998 27.702 86.1998 27.702C85.4998 27.702 84.6998 27.502 84.0998 27.002C83.3998 26.502 82.7998 25.902 82.2998 25.002C81.7998 24.202 81.3998 23.202 81.0998 22.102C80.7998 21.002 80.6998 19.802 80.6998 18.502C80.6998 18.102 80.6998 17.702 80.6998 17.402C80.6998 17.102 80.6998 16.802 80.7998 16.502H96.3998V16.302V16.202C95.8998 15.202 95.4998 14.202 94.8998 13.202ZM84.2998 9.90195C85.3998 9.30195 86.6998 9.30195 87.8998 9.90195C88.4998 10.202 88.9998 10.702 89.4998 11.202C89.9998 11.802 90.3998 12.502 90.6998 13.302C90.9998 14.002 91.2998 14.802 91.3998 15.702H80.7998C80.9998 14.802 81.1998 14.002 81.5998 13.302C81.8998 12.502 82.2998 11.802 82.7998 11.202C83.1998 10.702 83.7998 10.202 84.2998 9.90195Z" fill="#DFD2C0"/>
<path d="M106.1 27.1012C105.5 27.1012 105 26.9012 104.6 26.5012C104.2 26.1012 104 25.6012 104 25.0012V0.701172H97.1001V1.60117H97.3001C97.9001 1.60117 98.4001 1.80117 98.8001 2.20117C99.2001 2.60117 99.4001 3.10117 99.4001 3.70117V24.9012C99.4001 25.5012 99.2001 26.0012 98.8001 26.4012C98.4001 26.8012 97.9001 27.0012 97.3001 27.0012H97.1001V28.0012H106.3V27.0012H106.1V27.1012Z" fill="#DFD2C0"/>
<path d="M153.8 9.60196C152.9 9.20196 152 8.90195 151.1 8.70195C150.2 8.60195 149.3 8.50195 148.6 8.50195C147.2 8.50195 146 8.70195 145 9.00195C144 9.30195 143 9.80195 142.1 10.402L142 10.502L142.2 14.502L142.5 14.102C142.8 13.702 143.1 13.302 143.5 12.802C143.9 12.302 144.3 11.802 144.9 11.302C145.4 10.802 146 10.402 146.6 10.102C147.2 9.80196 147.9 9.60196 148.6 9.60196C149.7 9.60196 150.5 9.90195 151.3 10.402C152 10.902 152.3 11.702 152.3 12.802V13.802C152.1 14.302 151.9 14.702 151.7 14.902C151.5 15.202 151.2 15.402 150.9 15.502C150.6 15.602 150.3 15.702 150 15.702C149.7 15.702 149.4 15.702 149.1 15.702C147.9 15.702 146.8 15.902 145.7 16.202C144.6 16.502 143.6 17.002 142.8 17.602C142 18.202 141.3 18.902 140.8 19.802C140.3 20.702 140 21.702 140 22.702C140 24.002 140.3 25.102 140.8 25.902C141.3 26.702 142.1 27.402 143 27.902C143.9 28.402 144.9 28.702 146.1 28.802C147.1 28.902 148.1 29.002 149.1 29.002C149.3 29.002 149.4 29.002 149.6 29.002C150.1 29.002 150.7 28.902 151.2 28.702C151.7 28.502 152.2 28.402 152.6 28.202C153.2 27.802 153.9 27.702 154.6 27.702C155.3 27.702 156 27.902 156.6 28.202L156.9 28.402V14.602C156.9 13.302 156.6 12.302 156 11.502C155.4 10.602 154.7 10.002 153.8 9.60196ZM144.9 20.202C145.1 19.502 145.4 18.902 145.9 18.302C146.3 17.802 146.8 17.302 147.4 17.002C148 16.702 148.6 16.502 149.2 16.502C149.8 16.502 150.5 16.402 151.1 16.202C151.6 16.102 152 15.802 152.4 15.402V26.702C152 27.102 151.6 27.402 151.1 27.602C150.6 27.802 150.1 27.902 149.5 28.002C148.9 28.002 148.3 27.902 147.7 27.602C147.1 27.302 146.6 26.902 146.2 26.402C145.8 25.902 145.4 25.302 145.1 24.602C144.8 23.902 144.7 23.202 144.7 22.402C144.6 21.602 144.7 20.902 144.9 20.202Z" fill="#DFD2C0"/>
<path d="M181.4 29.9008C180.8 29.4008 180.1 29.0008 179.2 28.7008C178.4 28.4008 177.4 28.3008 176.4 28.3008C175.5 28.3008 174.5 28.4008 173.6 28.7008C172.8 28.9008 172 29.1008 171.2 29.4008L168.7 30.2008C167.9 30.5008 167.1 30.7008 166.4 30.9008C165.7 31.1008 165.1 31.2008 164.5 31.2008C164.1 31.2008 163.7 31.1008 163.5 31.0008C163.3 30.9008 163.2 30.7008 163.4 30.3008C163.7 29.9008 164 29.5008 164.6 29.1008C165.1 28.7008 165.8 28.3008 166.4 27.9008C167.1 27.5008 167.6 27.2008 168.1 27.0008C168.4 27.0008 168.7 27.1008 169.1 27.1008C169.5 27.1008 169.8 27.2008 170.1 27.2008C171.5 27.2008 172.8 27.0008 174.1 26.5008C175.3 26.1008 176.4 25.4008 177.4 24.7008C178.3 23.9008 179.1 23.0008 179.6 22.0008C180.1 20.9008 180.4 19.8008 180.4 18.6008C180.4 17.5008 180.2 16.5008 179.7 15.5008C179.2 14.5008 178.6 13.7008 177.8 12.9008C177 12.1008 176.1 11.5008 175 11.0008C174 10.5008 172.9 10.2008 171.7 10.1008C171.7 10.0008 171.8 9.80084 171.9 9.60084C172 9.40084 172.2 9.10084 172.4 8.90084C172.6 8.70084 172.8 8.50084 173 8.30084C173.2 8.20084 173.5 8.10084 173.7 8.00084C174.1 8.00084 174.5 8.00084 174.9 8.20084C175.3 8.40084 175.7 8.60084 176 8.90084C176.3 9.20084 176.7 9.50084 176.9 9.90084C177.2 10.2008 177.3 10.5008 177.5 10.8008L177.6 11.1008L179.6 8.70084L179.4 8.60084C178.8 8.20084 178.2 7.90084 177.7 7.70084C177.1 7.50084 176.6 7.30084 176.1 7.20084C175.1 7.00084 174.2 7.00084 173.6 7.10084C172.8 7.20084 172 7.50084 171.2 8.00084C170.4 8.50084 169.7 9.10084 169.1 9.90084C167.8 10.0008 166.6 10.3008 165.5 10.8008C164.4 11.3008 163.4 11.9008 162.5 12.7008C161.7 13.5008 161 14.3008 160.5 15.3008C160 16.3008 159.8 17.4008 159.8 18.5008C159.8 19.4008 160 20.3008 160.3 21.2008C160.6 22.0008 161.1 22.8008 161.7 23.5008C162.3 24.2008 163 24.8008 163.9 25.3008C164.6 25.7008 165.3 26.1008 166.1 26.4008C165.8 26.5008 165.5 26.7008 165.1 26.9008C164.5 27.2008 163.9 27.5008 163.2 27.9008C162.6 28.3008 161.9 28.7008 161.3 29.2008C160.7 29.7008 160.1 30.2008 159.7 30.7008C159.3 31.2008 159 31.8008 158.8 32.4008C158.6 33.0008 158.7 33.6008 159 34.3008C159.3 34.9008 159.6 35.3008 160 35.6008C160.4 35.9008 160.8 36.0008 161.3 36.0008C162 36.0008 162.8 35.8008 163.7 35.3008C164.5 34.9008 165.5 34.3008 166.4 33.7008C167.4 33.1008 168.4 32.4008 169.5 31.8008C170.6 31.2008 171.7 30.6008 172.9 30.2008C173.9 29.9008 174.7 29.7008 175.4 29.7008C176.4 29.7008 177.2 30.0008 177.7 30.6008C178.2 31.2008 178.5 32.1008 178.6 33.3008C178.6 34.0008 178.5 34.8008 178.3 35.5008C178.1 36.2008 177.7 36.9008 177.3 37.4008C176.9 38.0008 176.3 38.4008 175.7 38.8008C175.1 39.1008 174.4 39.3008 173.7 39.3008C173.4 39.3008 173.1 39.2008 172.8 39.0008C172.5 38.8008 172.2 38.6008 171.9 38.3008C171.6 38.0008 171.4 37.7008 171.2 37.3008C171 36.9008 170.8 36.5008 170.6 36.2008C170.2 35.3008 169.8 34.2008 169.5 33.1008L169.4 32.8008L166.3 34.8008L166.4 34.9008C166.6 35.5008 167 36.1008 167.5 36.7008C168 37.3008 168.5 37.9008 169.1 38.5008C169.7 39.0008 170.4 39.5008 171.1 39.8008C171.8 40.2008 172.6 40.4008 173.3 40.4008C174 40.4008 174.9 40.3008 175.8 40.1008C176.8 39.9008 177.7 39.6008 178.6 39.1008C179.5 38.6008 180.4 38.0008 181.1 37.3008C181.9 36.5008 182.4 35.6008 182.6 34.5008C182.8 33.6008 182.8 32.7008 182.6 32.0008C182.4 31.1008 182 30.4008 181.4 29.9008ZM172.5 25.7008C171.8 26.1008 171.1 26.3008 170.3 26.3008C169.5 26.3008 168.8 26.1008 168.1 25.7008C167.4 25.3008 166.8 24.8008 166.3 24.1008C165.8 23.4008 165.4 22.6008 165.1 21.6008C164.8 20.7008 164.7 19.6008 164.7 18.6008C164.7 17.5008 164.8 16.5008 165.1 15.6008C165.4 14.7008 165.8 13.8008 166.3 13.1008C166.8 12.4008 167.4 11.9008 168.1 11.5008C168.8 11.1008 169.5 10.9008 170.3 10.9008C171.1 10.9008 171.8 11.1008 172.5 11.5008C173.2 11.9008 173.8 12.4008 174.3 13.1008C174.8 13.8008 175.2 14.6008 175.5 15.6008C175.8 16.5008 175.9 17.6008 175.9 18.6008C175.9 19.7008 175.8 20.7008 175.5 21.6008C175.2 22.5008 174.8 23.4008 174.3 24.1008C173.8 24.7008 173.2 25.3008 172.5 25.7008Z" fill="#DFD2C0"/>
<path d="M194.2 0.701172V1.70117H194.4C195 1.70117 195.5 1.90117 195.9 2.30117C196.3 2.70117 196.5 3.20117 196.5 3.80117V9.00117C196 8.80117 195.5 8.70117 195 8.60117C194.4 8.50117 193.7 8.40117 193.1 8.40117C191.7 8.40117 190.3 8.70117 189.1 9.20117C187.8 9.70117 186.7 10.4012 185.8 11.4012C184.9 12.3012 184.1 13.4012 183.6 14.6012C183.1 15.8012 182.8 17.2012 182.8 18.5012C182.8 19.9012 183.1 21.2012 183.6 22.4012C184.1 23.6012 184.9 24.7012 185.8 25.6012C186.7 26.5012 187.8 27.2012 189.1 27.8012C190.3 28.3012 191.7 28.6012 193.1 28.6012C193.7 28.6012 194.3 28.5012 194.8 28.4012C195.3 28.3012 195.9 28.1012 196.3 28.0012C196.7 27.9012 197.2 27.7012 197.6 27.6012C198 27.5012 198.4 27.4012 198.7 27.4012C199.5 27.4012 200.2 27.6012 200.7 27.9012L201 28.1012V0.701172H194.2ZM191 10.1012C191.7 9.60117 192.4 9.40117 193.1 9.40117C193.8 9.40117 194.4 9.60117 195 9.90117C195.6 10.2012 196.1 10.7012 196.5 11.3012V25.8012C196 26.4012 195.5 26.8012 195 27.2012C194.4 27.5012 193.8 27.7012 193.1 27.7012C192.4 27.7012 191.6 27.5012 191 27.0012C190.3 26.5012 189.7 25.9012 189.2 25.1012C188.7 24.3012 188.3 23.3012 188 22.2012C187.7 21.1012 187.6 19.9012 187.6 18.6012C187.6 17.3012 187.7 16.1012 188 15.0012C188.3 13.9012 188.7 12.9012 189.2 12.1012C189.7 11.2012 190.3 10.5012 191 10.1012Z" fill="#DFD2C0"/>
<path d="M66.8 43.6C66.7 43.6 66.6 43.6 66.6 43.5C66.5 43.5 66.5 43.4 66.5 43.3C66.5 43.2 66.5 43.2 66.6 43.1C66.7 43.1 66.7 43 66.8 43C66.9 43 67 43 67 43.1C67.1 43.1 67.1 43.2 67.1 43.3C67.1 43.4 67.1 43.4 67 43.5C67 43.6 66.9 43.6 66.8 43.6ZM66.6 47V43.9H66.7H66.8H66.9H67V47H66.6Z" fill="#DFD2C0"/>
<path d="M68.3999 47.0004V43.9004H68.7999V44.5004C68.8999 44.4004 68.8999 44.3004 69.0999 44.2004C69.2999 44.1004 69.3999 44.0004 69.4999 44.0004C69.6999 43.9004 69.7999 43.9004 69.9999 43.9004C70.3999 43.9004 70.7999 44.0004 70.9999 44.2004C71.1999 44.4004 71.3999 44.7004 71.3999 45.1004V47.0004H70.9999V45.1004C70.9999 44.8004 70.8999 44.6004 70.6999 44.4004C70.4999 44.2004 70.2999 44.2004 69.8999 44.2004C69.6999 44.2004 69.4999 44.2004 69.2999 44.3004C69.0999 44.4004 68.9999 44.5004 68.8999 44.6004C68.7999 44.7004 68.6999 44.8004 68.6999 45.0004V47.1004H68.3999V47.0004Z" fill="#DFD2C0"/>
<path d="M73.7998 47.1012C73.4998 47.1012 73.2998 47.0012 73.0998 46.9012C72.8998 46.8012 72.8998 46.5012 72.8998 46.2012V44.3012H72.2998V43.9012H72.6998C72.7998 43.9012 72.8998 43.9012 72.8998 43.8012C72.8998 43.8012 72.9998 43.7012 72.9998 43.6012V43.2012H73.3998V43.9012H74.2998V44.2012H73.3998V46.1012C73.3998 46.3012 73.3998 46.4012 73.4998 46.5012C73.5998 46.6012 73.6998 46.7012 73.8998 46.7012C73.9998 46.7012 74.1998 46.7012 74.2998 46.6012V47.0012C74.1998 47.0012 74.1998 47.0012 74.0998 47.1012C73.9998 47.1012 73.8998 47.1012 73.7998 47.1012Z" fill="#DFD2C0"/>
<path d="M77.0002 47.1004C76.6002 47.1004 76.3002 47.0004 76.0002 46.9004C75.7002 46.8004 75.5002 46.6004 75.4002 46.3004C75.3002 46.1004 75.2002 45.8004 75.2002 45.5004C75.2002 45.2004 75.3002 44.9004 75.4002 44.7004C75.5002 44.5004 75.7002 44.3004 76.0002 44.1004C76.3002 44.0004 76.5002 43.9004 76.9002 43.9004C77.2002 43.9004 77.5002 44.0004 77.8002 44.1004C78.0002 44.2004 78.2002 44.4004 78.4002 44.7004C78.5002 44.9004 78.6002 45.2004 78.6002 45.5004V45.7004H75.7002C75.7002 45.9004 75.8002 46.1004 75.9002 46.3004C76.0002 46.5004 76.2002 46.6004 76.4002 46.7004C76.6002 46.8004 76.9002 46.8004 77.1002 46.8004C77.4002 46.8004 77.6002 46.8004 77.8002 46.7004C78.0002 46.6004 78.2002 46.5004 78.3002 46.4004V46.8004C78.2002 46.9004 78.0002 47.0004 77.8002 47.0004C77.5002 47.0004 77.2002 47.1004 77.0002 47.1004ZM78.1002 45.3004C78.1002 45.1004 78.0002 44.9004 77.9002 44.8004C77.8002 44.6004 77.7002 44.5004 77.5002 44.4004C77.3002 44.3004 77.1002 44.3004 76.9002 44.3004C76.7002 44.3004 76.4002 44.3004 76.2002 44.4004C76.0002 44.5004 75.9002 44.6004 75.7002 44.8004C75.6002 45.0004 75.5002 45.2004 75.5002 45.4004H78.1002V45.3004Z" fill="#DFD2C0"/>
<path d="M79.7002 47.0004V43.9004H80.1002V44.5004C80.2002 44.4004 80.2002 44.3004 80.3002 44.2004C80.4002 44.1004 80.5002 44.0004 80.7002 44.0004C80.8002 43.9004 81.0002 43.9004 81.2002 43.9004H81.5002V44.3004H81.2002C81.0002 44.3004 80.8002 44.3004 80.7002 44.4004C80.5002 44.5004 80.4002 44.6004 80.3002 44.7004C80.2002 44.8004 80.1002 44.9004 80.1002 45.0004V47.1004H79.7002V47.0004Z" fill="#DFD2C0"/>
<path d="M82.3999 47.0004V43.9004H82.7999V44.5004C82.8999 44.4004 82.8999 44.3004 83.0999 44.2004C83.2999 44.1004 83.3999 44.0004 83.4999 44.0004C83.6999 43.9004 83.7999 43.9004 83.9999 43.9004C84.3999 43.9004 84.7999 44.0004 84.9999 44.2004C85.1999 44.4004 85.3999 44.7004 85.3999 45.1004V47.0004H84.9999V45.1004C84.9999 44.8004 84.8999 44.6004 84.6999 44.4004C84.4999 44.2004 84.2999 44.2004 83.8999 44.2004C83.6999 44.2004 83.4999 44.2004 83.2999 44.3004C83.0999 44.4004 82.9999 44.5004 82.8999 44.6004C82.7999 44.7004 82.6999 44.8004 82.6999 45.0004V47.1004H82.3999V47.0004Z" fill="#DFD2C0"/>
<path d="M87.8001 47.1008C87.4001 47.1008 87.1001 47.0008 86.9001 46.9008C86.7001 46.8008 86.6001 46.5008 86.6001 46.2008C86.6001 45.9008 86.7001 45.7008 87.0001 45.5008C87.2001 45.3008 87.6001 45.2008 88.2001 45.2008C88.5001 45.2008 88.8001 45.2008 89.0001 45.1008C89.2001 45.1008 89.3001 45.0008 89.4001 45.0008C89.5001 45.0008 89.5001 44.9008 89.5001 44.7008C89.5001 44.6008 89.5001 44.5008 89.4001 44.4008C89.3001 44.3008 89.2001 44.3008 89.0001 44.2008C88.8001 44.1008 88.6001 44.1008 88.3001 44.1008C88.0001 44.1008 87.7001 44.1008 87.5001 44.2008C87.2001 44.3008 87.0001 44.4008 86.9001 44.5008V44.1008C87.0001 44.0008 87.2001 43.9008 87.5001 43.9008C87.8001 43.8008 88.1001 43.8008 88.4001 43.8008C88.8001 43.8008 89.0001 43.8008 89.3001 43.9008C89.5001 44.0008 89.7001 44.1008 89.8001 44.2008C89.9001 44.3008 90.0001 44.5008 90.0001 44.7008V46.9008H89.6001V46.4008C89.5001 46.5008 89.4001 46.6008 89.2001 46.7008C89.0001 46.8008 88.9001 46.9008 88.7001 46.9008C88.3001 47.1008 88.1001 47.1008 87.8001 47.1008ZM87.9001 46.7008C88.1001 46.7008 88.3001 46.7008 88.5001 46.6008C88.7001 46.5008 88.9001 46.5008 89.0001 46.4008C89.1001 46.3008 89.2001 46.2008 89.3001 46.1008V45.2008C89.3001 45.2008 89.2001 45.3008 89.1001 45.3008C89.0001 45.3008 88.9001 45.4008 88.7001 45.4008C88.5001 45.4008 88.3001 45.4008 88.0001 45.4008C87.6001 45.4008 87.3001 45.5008 87.2001 45.6008C87.0001 45.7008 86.9001 45.9008 86.9001 46.1008C86.9001 46.3008 87.0001 46.4008 87.1001 46.5008C87.4001 46.7008 87.6001 46.7008 87.9001 46.7008Z" fill="#DFD2C0"/>
<path d="M92.2002 47.1012C91.9002 47.1012 91.7002 47.0012 91.5002 46.9012C91.3002 46.8012 91.3002 46.5012 91.3002 46.2012V44.3012H90.7002V43.9012H91.0002C91.1002 43.9012 91.2002 43.9012 91.2002 43.8012C91.2002 43.8012 91.3002 43.7012 91.3002 43.6012V43.2012H91.7002V43.9012H92.6002V44.2012H91.7002V46.1012C91.7002 46.3012 91.7002 46.4012 91.8002 46.5012C91.9002 46.6012 92.0002 46.7012 92.2002 46.7012C92.3002 46.7012 92.5002 46.7012 92.6002 46.6012V47.0012C92.5002 47.0012 92.5002 47.0012 92.4002 47.1012C92.4002 47.1012 92.3002 47.1012 92.2002 47.1012Z" fill="#DFD2C0"/>
<path d="M94.0002 43.6C93.9002 43.6 93.8002 43.6 93.8002 43.5C93.7002 43.5 93.7002 43.4 93.7002 43.3C93.7002 43.2 93.7002 43.2 93.8002 43.1C93.9002 43.1 93.9002 43 94.0002 43C94.1002 43 94.2002 43 94.2002 43.1C94.3002 43.1 94.3002 43.2 94.3002 43.3C94.3002 43.4 94.3002 43.4 94.2002 43.5C94.1002 43.6 94.1002 43.6 94.0002 43.6ZM93.8002 47V43.9H93.9002H94.0002H94.1002H94.2002V47H93.8002Z" fill="#DFD2C0"/>
<path d="M97.2999 47.1004C96.8999 47.1004 96.5999 47.0004 96.2999 46.9004C95.9999 46.8004 95.7999 46.6004 95.5999 46.3004C95.3999 46.1004 95.3999 45.8004 95.3999 45.5004C95.3999 45.2004 95.4999 44.9004 95.5999 44.7004C95.7999 44.5004 95.9999 44.3004 96.2999 44.1004C96.5999 44.0004 96.8999 43.9004 97.2999 43.9004C97.6999 43.9004 97.9999 44.0004 98.2999 44.1004C98.5999 44.2004 98.7999 44.4004 98.9999 44.7004C99.1999 44.9004 99.1999 45.2004 99.1999 45.5004C99.1999 45.8004 99.0999 46.1004 98.9999 46.3004C98.7999 46.5004 98.5999 46.7004 98.2999 46.9004C97.9999 47.0004 97.5999 47.1004 97.2999 47.1004ZM97.2999 46.7004C97.5999 46.7004 97.8999 46.6004 98.0999 46.5004C98.2999 46.4004 98.4999 46.2004 98.5999 46.1004C98.6999 46.0004 98.7999 45.7004 98.7999 45.4004C98.7999 45.1004 98.6999 44.9004 98.5999 44.7004C98.4999 44.5004 98.2999 44.4004 98.0999 44.3004C97.8999 44.2004 97.5999 44.1004 97.2999 44.1004C96.9999 44.1004 96.6999 44.2004 96.4999 44.3004C96.2999 44.4004 96.0999 44.6004 95.9999 44.7004C95.8999 44.8004 95.7999 45.1004 95.7999 45.4004C95.7999 45.6004 95.8999 45.9004 95.9999 46.1004C96.0999 46.3004 96.2999 46.4004 96.4999 46.5004C96.6999 46.7004 96.9999 46.7004 97.2999 46.7004Z" fill="#DFD2C0"/>
<path d="M100.4 47.0004V43.9004H100.8V44.5004C100.9 44.4004 100.9 44.3004 101.1 44.2004C101.3 44.1004 101.4 44.0004 101.5 44.0004C101.7 43.9004 101.8 43.9004 102 43.9004C102.4 43.9004 102.8 44.0004 103 44.2004C103.2 44.4004 103.4 44.7004 103.4 45.1004V47.0004H103V45.1004C103 44.8004 102.9 44.6004 102.7 44.4004C102.5 44.2004 102.3 44.2004 101.9 44.2004C101.7 44.2004 101.5 44.2004 101.3 44.3004C101.1 44.4004 101 44.5004 100.9 44.6004C100.8 44.7004 100.7 44.8004 100.7 45.0004V47.1004H100.4V47.0004Z" fill="#DFD2C0"/>
<path d="M105.8 47.1008C105.4 47.1008 105.1 47.0008 104.9 46.9008C104.7 46.8008 104.6 46.5008 104.6 46.2008C104.6 45.9008 104.7 45.7008 105 45.5008C105.2 45.3008 105.6 45.2008 106.2 45.2008C106.5 45.2008 106.8 45.2008 107 45.1008C107.2 45.1008 107.3 45.0008 107.4 45.0008C107.5 45.0008 107.5 44.9008 107.5 44.7008C107.5 44.6008 107.5 44.5008 107.4 44.4008C107.3 44.3008 107.2 44.3008 107 44.2008C106.8 44.1008 106.6 44.1008 106.3 44.1008C106 44.1008 105.7 44.1008 105.5 44.2008C105.2 44.3008 105 44.4008 104.9 44.5008V44.1008C105 44.0008 105.2 43.9008 105.5 43.9008C105.8 43.8008 106.1 43.8008 106.4 43.8008C106.8 43.8008 107 43.8008 107.3 43.9008C107.5 44.0008 107.7 44.1008 107.8 44.2008C107.9 44.3008 108 44.5008 108 44.7008V46.9008H107.6V46.4008C107.5 46.5008 107.4 46.6008 107.2 46.7008C107 46.8008 106.9 46.9008 106.7 46.9008C106.2 47.1008 106 47.1008 105.8 47.1008ZM105.9 46.7008C106.1 46.7008 106.3 46.7008 106.5 46.6008C106.7 46.5008 106.9 46.5008 107 46.4008C107.1 46.3008 107.2 46.2008 107.3 46.1008V45.2008C107.3 45.2008 107.2 45.3008 107.1 45.3008C107 45.3008 106.9 45.4008 106.7 45.4008C106.5 45.4008 106.3 45.4008 106 45.4008C105.6 45.4008 105.3 45.5008 105.2 45.6008C105 45.7008 104.9 45.9008 104.9 46.1008C104.9 46.3008 105 46.4008 105.1 46.5008C105.3 46.7008 105.6 46.7008 105.9 46.7008Z" fill="#DFD2C0"/>
<path d="M109.1 47.0004V42.9004H109.5V47.0004H109.1Z" fill="#DFD2C0"/>
<path d="M114.1 47.1012C113.8 47.1012 113.6 47.0012 113.4 46.9012C113.2 46.7012 113.2 46.5012 113.2 46.2012V44.3012H112.6V43.9012H113C113.1 43.9012 113.2 43.9012 113.2 43.8012C113.2 43.8012 113.3 43.7012 113.3 43.6012V43.2012H113.7V43.9012H114.6V44.2012H113.7V46.1012C113.7 46.3012 113.7 46.4012 113.8 46.5012C113.9 46.6012 114 46.7012 114.2 46.7012C114.3 46.7012 114.5 46.7012 114.6 46.6012V47.0012C114.5 47.0012 114.5 47.0012 114.4 47.1012C114.2 47.1012 114.2 47.1012 114.1 47.1012Z" fill="#DFD2C0"/>
<path d="M115.6 47.0004V43.9004H116V44.5004C116.1 44.4004 116.1 44.3004 116.2 44.2004C116.3 44.1004 116.4 44.0004 116.6 44.0004C116.7 43.9004 116.9 43.9004 117.1 43.9004H117.4V44.3004H117.1C116.9 44.3004 116.7 44.3004 116.6 44.4004C116.4 44.5004 116.3 44.6004 116.2 44.7004C116.1 44.8004 116 44.9004 116 45.0004V47.1004H115.6V47.0004Z" fill="#DFD2C0"/>
<path d="M119.2 47.1008C118.8 47.1008 118.5 47.0008 118.3 46.9008C118.1 46.8008 118 46.5008 118 46.2008C118 45.9008 118.1 45.7008 118.4 45.5008C118.6 45.3008 119 45.2008 119.6 45.2008C119.9 45.2008 120.2 45.2008 120.4 45.1008C120.6 45.1008 120.7 45.0008 120.8 45.0008C120.9 45.0008 120.9 44.9008 120.9 44.7008C120.9 44.6008 120.9 44.5008 120.8 44.4008C120.7 44.3008 120.6 44.3008 120.4 44.2008C120.2 44.1008 120 44.1008 119.7 44.1008C119.4 44.1008 119.1 44.1008 118.9 44.2008C118.6 44.3008 118.4 44.4008 118.3 44.5008V44.1008C118.4 44.0008 118.6 43.9008 118.9 43.9008C119.2 43.8008 119.5 43.8008 119.8 43.8008C120.2 43.8008 120.4 43.8008 120.7 43.9008C120.9 44.0008 121.1 44.1008 121.2 44.2008C121.3 44.3008 121.4 44.5008 121.4 44.7008V46.9008H121V46.4008C120.9 46.5008 120.8 46.6008 120.6 46.7008C120.4 46.8008 120.3 46.9008 120.1 46.9008C119.7 47.1008 119.5 47.1008 119.2 47.1008ZM119.3 46.7008C119.5 46.7008 119.7 46.7008 119.9 46.6008C120.1 46.5008 120.3 46.5008 120.4 46.4008C120.5 46.3008 120.6 46.2008 120.7 46.1008V45.2008C120.7 45.2008 120.6 45.3008 120.5 45.3008C120.4 45.3008 120.3 45.4008 120.1 45.4008C119.9 45.4008 119.7 45.4008 119.4 45.4008C119 45.4008 118.7 45.5008 118.6 45.6008C118.4 45.7008 118.3 45.9008 118.3 46.1008C118.3 46.3008 118.4 46.4008 118.5 46.5008C118.8 46.7008 119 46.7008 119.3 46.7008Z" fill="#DFD2C0"/>
<path d="M122.7 43.6C122.6 43.6 122.5 43.6 122.5 43.5C122.4 43.5 122.4 43.4 122.4 43.3C122.4 43.2 122.4 43.2 122.5 43.1C122.6 43.1 122.6 43 122.7 43C122.8 43 122.9 43 122.9 43.1C123 43.1 123 43.2 123 43.3C123 43.4 123 43.4 122.9 43.5C122.9 43.6 122.8 43.6 122.7 43.6ZM122.5 47V43.9H122.6H122.7H122.8H122.9V47H122.5Z" fill="#DFD2C0"/>
<path d="M124.3 47.0004V43.9004H124.7V44.5004C124.8 44.4004 124.8 44.3004 125 44.2004C125.2 44.1004 125.3 44.0004 125.4 44.0004C125.6 43.9004 125.7 43.9004 125.9 43.9004C126.3 43.9004 126.7 44.0004 126.9 44.2004C127.1 44.4004 127.3 44.7004 127.3 45.1004V47.0004H126.9V45.1004C126.9 44.8004 126.8 44.6004 126.6 44.4004C126.4 44.2004 126.2 44.2004 125.8 44.2004C125.6 44.2004 125.4 44.2004 125.2 44.3004C125 44.4004 124.9 44.5004 124.8 44.6004C124.7 44.7004 124.6 44.8004 124.6 45.0004V47.1004H124.3V47.0004Z" fill="#DFD2C0"/>
<path d="M130.4 47.1004C130 47.1004 129.7 47.0004 129.4 46.9004C129.1 46.8004 128.9 46.6004 128.8 46.3004C128.7 46.1004 128.6 45.8004 128.6 45.5004C128.6 45.2004 128.7 44.9004 128.8 44.7004C128.9 44.5004 129.1 44.3004 129.4 44.1004C129.7 44.0004 129.9 43.9004 130.3 43.9004C130.6 43.9004 130.9 44.0004 131.2 44.1004C131.4 44.2004 131.6 44.4004 131.8 44.7004C131.9 44.9004 132 45.2004 132 45.5004V45.7004H129.1C129.1 45.9004 129.2 46.1004 129.3 46.3004C129.4 46.5004 129.6 46.6004 129.8 46.7004C130 46.8004 130.3 46.8004 130.5 46.8004C130.8 46.8004 131 46.8004 131.2 46.7004C131.4 46.6004 131.6 46.5004 131.7 46.4004V46.8004C131.6 46.9004 131.4 47.0004 131.2 47.0004C130.9 47.0004 130.6 47.1004 130.4 47.1004ZM131.5 45.3004C131.5 45.1004 131.4 44.9004 131.3 44.8004C131.2 44.6004 131.1 44.5004 130.9 44.4004C130.7 44.3004 130.5 44.3004 130.3 44.3004C130.1 44.3004 129.8 44.3004 129.6 44.4004C129.4 44.5004 129.3 44.6004 129.1 44.8004C129 45.0004 128.9 45.2004 128.9 45.4004H131.5V45.3004Z" fill="#DFD2C0"/>
<path d="M133.1 47.0004V43.9004H133.5V44.5004C133.6 44.4004 133.6 44.3004 133.7 44.2004C133.8 44.1004 133.9 44.0004 134.1 44.0004C134.2 43.9004 134.4 43.9004 134.6 43.9004H134.9V44.3004H134.6C134.4 44.3004 134.2 44.3004 134.1 44.4004C133.9 44.5004 133.8 44.6004 133.7 44.7004C133.6 44.8004 133.5 44.9004 133.5 45.0004V47.1004H133.1V47.0004Z" fill="#DFD2C0"/>
<path d="M137.3 27.0008C136.7 27.0008 136.2 26.8008 135.8 26.4008C135.4 26.0008 135.2 25.6008 135.2 25.1008V9.10078C135.3 8.70078 135.5 8.30078 135.8 8.00078C136.2 7.60078 136.7 7.40078 137.3 7.40078H137.6V6.30078H131L124.1 21.9008L117.2 7.40078C117 6.80078 116.6 6.60078 116.2 6.60078C116.2 6.60078 115.9 6.60078 115.5 6.60078C114.9 6.60078 114.6 6.60078 113.7 6.60078H109.3V7.60078H109.6C110 7.60078 110.4 7.70078 110.8 7.90078C111.1 8.10078 111.4 8.30078 111.6 8.70078V8.80078C111.7 9.10078 111.8 9.30078 111.8 9.50078V9.60078V9.80078V25.2008C111.8 25.7008 111.6 26.1008 111.2 26.5008C110.8 26.9008 110.3 27.1008 109.7 27.1008H109.4V28.2008H115.7V27.1008H115.4C114.8 27.1008 114.3 26.9008 113.9 26.5008C113.5 26.1008 113.3 25.7008 113.3 25.2008V10.1008L121.7 28.1008C121.9 28.4008 122.1 28.5008 122.2 28.5008H122.3C122.6 28.5008 122.8 28.4008 122.9 28.1008L130.9 10.1008V25.5008C130.8 25.9008 130.7 26.3008 130.3 26.6008C129.9 27.0008 129.4 27.2008 128.8 27.2008H128.5V28.3008H137.7V27.2008H137.3V27.0008Z" fill="#DFD2C0"/>
</svg>
