<svg width="137" height="53" viewBox="0 0 137 53" fill="none" xmlns="http://www.w3.org/2000/svg">
<path d="M18.403 38.9726C18.0622 38.77 17.7895 38.4323 17.6532 38.027L11.3826 21.4785H5.92985V22.0864H6.06617C6.6796 22.0864 7.08855 22.2215 7.29303 22.5592C7.49751 22.897 7.42935 23.3698 7.22487 23.9777L1.8403 38.027C1.63582 38.4998 1.43134 38.77 1.15871 38.9726C0.886069 39.1753 0.545273 39.2428 0.0681592 39.2428H0V39.9183H3.54428V39.2428H3.40796C3.06716 39.2428 2.79453 39.1753 2.59005 38.9726C2.38557 38.77 2.31741 38.5674 2.45373 38.2296L5.86169 29.719C6.61144 29.719 7.36119 29.8541 8.04278 30.1243C8.72438 30.3944 9.40597 30.7997 10.0194 31.2725C10.6328 31.7453 11.1781 32.2857 11.7234 32.9611C12.2005 33.569 12.6776 34.2445 13.0866 34.9199L14.2453 38.027C14.3816 38.3647 14.3134 38.6349 14.109 38.9051C13.9045 39.1753 13.7 39.3104 13.3592 39.3104H13.2229V39.9858H19.6298V39.3104H19.4935C19.1527 39.3104 18.7438 39.1753 18.403 38.9726ZM12.0642 32.3532C11.8597 32.0831 11.6552 31.8804 11.3826 31.6102C10.9055 31.1374 10.4284 30.7322 9.88308 30.3269C9.33781 29.9892 8.72438 29.6514 8.04278 29.4488C7.42935 29.2462 6.74776 29.1111 6.06617 29.1111L8.38358 22.5592L12.0642 32.3532Z" fill="#DFD2C0"/>
<path d="M31.6249 28.7058C31.0115 28.0979 30.2617 27.6251 29.3757 27.2198C28.5578 26.8821 27.6035 26.6795 26.6493 26.6795C26.2403 26.6795 25.7632 26.747 25.3543 26.8146C25.0135 26.8821 24.6045 26.9496 24.3319 27.0847V21.4785H19.6289V22.0864H19.7652C20.1742 22.0864 20.515 22.2215 20.7876 22.4917C21.0602 22.7619 21.1966 23.0996 21.1966 23.5049V39.9858L21.401 39.8507C21.7418 39.5805 22.219 39.513 22.7642 39.513C22.9687 39.513 23.2413 39.5805 23.514 39.6481C23.7866 39.7156 24.1274 39.8507 24.4 39.9183C24.7408 39.9858 25.0816 40.1209 25.4224 40.1884C25.7632 40.256 26.1722 40.3235 26.5811 40.3235C27.5354 40.3235 28.4896 40.1209 29.3075 39.7832C30.1254 39.4455 30.8752 38.9051 31.5568 38.2972C32.1702 37.6893 32.7155 36.9463 33.0563 36.1358C33.3971 35.3252 33.6015 34.4471 33.6015 33.5015C33.6015 32.5559 33.3971 31.6778 33.0563 30.8673C32.7836 30.0567 32.2384 29.3137 31.6249 28.7058ZM28.1488 39.2428C27.6717 39.5805 27.1946 39.7156 26.7175 39.7156C26.2403 39.7156 25.8314 39.5805 25.4906 39.3779C25.0816 39.1753 24.7408 38.8375 24.4 38.4323V28.6383C24.7408 28.233 25.0816 27.8953 25.4906 27.6926C25.8996 27.49 26.3085 27.3549 26.7856 27.3549C27.2627 27.3549 27.808 27.49 28.217 27.8277C28.6941 28.1655 29.103 28.5707 29.4438 29.1786C29.7846 29.719 30.0573 30.3944 30.2617 31.1374C30.4662 31.8804 30.5344 32.691 30.5344 33.569C30.5344 34.4471 30.4662 35.2577 30.2617 36.0007C30.0573 36.7437 29.7846 37.4191 29.4438 37.9595C28.9667 38.4323 28.5578 38.9051 28.1488 39.2428Z" fill="#DFD2C0"/>
<path d="M47.6425 28.706C47.0291 28.0981 46.2793 27.6253 45.3932 27.22C44.5753 26.8823 43.6211 26.6797 42.6669 26.6797C41.7126 26.6797 40.7584 26.8823 39.9405 27.22C39.1226 27.5578 38.3729 28.0306 37.6913 28.706C37.0778 29.3139 36.5326 30.0569 36.1918 30.8675C35.851 31.678 35.6465 32.6236 35.6465 33.5017C35.6465 34.4473 35.851 35.3254 36.1918 36.136C36.5326 36.9465 37.0778 37.6895 37.6913 38.2974C38.3047 38.9053 39.0544 39.3781 39.9405 39.7834C40.7584 40.1211 41.7126 40.3237 42.6669 40.3237C43.6211 40.3237 44.5753 40.1211 45.3932 39.7834C46.2112 39.4457 46.9609 38.9053 47.6425 38.2974C48.2559 37.6895 48.8012 36.9465 49.142 36.136C49.4828 35.3254 49.6873 34.4473 49.6873 33.5017C49.6873 32.5561 49.4828 31.678 49.142 30.8675C48.8012 30.0569 48.2559 29.3139 47.6425 28.706ZM46.6201 35.2579C46.552 36.0684 46.4156 36.7439 46.2112 37.3518C46.0067 37.9597 45.6659 38.5 45.2569 38.9053C44.848 39.3106 44.439 39.5808 43.8937 39.6483C43.3485 39.7158 42.8714 39.6483 42.3942 39.4457C41.849 39.243 41.3719 38.9053 40.9629 38.3649C40.4858 37.8921 40.145 37.2842 39.8042 36.6088C39.4634 35.9333 39.1908 35.1228 38.9863 34.3123C38.85 33.5017 38.7818 32.6236 38.85 31.8806C38.9181 31.1376 39.0544 30.3947 39.2589 29.7867C39.4634 29.1788 39.8042 28.6385 40.2131 28.2332C40.6221 27.8279 41.0311 27.5578 41.5763 27.4902C42.0534 27.4227 42.5987 27.4902 43.0758 27.6929C43.6211 27.8955 44.0982 28.2332 44.5072 28.7736C44.9843 29.2464 45.3932 29.8543 45.734 30.5297C46.0748 31.2052 46.3475 32.0157 46.4838 32.8263C46.6201 33.6368 46.6883 34.4473 46.6201 35.2579Z" fill="#DFD2C0"/>
<path d="M64.6844 29.9227C64.2755 29.2472 63.7302 28.7068 63.1168 28.234C62.5033 27.7612 61.8217 27.4235 61.072 27.1533C60.3222 26.8831 59.5043 26.748 58.6864 26.748C57.7322 26.748 56.778 26.9507 55.96 27.2884C55.1421 27.6261 54.3924 28.0989 53.7108 28.7744C53.0974 29.3823 52.5521 30.1253 52.2113 30.9358C51.8705 31.7464 51.666 32.6245 51.666 33.5701C51.666 34.5157 51.8705 35.3938 52.2113 36.2043C52.5521 37.0149 53.0974 37.7579 53.7108 38.3658C54.3242 38.9737 55.074 39.4465 55.96 39.8517C56.778 40.1895 57.7322 40.3921 58.6864 40.3921C59.2317 40.3921 59.8451 40.3246 60.4585 40.257C61.072 40.1895 61.6854 40.0544 62.2988 39.8517C62.9123 39.6491 63.4576 39.4465 63.9347 39.1763C64.4799 38.9061 64.8889 38.5684 65.2297 38.2307L65.2978 38.1631V33.435H63.9347V33.5701C63.9347 35.4613 63.4576 37.0149 62.5715 38.0956C61.6854 39.1763 60.3904 39.7167 58.7546 39.7167C58.2775 39.7167 57.7322 39.5816 57.3232 39.2438C56.8461 38.9061 56.4372 38.5009 56.0964 37.8929C55.7556 37.3526 55.4829 36.6771 55.2784 35.9341C55.074 35.1912 55.0058 34.3806 55.0058 33.5025C55.0058 33.2324 55.0058 32.9622 55.0058 32.7595C55.0058 32.5569 55.0058 32.3543 55.074 32.1516H65.7068V32.0165V31.949C65.366 31.2736 65.0934 30.5981 64.6844 29.9227ZM57.4595 27.6937C58.2093 27.2884 59.0954 27.2884 59.9133 27.6937C60.3222 27.8963 60.663 28.234 61.0038 28.5718C61.3446 28.977 61.6173 29.4498 61.8217 29.9902C62.0262 30.463 62.2307 31.0034 62.2988 31.6113H55.074C55.2103 31.0034 55.3466 30.463 55.6192 29.9902C55.8237 29.4498 56.0964 28.977 56.4372 28.5718C56.7098 28.234 57.1187 27.8963 57.4595 27.6937Z" fill="#DFD2C0"/>
<path d="M72.3179 39.3104C71.909 39.3104 71.5682 39.1753 71.2955 38.9051C71.0229 38.6349 70.8866 38.2972 70.8866 37.8919V21.4785H66.1836V22.0864H66.3199C66.7289 22.0864 67.0697 22.2215 67.3423 22.4917C67.6149 22.7619 67.7513 23.0996 67.7513 23.5049V37.8244C67.7513 38.2296 67.6149 38.5674 67.3423 38.8375C67.0697 39.1077 66.7289 39.2428 66.3199 39.2428H66.1836V39.9183H72.4542V39.2428H72.3179V39.3104Z" fill="#DFD2C0"/>
<path d="M104.828 27.491C104.214 27.2209 103.601 27.0182 102.988 26.8831C102.374 26.8156 101.761 26.748 101.284 26.748C100.329 26.748 99.5114 26.8831 98.8298 27.0858C98.1482 27.2884 97.4667 27.6261 96.8532 28.0314L96.7851 28.0989L96.9214 30.8007L97.1259 30.5306C97.3303 30.2604 97.5348 29.9902 97.8074 29.6525C98.0801 29.3148 98.3527 28.977 98.7617 28.6393C99.1025 28.3016 99.5114 28.0314 99.9204 27.8288C100.329 27.6261 100.806 27.491 101.284 27.491C102.033 27.491 102.579 27.6937 103.124 28.0314C103.601 28.3691 103.805 28.9095 103.805 29.6525V30.3279C103.669 30.6657 103.533 30.9358 103.396 31.0709C103.26 31.2736 103.056 31.4086 102.851 31.4762C102.647 31.5437 102.442 31.6113 102.238 31.6113C102.033 31.6113 101.829 31.6113 101.624 31.6113C100.806 31.6113 100.057 31.7464 99.3069 31.949C98.5572 32.1516 97.8756 32.4894 97.3303 32.8946C96.7851 33.2999 96.3079 33.7727 95.9672 34.3806C95.6264 34.9885 95.4219 35.664 95.4219 36.3394C95.4219 37.2175 95.6264 37.9605 95.9672 38.5009C96.3079 39.0412 96.8532 39.514 97.4667 39.8517C98.0801 40.1895 98.7617 40.3921 99.5796 40.4597C100.261 40.5272 100.943 40.5947 101.624 40.5947C101.761 40.5947 101.829 40.5947 101.965 40.5947C102.306 40.5947 102.715 40.5272 103.056 40.3921C103.396 40.257 103.737 40.1895 104.01 40.0544C104.419 39.7842 104.896 39.7167 105.373 39.7167C105.85 39.7167 106.327 39.8517 106.736 40.0544L106.941 40.1895V30.8683C106.941 29.9902 106.736 29.3148 106.327 28.7744C105.918 28.1665 105.441 27.7612 104.828 27.491ZM98.7617 34.6508C98.898 34.178 99.1025 33.7727 99.4433 33.3674C99.7159 33.0297 100.057 32.692 100.466 32.4894C100.875 32.2867 101.284 32.1516 101.693 32.1516C102.101 32.1516 102.579 32.0841 102.988 31.949C103.328 31.8815 103.601 31.6788 103.874 31.4086V39.0412C103.601 39.3114 103.328 39.514 102.988 39.6491C102.647 39.7842 102.306 39.8517 101.897 39.9193C101.488 39.9193 101.079 39.8518 100.67 39.6491C100.261 39.4465 99.9204 39.1763 99.6477 38.8386C99.3751 38.5009 99.1025 38.0956 98.898 37.6228C98.6935 37.15 98.6254 36.6771 98.6254 36.1368C98.5572 35.5964 98.6254 35.1236 98.7617 34.6508Z" fill="#DFD2C0"/>
<path d="M123.641 41.2024C123.232 40.8647 122.755 40.5945 122.141 40.3919C121.596 40.1892 120.915 40.1217 120.233 40.1217C119.62 40.1217 118.938 40.1892 118.324 40.3919C117.779 40.527 117.234 40.662 116.689 40.8647L114.985 41.405C114.439 41.6077 113.894 41.7428 113.417 41.8779C112.94 42.0129 112.531 42.0805 112.122 42.0805C111.849 42.0805 111.577 42.0129 111.44 41.9454C111.304 41.8779 111.236 41.7428 111.372 41.4726C111.577 41.2024 111.781 40.9322 112.19 40.662C112.531 40.3919 113.008 40.1217 113.417 39.8515C113.894 39.5813 114.235 39.3787 114.576 39.2436C114.78 39.2436 114.985 39.3112 115.257 39.3112C115.53 39.3112 115.734 39.3787 115.939 39.3787C116.893 39.3787 117.779 39.2436 118.665 38.9059C119.483 38.6357 120.233 38.1629 120.915 37.6901C121.528 37.1497 122.073 36.5418 122.414 35.8664C122.755 35.1234 122.959 34.3804 122.959 33.5698C122.959 32.8268 122.823 32.1514 122.482 31.4759C122.141 30.8005 121.732 30.2601 121.187 29.7198C120.642 29.1794 120.028 28.7742 119.279 28.4364C118.597 28.0987 117.847 27.8961 117.029 27.8285C117.029 27.761 117.098 27.6259 117.166 27.4908C117.234 27.3557 117.37 27.1531 117.507 27.018C117.643 26.8829 117.779 26.7478 117.916 26.6127C118.052 26.5452 118.256 26.4776 118.393 26.4101C118.665 26.4101 118.938 26.4101 119.211 26.5452C119.483 26.6803 119.756 26.8154 119.96 27.018C120.165 27.2206 120.437 27.4233 120.574 27.6934C120.778 27.8961 120.846 28.0987 120.983 28.3013L121.051 28.504L122.414 26.8829L122.278 26.8154C121.869 26.5452 121.46 26.3425 121.119 26.2074C120.71 26.0724 120.369 25.9373 120.028 25.8697C119.347 25.7346 118.733 25.7346 118.324 25.8022C117.779 25.8697 117.234 26.0724 116.689 26.4101C116.143 26.7478 115.666 27.1531 115.257 27.6934C114.371 27.761 113.553 27.9636 112.804 28.3013C112.054 28.6391 111.372 29.0443 110.759 29.5847C110.214 30.1251 109.736 30.6654 109.396 31.3409C109.055 32.0163 108.919 32.7593 108.919 33.5023C108.919 34.1102 109.055 34.7181 109.259 35.326C109.464 35.8664 109.805 36.4067 110.214 36.8795C110.623 37.3523 111.1 37.7576 111.713 38.0953C112.19 38.3655 112.667 38.6357 113.213 38.8383C113.008 38.9059 112.804 39.041 112.531 39.1761C112.122 39.3787 111.713 39.5813 111.236 39.8515C110.827 40.1217 110.35 40.3919 109.941 40.7296C109.532 41.0673 109.123 41.405 108.85 41.7428C108.578 42.0805 108.373 42.4858 108.237 42.891C108.101 43.2963 108.169 43.7016 108.373 44.1744C108.578 44.5797 108.782 44.8498 109.055 45.0525C109.327 45.2551 109.6 45.3226 109.941 45.3226C110.418 45.3226 110.963 45.1876 111.577 44.8498C112.122 44.5797 112.804 44.1744 113.417 43.7691C114.099 43.3638 114.78 42.891 115.53 42.4858C116.28 42.0805 117.029 41.6752 117.847 41.405C118.529 41.2024 119.074 41.0673 119.551 41.0673C120.233 41.0673 120.778 41.27 121.119 41.6752C121.46 42.0805 121.664 42.6884 121.732 43.4989C121.732 43.9717 121.664 44.5121 121.528 44.9849C121.392 45.4577 121.119 45.9305 120.846 46.2683C120.574 46.6735 120.165 46.9437 119.756 47.2139C119.347 47.4165 118.87 47.5516 118.393 47.5516C118.188 47.5516 117.984 47.4841 117.779 47.349C117.575 47.2139 117.37 47.0788 117.166 46.8762C116.961 46.6735 116.825 46.4709 116.689 46.2007C116.552 45.9305 116.416 45.6604 116.28 45.4577C116.007 44.8498 115.734 44.1068 115.53 43.3638L115.462 43.1612L113.349 44.5121L113.417 44.5797C113.553 44.9849 113.826 45.3902 114.167 45.7955C114.508 46.2007 114.848 46.606 115.257 47.0113C115.666 47.349 116.143 47.6867 116.621 47.8893C117.098 48.1595 117.643 48.2946 118.12 48.2946C118.597 48.2946 119.211 48.2271 119.824 48.092C120.506 47.9569 121.119 47.7543 121.732 47.4165C122.346 47.0788 122.959 46.6735 123.436 46.2007C123.982 45.6604 124.323 45.0525 124.459 44.3095C124.595 43.7016 124.595 43.0937 124.459 42.6208C124.323 42.0129 124.05 41.5401 123.641 41.2024ZM117.575 38.3655C117.098 38.6357 116.621 38.7708 116.075 38.7708C115.53 38.7708 115.053 38.6357 114.576 38.3655C114.099 38.0953 113.69 37.7576 113.349 37.2848C113.008 36.812 112.735 36.2716 112.531 35.5962C112.326 34.9883 112.258 34.2453 112.258 33.5698C112.258 32.8268 112.326 32.1514 112.531 31.5435C112.735 30.9356 113.008 30.3277 113.349 29.8549C113.69 29.3821 114.099 29.0443 114.576 28.7742C115.053 28.504 115.53 28.3689 116.075 28.3689C116.621 28.3689 117.098 28.504 117.575 28.7742C118.052 29.0443 118.461 29.3821 118.802 29.8549C119.142 30.3277 119.415 30.868 119.62 31.5435C119.824 32.1514 119.892 32.8944 119.892 33.5698C119.892 34.3128 119.824 34.9883 119.62 35.5962C119.415 36.2041 119.142 36.812 118.802 37.2848C118.461 37.6901 118.052 38.0953 117.575 38.3655Z" fill="#DFD2C0"/>
<path d="M132.366 21.4785V22.154H132.502C132.911 22.154 133.252 22.2891 133.525 22.5592C133.797 22.8294 133.934 23.1671 133.934 23.5724V27.0847C133.593 26.9496 133.252 26.8821 132.911 26.8146C132.502 26.747 132.025 26.6795 131.616 26.6795C130.662 26.6795 129.708 26.8821 128.89 27.2198C128.004 27.5576 127.254 28.0304 126.64 28.7058C126.027 29.3137 125.482 30.0567 125.141 30.8673C124.8 31.6778 124.596 32.6234 124.596 33.5015C124.596 34.4471 124.8 35.3252 125.141 36.1358C125.482 36.9463 126.027 37.6893 126.64 38.2972C127.254 38.9051 128.004 39.3779 128.89 39.7832C129.708 40.1209 130.662 40.3235 131.616 40.3235C132.025 40.3235 132.434 40.256 132.775 40.1884C133.116 40.1209 133.525 39.9858 133.797 39.9183C134.07 39.8507 134.411 39.7156 134.683 39.6481C134.956 39.5805 135.229 39.513 135.433 39.513C135.978 39.513 136.455 39.6481 136.796 39.8507L137.001 39.9858V21.4785H132.366ZM130.185 27.8277C130.662 27.49 131.139 27.3549 131.616 27.3549C132.093 27.3549 132.502 27.49 132.911 27.6926C133.32 27.8953 133.661 28.233 133.934 28.6383V38.4323C133.593 38.8375 133.252 39.1077 132.911 39.3779C132.502 39.5805 132.093 39.7156 131.616 39.7156C131.139 39.7156 130.594 39.5805 130.185 39.2428C129.708 38.9051 129.299 38.4998 128.958 37.9595C128.617 37.4191 128.344 36.7437 128.14 36.0007C127.936 35.2577 127.867 34.4471 127.867 33.569C127.867 32.691 127.936 31.8804 128.14 31.1374C128.344 30.3944 128.617 29.719 128.958 29.1786C129.299 28.5707 129.708 28.0979 130.185 27.8277Z" fill="#DFD2C0"/>
<path d="M45.5287 50.458C45.4605 50.458 45.3924 50.458 45.3924 50.3905C45.3242 50.3905 45.3242 50.3229 45.3242 50.2554C45.3242 50.1878 45.3242 50.1878 45.3924 50.1203C45.4605 50.1203 45.4605 50.0527 45.5287 50.0527C45.5969 50.0527 45.665 50.0527 45.665 50.1203C45.7332 50.1203 45.7332 50.1878 45.7332 50.2554C45.7332 50.3229 45.7332 50.3229 45.665 50.3905C45.665 50.458 45.5969 50.458 45.5287 50.458ZM45.3924 52.7545V50.6606H45.4605H45.5287H45.5969H45.665V52.7545H45.3924Z" fill="#DFD2C0"/>
<path d="M46.6211 52.754V50.6602H46.8937V51.0654C46.9619 50.9979 46.9619 50.9303 47.0982 50.8628C47.2345 50.7952 47.3027 50.7277 47.3708 50.7277C47.5072 50.6602 47.5753 50.6602 47.7116 50.6602C47.9843 50.6602 48.2569 50.7277 48.3932 50.8628C48.5295 50.9979 48.6659 51.2005 48.6659 51.4707V52.754H48.3932V51.4707C48.3932 51.2681 48.3251 51.133 48.1888 50.9979C48.0524 50.8628 47.9161 50.8628 47.6435 50.8628C47.5072 50.8628 47.3708 50.8628 47.2345 50.9303C47.0982 50.9979 47.03 51.0654 46.9619 51.133C46.8937 51.2005 46.8256 51.2681 46.8256 51.4031V52.8216H46.6211V52.754Z" fill="#DFD2C0"/>
<path d="M50.3017 52.8217C50.0972 52.8217 49.9609 52.7542 49.8246 52.6867C49.6882 52.6191 49.6883 52.4165 49.6883 52.2138V50.9305H49.2793V50.6603H49.5519C49.6201 50.6603 49.6883 50.6603 49.6883 50.5928C49.6883 50.5928 49.7564 50.5252 49.7564 50.4577V50.1875H50.029V50.6603H50.6425V50.8629H50.029V52.1463C50.029 52.2814 50.029 52.3489 50.0972 52.4165C50.1654 52.484 50.2335 52.5516 50.3698 52.5516C50.438 52.5516 50.5743 52.5516 50.6425 52.484V52.7542C50.5743 52.7542 50.5743 52.7542 50.5062 52.8217C50.438 52.8217 50.3698 52.8217 50.3017 52.8217Z" fill="#DFD2C0"/>
<path d="M52.4808 52.8216C52.2081 52.8216 52.0037 52.754 51.7992 52.6865C51.5947 52.619 51.4584 52.4839 51.3902 52.2812C51.3221 52.1461 51.2539 51.9435 51.2539 51.7409C51.2539 51.5382 51.3221 51.3356 51.3902 51.2005C51.4584 51.0654 51.5947 50.9303 51.7992 50.7952C52.0037 50.7277 52.14 50.6602 52.4126 50.6602C52.6171 50.6602 52.8216 50.7277 53.026 50.7952C53.1624 50.8628 53.2987 50.9979 53.435 51.2005C53.5032 51.3356 53.5713 51.5382 53.5713 51.7409V51.876H51.5947C51.5947 52.0111 51.6629 52.1461 51.731 52.2812C51.7992 52.4163 51.9355 52.4839 52.0718 52.5514C52.2081 52.619 52.4126 52.619 52.5489 52.619C52.7534 52.619 52.8897 52.619 53.026 52.5514C53.1624 52.4839 53.2987 52.4163 53.3668 52.3488V52.619C53.2987 52.6865 53.1624 52.754 53.026 52.754C52.8216 52.754 52.6171 52.8216 52.4808 52.8216ZM53.2305 51.6058C53.2305 51.4707 53.1624 51.3356 53.0942 51.2681C53.026 51.133 52.9579 51.0654 52.8216 50.9979C52.6853 50.9303 52.5489 50.9303 52.4126 50.9303C52.2763 50.9303 52.0718 50.9303 51.9355 50.9979C51.7992 51.0654 51.731 51.133 51.5947 51.2681C51.5265 51.4032 51.4584 51.5382 51.4584 51.6733H53.2305V51.6058Z" fill="#DFD2C0"/>
<path d="M54.3203 52.754V50.6602H54.593V51.0654C54.6611 50.9979 54.6611 50.9303 54.7293 50.8628C54.7974 50.7952 54.8656 50.7277 55.0019 50.7277C55.0701 50.6602 55.2064 50.6602 55.3427 50.6602H55.5472V50.9303H55.3427C55.2064 50.9303 55.0701 50.9303 55.0019 50.9979C54.8656 51.0654 54.7974 51.133 54.7293 51.2005C54.6611 51.2681 54.593 51.3356 54.593 51.4031V52.8216H54.3203V52.754Z" fill="#DFD2C0"/>
<path d="M56.1621 52.754V50.6602H56.4347V51.0654C56.5029 50.9979 56.5029 50.9303 56.6392 50.8628C56.7755 50.7952 56.8437 50.7277 56.9119 50.7277C57.0482 50.6602 57.1163 50.6602 57.2527 50.6602C57.5253 50.6602 57.7979 50.7277 57.9342 50.8628C58.0706 50.9979 58.2069 51.2005 58.2069 51.4707V52.754H57.9342V51.4707C57.9342 51.2681 57.8661 51.133 57.7298 50.9979C57.5934 50.8628 57.4571 50.8628 57.1845 50.8628C57.0482 50.8628 56.9119 50.8628 56.7755 50.9303C56.6392 50.9979 56.5711 51.0654 56.5029 51.133C56.4347 51.2005 56.3666 51.2681 56.3666 51.4031V52.8216H56.1621V52.754Z" fill="#DFD2C0"/>
<path d="M59.8433 52.8227C59.5707 52.8227 59.3662 52.7552 59.2299 52.6876C59.0936 52.6201 59.0254 52.4175 59.0254 52.2148C59.0254 52.0122 59.0936 51.8771 59.298 51.742C59.4343 51.6069 59.707 51.5394 60.1159 51.5394C60.3204 51.5394 60.5249 51.5394 60.6612 51.4718C60.7975 51.4718 60.8657 51.4043 60.9338 51.4043C61.002 51.4043 61.002 51.3367 61.002 51.2017C61.002 51.1341 61.002 51.0666 60.9338 50.999C60.8657 50.9315 60.7975 50.9315 60.6612 50.8639C60.5249 50.7964 60.3886 50.7964 60.1841 50.7964C59.9796 50.7964 59.7751 50.7964 59.6388 50.8639C59.4343 50.9315 59.298 50.999 59.2299 51.0666V50.7964C59.298 50.7288 59.4343 50.6613 59.6388 50.6613C59.8433 50.5937 60.0478 50.5938 60.2523 50.5938C60.5249 50.5938 60.6612 50.5937 60.8657 50.6613C61.002 50.7288 61.1383 50.7964 61.2065 50.8639C61.2746 50.9315 61.3428 51.0666 61.3428 51.2017V52.6876H61.0702V52.3499C61.002 52.4175 60.9338 52.485 60.7975 52.5526C60.6612 52.6201 60.5931 52.6876 60.4567 52.6876C60.1841 52.8227 60.0478 52.8227 59.8433 52.8227ZM59.9115 52.5526C60.0478 52.5526 60.1841 52.5525 60.3204 52.485C60.4567 52.4175 60.5931 52.4175 60.6612 52.3499C60.7294 52.2824 60.7975 52.2148 60.8657 52.1473V51.5394C60.8657 51.5394 60.7975 51.6069 60.7294 51.6069C60.6612 51.6069 60.5931 51.6745 60.4567 51.6745C60.3204 51.6745 60.1841 51.6745 59.9796 51.6745C59.707 51.6745 59.5025 51.742 59.4343 51.8096C59.298 51.8771 59.2299 52.0122 59.2299 52.1473C59.2299 52.2824 59.298 52.3499 59.3662 52.4175C59.5707 52.5525 59.707 52.5526 59.9115 52.5526Z" fill="#DFD2C0"/>
<path d="M62.8407 52.8217C62.6363 52.8217 62.5 52.7542 62.3636 52.6867C62.2273 52.6191 62.2273 52.4165 62.2273 52.2138V50.9305H61.8184V50.6603H62.0228C62.091 50.6603 62.1592 50.6603 62.1592 50.5928C62.1592 50.5928 62.2273 50.5252 62.2273 50.4577V50.1875H62.5V50.6603H63.1134V50.8629H62.5V52.1463C62.5 52.2814 62.5 52.3489 62.5681 52.4165C62.6363 52.484 62.7044 52.5516 62.8407 52.5516C62.9089 52.5516 63.0452 52.5516 63.1134 52.484V52.7542C63.0452 52.7542 63.0452 52.7542 62.9771 52.8217C62.9771 52.8217 62.9089 52.8217 62.8407 52.8217Z" fill="#DFD2C0"/>
<path d="M64.0678 50.458C63.9996 50.458 63.9314 50.458 63.9314 50.3905C63.8633 50.3905 63.8633 50.3229 63.8633 50.2554C63.8633 50.1878 63.8633 50.1878 63.9314 50.1203C63.9996 50.1203 63.9996 50.0527 64.0678 50.0527C64.1359 50.0527 64.2041 50.0527 64.2041 50.1203C64.2722 50.1203 64.2722 50.1878 64.2722 50.2554C64.2722 50.3229 64.2722 50.3229 64.2041 50.3905C64.1359 50.458 64.1359 50.458 64.0678 50.458ZM63.9314 52.7545V50.6606H63.9996H64.0678H64.1359H64.2041V52.7545H63.9314Z" fill="#DFD2C0"/>
<path d="M66.3165 52.8216C66.0439 52.8216 65.8394 52.754 65.6349 52.6865C65.4304 52.619 65.2941 52.4839 65.1578 52.2812C65.0215 52.1461 65.0215 51.9435 65.0215 51.7409C65.0215 51.5382 65.0896 51.3356 65.1578 51.2005C65.2941 51.0654 65.4304 50.9303 65.6349 50.7952C65.8394 50.7277 66.0439 50.6602 66.3165 50.6602C66.5891 50.6602 66.7936 50.7277 66.9981 50.7952C67.2026 50.8628 67.3389 50.9979 67.4752 51.2005C67.6115 51.3356 67.6115 51.5382 67.6115 51.7409C67.6115 51.9435 67.5434 52.1461 67.4752 52.2812C67.3389 52.4163 67.2026 52.5514 66.9981 52.6865C66.7936 52.754 66.521 52.8216 66.3165 52.8216ZM66.3165 52.5514C66.521 52.5514 66.7255 52.4839 66.8618 52.4163C66.9981 52.3488 67.1344 52.2137 67.2026 52.1461C67.2707 52.0786 67.3389 51.876 67.3389 51.6733C67.3389 51.4707 67.2707 51.3356 67.2026 51.2005C67.1344 51.0654 66.9981 50.9979 66.8618 50.9303C66.7255 50.8628 66.521 50.7952 66.3165 50.7952C66.112 50.7952 65.9076 50.8628 65.7712 50.9303C65.6349 50.9979 65.4986 51.133 65.4304 51.2005C65.3623 51.2681 65.2941 51.4707 65.2941 51.6733C65.2941 51.8084 65.3623 52.0111 65.4304 52.1461C65.4986 52.2812 65.6349 52.3488 65.7712 52.4163C65.9076 52.5514 66.112 52.5514 66.3165 52.5514Z" fill="#DFD2C0"/>
<path d="M68.4297 52.754V50.6602H68.7023V51.0654C68.7705 50.9979 68.7705 50.9303 68.9068 50.8628C69.0431 50.7952 69.1113 50.7277 69.1794 50.7277C69.3158 50.6602 69.3839 50.6602 69.5202 50.6602C69.7929 50.6602 70.0655 50.7277 70.2018 50.8628C70.3381 50.9979 70.4745 51.2005 70.4745 51.4707V52.754H70.2018V51.4707C70.2018 51.2681 70.1337 51.133 69.9973 50.9979C69.861 50.8628 69.7247 50.8628 69.4521 50.8628C69.3158 50.8628 69.1794 50.8628 69.0431 50.9303C68.9068 50.9979 68.8386 51.0654 68.7705 51.133C68.7023 51.2005 68.6342 51.2681 68.6342 51.4031V52.8216H68.4297V52.754Z" fill="#DFD2C0"/>
<path d="M72.1109 52.8227C71.8382 52.8227 71.6338 52.7552 71.4974 52.6876C71.3611 52.6201 71.293 52.4175 71.293 52.2148C71.293 52.0122 71.3611 51.8771 71.5656 51.742C71.7019 51.6069 71.9746 51.5394 72.3835 51.5394C72.588 51.5394 72.7925 51.5394 72.9288 51.4718C73.0651 51.4718 73.1333 51.4043 73.2014 51.4043C73.2696 51.4043 73.2696 51.3367 73.2696 51.2017C73.2696 51.1341 73.2696 51.0666 73.2014 50.999C73.1333 50.9315 73.0651 50.9315 72.9288 50.8639C72.7925 50.7964 72.6562 50.7964 72.4517 50.7964C72.2472 50.7964 72.0427 50.7964 71.9064 50.8639C71.7019 50.9315 71.5656 50.999 71.4974 51.0666V50.7964C71.5656 50.7288 71.7019 50.6613 71.9064 50.6613C72.1109 50.5937 72.3154 50.5938 72.5198 50.5938C72.7925 50.5938 72.9288 50.5937 73.1333 50.6613C73.2696 50.7288 73.4059 50.7964 73.4741 50.8639C73.5422 50.9315 73.6104 51.0666 73.6104 51.2017V52.6876H73.3377V52.3499C73.2696 52.4175 73.2014 52.485 73.0651 52.5526C72.9288 52.6201 72.8606 52.6876 72.7243 52.6876C72.3835 52.8227 72.2472 52.8227 72.1109 52.8227ZM72.179 52.5526C72.3154 52.5526 72.4517 52.5525 72.588 52.485C72.7243 52.4175 72.8606 52.4175 72.9288 52.3499C72.9969 52.2824 73.0651 52.2148 73.1333 52.1473V51.5394C73.1333 51.5394 73.0651 51.6069 72.9969 51.6069C72.9288 51.6069 72.8606 51.6745 72.7243 51.6745C72.588 51.6745 72.4517 51.6745 72.2472 51.6745C71.9746 51.6745 71.7701 51.742 71.7019 51.8096C71.5656 51.8771 71.4974 52.0122 71.4974 52.1473C71.4974 52.2824 71.5656 52.3499 71.6338 52.4175C71.7701 52.5525 71.9746 52.5526 72.179 52.5526Z" fill="#DFD2C0"/>
<path d="M74.3594 52.7537V49.9844H74.632V52.7537H74.3594Z" fill="#DFD2C0"/>
<path d="M77.7685 52.8217C77.564 52.8217 77.4277 52.7542 77.2914 52.6867C77.1551 52.5516 77.155 52.4165 77.155 52.2138V50.9305H76.7461V50.6603H77.0187C77.0869 50.6603 77.155 50.6603 77.155 50.5928C77.155 50.5928 77.2232 50.5252 77.2232 50.4577V50.1875H77.4958V50.6603H78.1093V50.8629H77.4958V52.1463C77.4958 52.2814 77.4958 52.3489 77.564 52.4165C77.6322 52.484 77.7003 52.5516 77.8366 52.5516C77.9048 52.5516 78.0411 52.5516 78.1093 52.484V52.7542C78.0411 52.7542 78.0411 52.7542 77.973 52.8217C77.8366 52.8217 77.8366 52.8217 77.7685 52.8217Z" fill="#DFD2C0"/>
<path d="M78.791 52.754V50.6602H79.0637V51.0654C79.1318 50.9979 79.1318 50.9303 79.2 50.8628C79.2681 50.7952 79.3363 50.7277 79.4726 50.7277C79.5408 50.6602 79.6771 50.6602 79.8134 50.6602H80.0179V50.9303H79.8134C79.6771 50.9303 79.5408 50.9303 79.4726 50.9979C79.3363 51.0654 79.2681 51.133 79.2 51.2005C79.1318 51.2681 79.0637 51.3356 79.0637 51.4031V52.8216H78.791V52.754Z" fill="#DFD2C0"/>
<path d="M81.2437 52.8227C80.9711 52.8227 80.7666 52.7552 80.6303 52.6876C80.4939 52.6201 80.4258 52.4175 80.4258 52.2148C80.4258 52.0122 80.4939 51.8771 80.6984 51.742C80.8347 51.6069 81.1074 51.5394 81.5163 51.5394C81.7208 51.5394 81.9253 51.5394 82.0616 51.4718C82.1979 51.4718 82.2661 51.4043 82.3342 51.4043C82.4024 51.4043 82.4024 51.3367 82.4024 51.2017C82.4024 51.1341 82.4024 51.0666 82.3342 50.999C82.2661 50.9315 82.1979 50.9315 82.0616 50.8639C81.9253 50.7964 81.789 50.7964 81.5845 50.7964C81.38 50.7964 81.1755 50.7964 81.0392 50.8639C80.8347 50.9315 80.6984 50.999 80.6303 51.0666V50.7964C80.6984 50.7288 80.8347 50.6613 81.0392 50.6613C81.2437 50.5937 81.4482 50.5938 81.6526 50.5938C81.9253 50.5938 82.0616 50.5937 82.2661 50.6613C82.4024 50.7288 82.5387 50.7964 82.6069 50.8639C82.675 50.9315 82.7432 51.0666 82.7432 51.2017V52.6876H82.4706V52.3499C82.4024 52.4175 82.3342 52.485 82.1979 52.5526C82.0616 52.6201 81.9934 52.6876 81.8571 52.6876C81.5845 52.8227 81.4482 52.8227 81.2437 52.8227ZM81.3119 52.5526C81.4482 52.5526 81.5845 52.5525 81.7208 52.485C81.8571 52.4175 81.9934 52.4175 82.0616 52.3499C82.1298 52.2824 82.1979 52.2148 82.2661 52.1473V51.5394C82.2661 51.5394 82.1979 51.6069 82.1298 51.6069C82.0616 51.6069 81.9934 51.6745 81.8571 51.6745C81.7208 51.6745 81.5845 51.6745 81.38 51.6745C81.1074 51.6745 80.9029 51.742 80.8347 51.8096C80.6984 51.8771 80.6303 52.0122 80.6303 52.1473C80.6303 52.2824 80.6984 52.3499 80.7666 52.4175C80.9711 52.5525 81.1074 52.5526 81.3119 52.5526Z" fill="#DFD2C0"/>
<path d="M83.6303 50.458C83.5621 50.458 83.4939 50.458 83.4939 50.3905C83.4258 50.3905 83.4258 50.3229 83.4258 50.2554C83.4258 50.1878 83.4258 50.1878 83.4939 50.1203C83.5621 50.1203 83.5621 50.0527 83.6303 50.0527C83.6984 50.0527 83.7666 50.0527 83.7666 50.1203C83.8347 50.1203 83.8347 50.1878 83.8347 50.2554C83.8347 50.3229 83.8347 50.3229 83.7666 50.3905C83.7666 50.458 83.6984 50.458 83.6303 50.458ZM83.4939 52.7545V50.6606H83.5621H83.6303H83.6984H83.7666V52.7545H83.4939Z" fill="#DFD2C0"/>
<path d="M84.7188 52.754V50.6602H84.9914V51.0654C85.0595 50.9979 85.0595 50.9303 85.1959 50.8628C85.3322 50.7952 85.4003 50.7277 85.4685 50.7277C85.6048 50.6602 85.673 50.6602 85.8093 50.6602C86.0819 50.6602 86.3546 50.7277 86.4909 50.8628C86.6272 50.9979 86.7635 51.2005 86.7635 51.4707V52.754H86.4909V51.4707C86.4909 51.2681 86.4227 51.133 86.2864 50.9979C86.1501 50.8628 86.0138 50.8628 85.7411 50.8628C85.6048 50.8628 85.4685 50.8628 85.3322 50.9303C85.1959 50.9979 85.1277 51.0654 85.0595 51.133C84.9914 51.2005 84.9232 51.2681 84.9232 51.4031V52.8216H84.7188V52.754Z" fill="#DFD2C0"/>
<path d="M88.8772 52.8216C88.6046 52.8216 88.4001 52.754 88.1957 52.6865C87.9912 52.619 87.8549 52.4839 87.7867 52.2812C87.7185 52.1461 87.6504 51.9435 87.6504 51.7409C87.6504 51.5382 87.7185 51.3356 87.7867 51.2005C87.8549 51.0654 87.9912 50.9303 88.1957 50.7952C88.4001 50.7277 88.5365 50.6602 88.8091 50.6602C89.0136 50.6602 89.218 50.7277 89.4225 50.7952C89.5588 50.8628 89.6952 50.9979 89.8315 51.2005C89.8996 51.3356 89.9678 51.5382 89.9678 51.7409V51.876H87.9912C87.9912 52.0111 88.0593 52.1461 88.1275 52.2812C88.1957 52.4163 88.332 52.4839 88.4683 52.5514C88.6046 52.619 88.8091 52.619 88.9454 52.619C89.1499 52.619 89.2862 52.619 89.4225 52.5514C89.5588 52.4839 89.6952 52.4163 89.7633 52.3488V52.619C89.6952 52.6865 89.5588 52.754 89.4225 52.754C89.218 52.754 89.0136 52.8216 88.8772 52.8216ZM89.627 51.6058C89.627 51.4707 89.5588 51.3356 89.4907 51.2681C89.4225 51.133 89.3544 51.0654 89.218 50.9979C89.0817 50.9303 88.9454 50.9303 88.8091 50.9303C88.6728 50.9303 88.4683 50.9303 88.332 50.9979C88.1957 51.0654 88.1275 51.133 87.9912 51.2681C87.923 51.4032 87.8549 51.5382 87.8549 51.6733H89.627V51.6058Z" fill="#DFD2C0"/>
<path d="M90.7188 52.754V50.6602H90.9914V51.0654C91.0595 50.9979 91.0595 50.9303 91.1277 50.8628C91.1959 50.7952 91.264 50.7277 91.4003 50.7277C91.4685 50.6602 91.6048 50.6602 91.7411 50.6602H91.9456V50.9303H91.7411C91.6048 50.9303 91.4685 50.9303 91.4003 50.9979C91.264 51.0654 91.1959 51.133 91.1277 51.2005C91.0595 51.2681 90.9914 51.3356 90.9914 51.4031V52.8216H90.7188V52.754Z" fill="#DFD2C0"/>
<path d="M93.5826 39.2435C93.1737 39.2435 92.8329 39.1084 92.5602 38.8382C92.2876 38.5681 92.1513 38.2979 92.1513 37.9602V27.153C92.2194 26.8828 92.3557 26.6126 92.5602 26.41C92.8329 26.1398 93.1737 26.0047 93.5826 26.0047H93.7871V25.2617H89.2886L84.5856 35.7987L79.8826 26.0047C79.7463 25.5994 79.4737 25.4644 79.201 25.4644C79.201 25.4644 78.9966 25.4644 78.7239 25.4644C78.315 25.4644 78.1105 25.4644 77.497 25.4644H74.498V26.1398H74.7025C74.9752 26.1398 75.2478 26.2073 75.5204 26.3424C75.7249 26.4775 75.9294 26.6126 76.0657 26.8828V26.9503C76.1339 27.153 76.202 27.2881 76.202 27.4232V27.4907V27.6258V38.0277C76.202 38.3654 76.0657 38.6356 75.7931 38.9058C75.5204 39.176 75.1796 39.311 74.7707 39.311H74.5662V40.054H78.8602V39.311H78.6558C78.2468 39.311 77.906 39.176 77.6334 38.9058C77.3607 38.6356 77.2244 38.3654 77.2244 38.0277V27.8284L82.9498 39.9865C83.0861 40.1891 83.2224 40.2567 83.2906 40.2567H83.3587C83.5632 40.2567 83.6995 40.1891 83.7677 39.9865L89.2204 27.8284V38.2303C89.1523 38.5005 89.0841 38.7707 88.8115 38.9733C88.5388 39.2435 88.198 39.3786 87.7891 39.3786H87.5846V40.1216H93.8552V39.3786H93.5826V39.2435Z" fill="#DFD2C0"/>
<path d="M65.2293 8.10538C65.2293 8.24047 65.093 8.37556 64.8885 8.5782C64.6841 8.78083 64.3433 8.98347 64.0025 9.25365C63.6617 9.45628 63.2527 9.72646 62.8438 9.92909C62.4348 10.1317 62.0259 10.4019 61.6851 10.537C61.6169 10.8072 61.5487 11.1449 61.2761 11.4151C61.0716 11.7528 60.7308 12.023 60.39 12.3607C60.0492 12.6984 59.6403 12.9686 59.2313 13.2388C58.8224 13.509 58.4134 13.7792 57.9363 13.9818C57.5274 14.1844 57.1184 14.3195 56.7094 14.4546C56.3005 14.5897 55.9597 14.5897 55.6871 14.5897C55.5507 14.5897 55.4144 14.5221 55.2781 14.3871C55.1418 14.252 55.0736 14.1169 55.0736 13.9818C55.0736 13.7792 55.2099 13.509 55.4826 13.3063C55.7552 13.0362 56.0279 12.8335 56.4368 12.5633C56.8458 12.2932 57.2547 12.0905 57.7318 11.8204C58.2089 11.5502 58.6861 11.3475 59.095 11.1449C59.5721 10.9423 59.9811 10.7396 60.3219 10.6045C60.7308 10.4695 61.0035 10.3344 61.208 10.2668C61.208 9.99664 61.0716 9.72646 60.799 9.52383C60.5264 9.32119 60.2537 9.1861 59.8448 9.05101C59.4358 8.91592 58.9587 8.78083 58.4816 8.71329C57.9363 8.5782 57.4592 8.51065 56.9139 8.37556C56.3686 8.24047 55.8915 8.17293 55.3463 8.03784C54.8691 7.90275 54.392 7.76766 53.9831 7.56502C53.5741 7.36239 53.3015 7.15976 53.097 6.82203C52.8925 6.55185 52.7562 6.21413 52.8244 5.80886C52.8244 5.33604 53.0288 4.79569 53.4378 4.32287C53.7786 3.85006 54.2557 3.37724 54.801 2.90443C55.3463 2.49916 55.9597 2.09389 56.7094 1.68862C57.391 1.3509 58.0726 1.01317 58.8224 0.742993C59.504 0.472814 60.1856 0.270179 60.799 0.13509C61.4124 0.0675449 61.9577 0 62.4348 0C62.7074 0 62.9119 0.0675449 63.1846 0.13509C63.4572 0.202635 63.6617 0.270179 63.8662 0.405269C64.0706 0.540359 64.207 0.675449 64.3433 0.878083C64.4796 1.08072 64.4796 1.3509 64.4796 1.62108C64.4796 1.82371 64.4114 2.02635 64.2751 2.36407C64.1388 2.63425 64.0025 2.97197 63.798 3.3097C63.5935 3.64742 63.389 3.98515 63.1846 4.25533C62.9801 4.59305 62.7756 4.86323 62.503 5.13341C62.2985 5.40359 62.094 5.60622 61.8895 5.80886C61.7532 6.01149 61.6169 6.07904 61.4806 6.07904C61.4124 6.07904 61.3443 6.01149 61.2761 6.01149C61.2079 5.94395 61.208 5.8764 61.208 5.8764C61.208 5.8764 61.2761 5.80886 61.3443 5.74131C61.4124 5.67377 61.5487 5.53868 61.6851 5.47113C61.8214 5.33604 61.8895 5.2685 62.0259 5.20095C62.1622 5.13341 62.2303 5.06586 62.2303 4.99832C62.3667 4.79569 62.5711 4.59305 62.7756 4.32287C62.9801 3.9176 63.1846 3.64742 63.389 3.37724C63.5935 3.10706 63.7298 2.76934 63.8662 2.49916C64.0025 2.22898 64.0706 1.9588 64.0706 1.68862C64.0706 1.41844 64.0706 1.21581 63.9343 1.08072C63.8662 0.945628 63.7298 0.810538 63.5254 0.742993C63.389 0.675449 63.1846 0.607904 62.9801 0.540359C62.7756 0.472814 62.5711 0.472814 62.3667 0.472814C61.9577 0.472814 61.4124 0.472814 60.799 0.607904C60.1856 0.742993 59.5721 0.945628 58.8905 1.14826C58.2089 1.41844 57.5955 1.68862 56.9139 2.02635C56.2323 2.36407 55.6871 2.76934 55.1418 3.17461C54.5965 3.64742 54.1876 4.05269 53.8468 4.52551C53.506 4.99832 53.3015 5.40359 53.3015 5.8764C53.3015 6.21413 53.3696 6.48431 53.5741 6.75449C53.7786 6.95712 54.1194 7.15975 54.4602 7.36239C54.8691 7.49748 55.2781 7.63257 55.7552 7.76766C56.2323 7.90275 56.7776 7.97029 57.2547 8.10538C57.8 8.24047 58.2771 8.30802 58.8224 8.44311C59.2995 8.5782 59.7766 8.64574 60.1856 8.84838C60.5945 8.98347 60.9353 9.1861 61.208 9.38873C61.4806 9.59137 61.6169 9.86155 61.6851 10.1993C62.2303 9.92909 62.7756 9.65892 63.2527 9.32119C63.7298 8.98347 64.2751 8.64574 64.6841 8.24047C64.7522 8.17293 64.8204 8.10538 64.8885 8.03784C64.9567 7.97029 65.0249 7.97029 65.0249 7.97029C65.1612 7.90275 65.2293 7.97029 65.2293 8.10538ZM61.1398 10.8072C61.0035 10.8747 60.7308 10.9423 60.39 11.1449C60.0492 11.28 59.7084 11.4826 59.2995 11.6177C58.8905 11.8204 58.4816 12.023 58.0045 12.2256C57.5955 12.4283 57.1866 12.6984 56.7776 12.9011C56.4368 13.1037 56.096 13.3063 55.8915 13.509C55.6871 13.7116 55.5507 13.9142 55.5507 14.0493C55.5507 14.1169 55.5507 14.1169 55.6189 14.1169C55.6189 14.1169 55.6871 14.1169 55.6871 14.1844C55.7552 14.1844 55.7552 14.1844 55.7552 14.1844C55.9597 14.1844 56.2323 14.1844 56.5731 14.0493C56.9139 13.9142 57.2547 13.7792 57.6637 13.6441C58.0726 13.4414 58.4134 13.2388 58.8224 13.0362C59.2313 12.766 59.5721 12.5633 59.9129 12.2932C60.2537 12.023 60.5264 11.7528 60.7308 11.5502C60.9353 11.2124 61.0716 11.0098 61.1398 10.8072Z" fill="#DFD2C0"/>
<path d="M64.9574 9.93024C64.8211 9.93024 64.6847 9.8627 64.5484 9.72761C64.4803 9.59252 64.4121 9.45743 64.4121 9.25479C64.4121 8.98461 64.4803 8.64689 64.6847 8.37671C64.8211 8.10653 65.0255 7.83635 65.2982 7.56617C65.5708 7.29599 65.8435 7.09336 66.1161 6.95827C66.4569 6.82318 66.7295 6.75563 67.0022 6.75563C67.2066 6.75563 67.343 6.75563 67.5474 6.82318C67.7519 6.89072 67.8882 6.95827 68.0245 7.09336C68.0927 7.02581 68.1609 6.89072 68.2972 6.75563C68.4335 6.62054 68.5698 6.553 68.638 6.553C68.7061 6.553 68.7061 6.553 68.7743 6.62054C68.8425 6.68809 68.8425 6.68809 68.8425 6.75563C68.8425 6.89072 68.7743 7.02581 68.5698 7.36354C68.4335 7.63372 68.229 7.9039 68.0927 8.24162C67.8882 8.71443 67.7519 9.05216 67.6838 9.32234C67.6156 9.59252 67.6838 9.72761 67.7519 9.72761C67.8882 9.79515 68.0245 9.72761 68.229 9.52497C68.4335 9.38988 68.7061 9.1197 69.0469 8.78198C69.3196 8.5118 69.6604 8.17408 69.933 7.83635C70.2056 7.49863 70.5464 7.1609 70.8191 6.82318C71.0917 6.48545 71.3643 6.14773 71.637 5.81001C71.9096 5.47228 72.1823 5.13456 72.3867 4.86438C72.523 4.72929 72.6594 4.52665 72.8638 4.25647C73.0683 3.98629 73.2046 3.71611 73.4091 3.37839C73.6136 3.04067 73.8181 2.77049 74.0226 2.43276C74.227 2.09504 74.4315 1.82486 74.636 1.62222C74.8405 1.41959 74.9768 1.14941 75.1131 1.01432C75.2494 0.87923 75.3176 0.744141 75.3857 0.744141C75.4539 0.744141 75.5221 0.744141 75.5902 0.744141C75.6584 0.744141 75.6584 0.811685 75.6584 0.87923C74.9768 2.02749 74.2952 3.10821 73.6136 4.25647C73.341 4.72929 73.0683 5.2021 72.7957 5.67492C72.5231 6.14773 72.2504 6.62054 71.9778 7.09336C71.7051 7.56617 71.5007 7.97144 71.2962 8.44425C71.0917 8.84952 70.8872 9.18725 70.8191 9.52497C70.6828 9.93024 70.5464 10.3355 70.4783 10.7408C70.4101 11.146 70.4101 11.5513 70.4101 11.9566C70.4101 12.2943 70.4783 12.632 70.6146 12.9022C70.7509 13.1724 70.8872 13.3075 71.0917 13.3075C71.1599 13.3075 71.228 13.375 71.228 13.375C71.228 13.4426 71.228 13.4426 71.228 13.5101C71.228 13.5777 71.1599 13.5777 71.1599 13.6452C71.0917 13.6452 71.0917 13.7128 71.0235 13.7128C70.7509 13.7128 70.5464 13.5777 70.342 13.3075C70.1375 13.0373 70.0693 12.6996 70.0012 12.2943C69.933 11.889 69.933 11.4162 70.0012 10.9434C70.0693 10.4706 70.1375 9.99779 70.342 9.52497C70.4783 9.1197 70.6828 8.64689 70.9554 8.03898C71.228 7.49863 71.5007 6.89072 71.8415 6.28282C71.5007 6.68809 71.0917 7.09336 70.6828 7.63372C70.2738 8.17408 69.7967 8.64689 69.3877 9.18725C69.1151 9.45743 68.8425 9.72761 68.638 9.93024C68.3653 10.1329 68.1609 10.2004 67.9564 10.268C67.7519 10.268 67.6156 10.268 67.4793 10.1329C67.343 9.99779 67.2748 9.79515 67.2748 9.45743C67.2748 9.18725 67.343 8.98461 67.4111 8.71443C67.4793 8.44425 67.6156 8.24162 67.6838 8.03898C67.5474 8.17407 67.4111 8.30917 67.2066 8.5118C67.0022 8.71443 66.7295 8.91707 66.4569 9.1197C66.1842 9.32234 65.9116 9.52497 65.639 9.66006C65.3663 9.79515 65.1619 9.93024 64.9574 9.93024ZM67.0703 7.1609C66.8658 7.1609 66.5932 7.22845 66.3206 7.36354C66.0479 7.49863 65.8434 7.70126 65.5708 7.9039C65.3663 8.10653 65.1619 8.30916 65.0255 8.57934C64.8892 8.84952 64.8211 9.05216 64.8211 9.25479C64.8211 9.32234 64.8211 9.38988 64.8211 9.45743C64.8211 9.52497 64.8892 9.52497 64.9574 9.52497C65.0937 9.52497 65.2982 9.45743 65.5708 9.25479C65.8434 9.05216 66.1161 8.84952 66.3887 8.64689C66.6614 8.44425 66.934 8.17408 67.1385 7.97144C67.4111 7.76881 67.5474 7.56617 67.6838 7.43108C67.5474 7.22845 67.343 7.1609 67.0703 7.1609Z" fill="#DFD2C0"/>
<path d="M72.9984 9.92802C72.8621 9.92802 72.7258 9.86048 72.5894 9.72539C72.5213 9.5903 72.4531 9.45521 72.4531 9.25258C72.4531 8.9824 72.5213 8.64467 72.7258 8.37449C72.8621 8.10431 73.0666 7.83413 73.3392 7.56395C73.6118 7.29377 73.8845 7.09114 74.1571 6.95605C74.4979 6.82096 74.7705 6.75342 75.0432 6.75342C75.2476 6.75342 75.384 6.75342 75.5884 6.82096C75.7929 6.88851 75.9292 6.95605 76.0656 7.09114C76.1337 7.0236 76.2019 6.88851 76.3382 6.75342C76.4745 6.61833 76.6108 6.55078 76.679 6.55078C76.7472 6.55078 76.7471 6.55078 76.8153 6.61833C76.8835 6.68587 76.8835 6.68587 76.8835 6.75342C76.8835 6.82096 76.8153 6.95605 76.7471 7.15869C76.679 7.36132 76.5427 7.56395 76.4064 7.76659C76.27 7.96922 76.1337 8.2394 76.0656 8.44204C75.9292 8.71222 75.8611 8.91485 75.8611 9.11749C75.8611 9.38767 75.8611 9.52276 75.9292 9.52276C75.9974 9.52276 76.1337 9.52276 76.3382 9.45521C76.6108 9.38767 76.8153 9.25258 77.0879 9.04994C77.3606 8.84731 77.5651 8.71222 77.7695 8.50958C77.974 8.30695 78.1785 8.17186 78.3148 8.03677C78.4511 7.90168 78.5193 7.83413 78.5875 7.83413C78.6556 7.83413 78.7238 7.83413 78.7238 7.90168C78.7919 7.96922 78.7919 8.03677 78.7919 8.10431C78.7919 8.2394 78.6556 8.44204 78.4511 8.64467C78.1785 8.84731 77.9059 9.04994 77.6332 9.25258C77.2924 9.45521 77.0198 9.5903 76.679 9.72539C76.3382 9.86048 76.1337 9.92802 75.9292 9.92802C75.7929 9.92802 75.6566 9.86048 75.5203 9.79293C75.384 9.65785 75.384 9.52275 75.384 9.38767C75.384 9.11749 75.4521 8.91485 75.5203 8.64467C75.5884 8.37449 75.7248 8.17186 75.7929 7.96922C75.6566 8.10431 75.5203 8.2394 75.3158 8.44204C75.1113 8.64467 74.8387 8.84731 74.5661 9.04994C74.2934 9.25258 74.0208 9.45521 73.7481 9.5903C73.4073 9.79293 73.2029 9.92802 72.9984 9.92802ZM75.1113 7.15869C74.9069 7.15869 74.6342 7.22623 74.3616 7.36132C74.0889 7.49641 73.8845 7.69904 73.6118 7.90168C73.4074 8.10431 73.2029 8.30695 73.0666 8.57713C72.9302 8.84731 72.8621 9.04994 72.8621 9.25258C72.8621 9.32012 72.8621 9.38767 72.8621 9.45521C72.8621 9.52276 72.9302 9.52276 72.9984 9.52276C73.1347 9.52276 73.3392 9.45521 73.6118 9.25258C73.8845 9.04994 74.1571 8.84731 74.4297 8.64467C74.7024 8.44204 74.975 8.17186 75.1795 7.96922C75.4521 7.76659 75.5884 7.56395 75.7248 7.42886C75.5884 7.22623 75.384 7.15869 75.1113 7.15869Z" fill="#DFD2C0"/>
<path d="M81.7243 7.43042C81.5198 7.43042 81.3153 7.56551 81.0427 7.76815C80.77 7.97078 80.4292 8.24096 80.0884 8.51114C79.7477 8.84887 79.4069 9.18659 79.0661 9.52431C78.7253 9.86204 78.4526 10.1998 78.18 10.5375C77.9074 10.8752 77.7029 11.0778 77.4984 11.2805C77.2939 11.4831 77.2258 11.6182 77.2258 11.6182C77.1576 11.6182 77.0894 11.6182 77.0213 11.5507C76.9531 11.5507 76.9531 11.4831 76.9531 11.4156C76.9531 11.2129 77.0213 10.9428 77.2258 10.4699C77.4302 10.0647 77.6347 9.52431 77.9755 8.98396C78.2481 8.4436 78.5889 7.83569 78.9979 7.16024C79.4069 6.4848 79.7476 5.87689 80.1566 5.20144C80.5656 4.526 80.9745 3.91809 81.3835 3.31019C81.7924 2.70228 82.1332 2.16193 82.474 1.68911C82.8148 1.2163 83.0874 0.878574 83.2919 0.608394C83.4964 0.338215 83.6327 0.203125 83.7009 0.203125C83.769 0.203125 83.8372 0.27067 83.9054 0.338215C83.9054 0.40576 83.9054 0.473304 83.8372 0.540849C82.7467 2.09438 81.6561 3.64791 80.6337 5.26899C79.6113 6.89007 78.6571 8.51114 77.9074 10.2673C78.0437 10.0647 78.3163 9.79449 78.6571 9.45677C78.9979 9.11905 79.3387 8.71378 79.7477 8.37605C80.1566 8.03833 80.4974 7.7006 80.9064 7.43042C81.3153 7.16024 81.5879 7.02516 81.7924 7.02516C81.9969 7.02516 82.2014 7.0927 82.2695 7.16024C82.4059 7.22779 82.474 7.29533 82.5422 7.43042C82.6103 7.56551 82.6103 7.7006 82.6103 7.83569C82.6103 7.97078 82.6103 8.10587 82.6785 8.24096C82.6785 8.37605 82.7467 8.51114 82.7467 8.57869C82.7467 8.64623 82.883 8.64623 83.0875 8.57869C83.1556 8.57869 83.2919 8.51114 83.3601 8.4436C83.4964 8.37605 83.5646 8.30851 83.7009 8.24096C83.8372 8.17342 83.9054 8.10587 83.9735 8.03833C84.0417 7.97078 84.1098 7.97078 84.178 7.97078C84.2462 7.97078 84.2462 7.97078 84.3143 8.03833C84.3143 8.10587 84.3143 8.10587 84.3143 8.17342C84.3143 8.24096 84.2462 8.30851 84.1098 8.4436C83.9735 8.51114 83.8372 8.64623 83.7009 8.71378C83.5646 8.78132 83.3601 8.84887 83.2238 8.91641C83.0874 8.98396 82.9511 8.98396 82.883 8.98396C82.6103 8.98396 82.474 8.91641 82.4059 8.78132C82.3377 8.64623 82.3377 8.4436 82.3377 8.24096C82.3377 8.03833 82.2695 7.90324 82.2695 7.7006C82.0651 7.49797 81.9287 7.43042 81.7243 7.43042Z" fill="#DFD2C0"/>
</svg>
